<svg xmlns="http://www.w3.org/2000/svg" id="Gruppe_1814" data-name="Gruppe 1814" viewBox="0 0 145.848 57.885"><defs><style>
      .cls-1 {
        fill: #9ea500;
      }

      .cls-2 {
        fill: #fff;
      }
    </style></defs><g id="Gruppe_1801" data-name="Gruppe 1801"><rect id="Rechteck_587" data-name="Rechteck 587" class="cls-1" width="145.848" height="57.885"/></g><g id="Gruppe_1802" data-name="Gruppe 1802" transform="translate(12.199 14.9)"><path id="Pfad_1159" data-name="Pfad 1159" class="cls-2" d="M69.806,103.638A57.09,57.09,0,0,0,68.8,112H65.347l.386-3.43h-.064c-1.093,2.23-2.851,3.709-4.652,3.709-2.573,0-4.116-1.951-4.116-4.759.021-4.8,3.6-9.519,7.868-9.519a4.724,4.724,0,0,1,2.68.729h.064l.343-.45,3-.193Zm-3.087-2.594a3.057,3.057,0,0,0-1.479-.364c-2.637,0-4.545,3.044-4.545,6.26,0,1.479.557,2.444,1.779,2.444,1.308,0,3.066-1.672,3.709-5.424Z" transform="translate(-56.9 -91.89)"/><path id="Pfad_1160" data-name="Pfad 1160" class="cls-2" d="M135.276,108.648c-1.115,2.23-2.851,3.709-4.652,3.709-2.594,0-4.116-1.951-4.116-4.759,0-4.781,3.6-9.5,7.825-9.5a4.647,4.647,0,0,1,2.7.75h.064l.343-.472,2.98-.193-2.251,13.142c-.815,4.738-3.473,7.161-7.975,7.161a10.223,10.223,0,0,1-4.395-.858l.686-2.787a9.5,9.5,0,0,0,3.816.772c2.08,0,3.816-.965,4.395-4.03l.643-2.916h-.064Zm1.008-7.525a2.9,2.9,0,0,0-1.458-.364c-2.637,0-4.545,3.044-4.545,6.26,0,1.479.536,2.444,1.779,2.444,1.308,0,3.066-1.672,3.709-5.424Z" transform="translate(-111.029 -91.969)"/><path id="Pfad_1161" data-name="Pfad 1161" class="cls-2" d="M204.3,100.959a5.921,5.921,0,0,1,5.1-3.559l-.665,3.516c-2.98-.129-4.481,2.165-4.931,4.952l-.965,5.66H199.2l1.415-8.361c.3-1.887.643-3.88.836-5.338l3.259-.086-.472,3.237h.064Z" transform="translate(-168.693 -91.419)"/><path id="Pfad_1162" data-name="Pfad 1162" class="cls-2" d="M249.258,75.889,252.9,75.8l-2.358,13.785H246.9Zm2.808-6.389a1.669,1.669,0,0,1,1.672,1.758,2.339,2.339,0,0,1-2.251,2.337,1.661,1.661,0,0,1-1.694-1.758A2.373,2.373,0,0,1,252.067,69.5Z" transform="translate(-206.166 -69.5)"/><path id="Pfad_1163" data-name="Pfad 1163" class="cls-2" d="M285.825,108.141c0-1.865-5.017-2.08-5.017-5.66,0-3,2.723-4.481,5.831-4.481a8.816,8.816,0,0,1,3.645.686l-.729,2.637a8.091,8.091,0,0,0-3.151-.665c-1.093,0-1.951.472-1.951,1.308,0,1.779,5.1,1.972,5.1,5.4,0,3.366-2.851,4.867-6.067,4.867a10.105,10.105,0,0,1-4.288-.9l.729-2.68a11.1,11.1,0,0,0,3.88.9C285.117,109.6,285.825,108.977,285.825,108.141Z" transform="translate(-231.542 -91.89)"/><path id="Pfad_1164" data-name="Pfad 1164" class="cls-2" d="M351.206,103.638A57.087,57.087,0,0,0,350.2,112h-3.452l.386-3.43h-.064c-1.093,2.23-2.83,3.709-4.652,3.709-2.573,0-4.116-1.951-4.116-4.759,0-4.8,3.6-9.519,7.868-9.519a4.724,4.724,0,0,1,2.68.729h.064l.343-.45,3-.193Zm-3.087-2.594a3.057,3.057,0,0,0-1.479-.364c-2.637,0-4.545,3.044-4.545,6.26,0,1.479.557,2.444,1.779,2.444,1.308,0,3.066-1.672,3.709-5.424Z" transform="translate(-277.971 -91.89)"/><path id="Pfad_1165" data-name="Pfad 1165" class="cls-2" d="M422.5,102.617l-1.5,9.3h-3.666l1.286-7.525c.214-1.372.622-3.6-1.329-3.6-1.308,0-3.344,2.015-3.945,5.831l-.9,5.3H408.8l1.458-8.361c.3-1.887.579-3.709.815-5.338l3.323-.086-.407,3.194h.064a6.429,6.429,0,0,1,5.124-3.43C421.963,97.9,422.928,99.98,422.5,102.617Z" transform="translate(-333.357 -91.811)"/><path id="Pfad_1166" data-name="Pfad 1166" class="cls-2" d="M497.274,104c-.214,4.588-3.173,8.125-7.825,8.125-3.838,0-5.853-2.594-5.617-6.217.193-4.481,3.151-8.1,7.847-8.1C495.623,97.821,497.467,100.544,497.274,104Zm-9.669,1.865c-.172,2.251.643,3.452,2.315,3.452,2.144,0,3.43-2.594,3.6-5.317.172-1.972-.472-3.387-2.294-3.387C488.977,100.608,487.734,103.288,487.605,105.861Z" transform="translate(-392.288 -91.733)"/></g><g id="Gruppe_1811" data-name="Gruppe 1811" transform="translate(104.021 30.014)"><g id="Gruppe_1803" data-name="Gruppe 1803" transform="translate(18.823 10.419)"><path id="Pfad_1167" data-name="Pfad 1167" class="cls-2" d="M586.614,192.2l-6.732,3.623L573,192.245l6.646-3.645Z" transform="translate(-573 -188.6)"/></g><g id="Gruppe_1806" data-name="Gruppe 1806" transform="translate(9.798 8.603)"><g id="Gruppe_1805" data-name="Gruppe 1805"><g id="Gruppe_1804" data-name="Gruppe 1804"><path id="Pfad_1168" data-name="Pfad 1168" class="cls-2" d="M545.007,181.131l-6.667,3.666-7.439-3.859a28.437,28.437,0,0,1,14.107.193Z" transform="translate(-530.9 -180.129)"/></g></g></g><g id="Gruppe_1807" data-name="Gruppe 1807" transform="translate(18.18 5.06)"><path id="Pfad_1169" data-name="Pfad 1169" class="cls-2" d="M584.021,163.6l-6.818,3.752-7.2-3.73Z" transform="translate(-570 -163.6)"/></g><g id="Gruppe_1808" data-name="Gruppe 1808" transform="translate(18.18)"><path id="Pfad_1170" data-name="Pfad 1170" class="cls-2" d="M583.935,143.623,576.968,140,570,143.623Z" transform="translate(-570 -140)"/></g><g id="Gruppe_1809" data-name="Gruppe 1809" transform="translate(8.468 10.398)"><path id="Pfad_1171" data-name="Pfad 1171" class="cls-2" d="M531.9,192.209l-7.2,3.966V188.5Z" transform="translate(-524.7 -188.5)"/></g><g id="Gruppe_1810" data-name="Gruppe 1810" transform="translate(0 10.569)"><path id="Pfad_1172" data-name="Pfad 1172" class="cls-2" d="M485.2,193.073l6.968,3.666V189.3Z" transform="translate(-485.2 -189.3)"/></g></g></svg>