<svg viewBox="0 0 66 27" xmlns="http://www.w3.org/2000/svg"><path fill="currentColor" d="M56.3 12.59c-.51.14-.91.54-1.34.88-1.72 1.58-3.38 3.34-4.21 5.35-.12.54-.41 1.26.02 1.76.22.15.55.07.77-.03 1-.6 2.06-1.39 2.76-2.34l2.11-5.52c0-.06-.04-.1-.1-.1zm4.35-8c.06.19.11.41.06.62l-1.97 5.2-3.47 8.98c-.11.44-.34 1-.04 1.44.07.1.17.11.28.11.88-.2 1.55-.96 2.2-1.6.07-.07.12-.16.22-.2.05-.02.13-.02.13.05l-.02.1A9.05 9.05 0 0 1 55 22.4c-.23.1-.58.13-.8-.03-.4-.4-.41-1-.45-1.55.03-.46.16-.88.22-1.32h-.04c-.97 1-2.1 1.9-3.25 2.65-.4.22-.87.41-1.35.28-.53-.31-.5-.94-.47-1.5.07-1.17.88-2.06 1.5-3.02 1.69-2.32 3.82-4.76 6.37-6.32l.07-.1 1.47-3.91c.36-.95.73-1.9 1.02-2.88-.02-.1-.04-.22-.14-.3-.55-.34-1.23-.03-1.75.17-.96.48-1.7 1.4-2.31 2.22-.52.92-.68 1.96-1.44 2.79a.72.72 0 0 1-.62.2.35.35 0 0 1-.26-.2c-.08-.37.14-.68.27-.98a15.4 15.4 0 0 1 3.08-3.57 4.96 4.96 0 0 1 3.43-1.14c.44.05.9.32 1.1.72zm-35.59.34c-.62 1.5-1.15 3.02-1.89 4.47a.19.19 0 0 1-.19-.13c.3-1.46 1.28-2.94.57-4.48-.12-.24-.36-.51-.65-.55-.71-.09-1.27.45-1.64.99-.9 1.43-.84 3.49-.47 5.16.58 2.08.6 4.62.23 6.8-.5 1.98-1.34 4.28-3.6 5.12-.5.12-1.1.27-1.56-.01-.63-.3-1.22-.71-1.78-1.15.6-1.56 1.03-3.22 1.63-4.79.06-.09.15-.12.25-.12.07 0 .13.02.16.08-.17.8-.5 1.55-.57 2.4-.08.91-.37 2 .17 2.8.3.35.8.38 1.23.3 1.22-.28 1.74-1.52 2.05-2.5.57-2.03.58-4.37.18-6.48-.44-2.64-.67-5.76 1.19-7.84a2.9 2.9 0 0 1 2.57-1.17c.8.15 1.51.54 2.12 1.1zm7.59-.01V5c-.6 1.48-1.17 2.97-1.88 4.4-.1.03-.16-.06-.2-.12.3-1.48 1.34-3 .52-4.58-.13-.23-.39-.45-.68-.47-.86 0-1.5.8-1.8 1.45-.89 2.01-.3 4.39.1 6.43a15 15 0 0 1-.37 6.1c-.53 1.77-1.84 4.05-4.08 4.24-.87.06-1.5-.54-2.18-.97l-.42-.3v-.09c.62-1.55 1.06-3.17 1.64-4.74.05-.07.14-.1.22-.11.06.02.13 0 .17.08-.05.5-.28.96-.4 1.44-.17 1.07-.45 2.22-.22 3.33.06.27.26.53.53.67a1.9 1.9 0 0 0 1.71-.3c1.33-1.18 1.47-2.9 1.7-4.54.33-3.57-1.5-7.25.1-10.6.55-1.07 1.55-2.5 3-2.49 1.01 0 1.8.47 2.54 1.09zm6.04-1.07c.07.04.05.12.03.18-.1.08-.24.05-.35.1-.94.28-1.4 1.25-1.67 2.05L35.44 9.8l-1.9 6.12c-.37 1.48-1.24 2.81-.96 4.47.06.35.24.68.58.87.47.2 1.13.13 1.61 0 .83-.33 1.03-1.19 1.36-1.86l.46-1.2 4.5-12.97c.06-.29.13-.67-.05-.92-.14-.19-.35-.23-.57-.26a.12.12 0 0 1-.03-.16l.06-.05h2.72c.08.03.06.14.03.2-.4.08-.8.2-1.1.51-.33.54-.45 1.18-.68 1.78l-4.23 12.13c-.52 1.26-.95 2.63-2.18 3.55-.85.52-2.23.6-3.11.08-1.25-.9-1.05-2.64-.82-3.96l.2-.68 1.18-3.51L35.41 5c.12-.27-.07-.52-.2-.75-.12-.15-.3-.16-.49-.18-.07-.04-.06-.12-.04-.18.02-.05.07-.04.13-.06l3.88.02zm8.75.42l-.75 2.42-1.46 4.54-.04.17c.53 0 1.08 0 1.49-.3 1.27-.93 1.79-2.31 2.22-3.64.25-.83.58-1.86.16-2.71-.34-.53-1-.5-1.62-.48zm1.25-.4c.79.07 1.53.66 1.8 1.36.48 1.5-.17 2.98-.95 4.2a6.94 6.94 0 0 1-2.8 2.14c-.06.05-.12.11-.08.18.36.21.28.65.33 1l-.48 5.3-.27 3.52c.01.26.19.5.44.6.16.06.33.08.52.09.07.04.08.14.06.22l-.07.07c-.83-.1-1.73.01-2.37-.5a.94.94 0 0 1-.24-.9l.88-8.28c0-.23.1-.56-.2-.67a.44.44 0 0 0-.28 0c-.16.19-.22.41-.32.63l-1.34 4.01-1.54 4.55c-.03.23-.02.48.17.63.22.17.5.16.77.19.07.03.07.11.05.17l-.09.06-3.93-.02a.18.18 0 0 1-.04-.16c.08-.13.3-.03.43-.08.65-.14.98-.81 1.24-1.3l.29-.74 4.55-14.1.44-1.49c.03-.1 0-.18-.03-.25-.19-.23-.5-.17-.76-.23a.25.25 0 0 1 .07-.23l3.75.02zm-36.93 8.69c-.63.27-1.17.74-1.7 1.23-1.62 1.62-3.2 3.24-3.89 5.2-.1.48-.3 1.16.09 1.58.18.12.47.08.67 0a8.96 8.96 0 0 0 2.87-2.4l1.9-5 .2-.55c-.03-.05-.09-.07-.14-.06zm4.3-8.15c.16.25.17.59.08.88l-3.7 9.73-1.68 4.33c-.11.45-.33 1.01-.05 1.46.1.14.32.12.47.08.87-.33 1.56-1.14 2.22-1.8.06 0 .13 0 .14.07l-.04.15a9.15 9.15 0 0 1-2.98 3.04.85.85 0 0 1-.8 0c-.36-.32-.38-.78-.45-1.22-.05-.58.14-1.11.18-1.66-.84.89-1.83 1.58-2.75 2.32-.53.36-1.07.7-1.76.64-.53-.16-.57-.7-.6-1.15 0-.55.12-1.06.32-1.53a27.83 27.83 0 0 1 5.14-6.38c.79-.71 1.61-1.34 2.47-1.87l1.83-4.83.67-1.92c.04-.12 0-.23-.07-.33-.54-.44-1.32-.13-1.84.13a7.04 7.04 0 0 0-2.35 2.33c-.44.86-.65 1.81-1.3 2.59-.18.21-.44.33-.72.26a.37.37 0 0 1-.22-.16c-.1-.37.1-.67.24-.96.98-1.47 2.19-3.08 3.77-4.07.81-.5 1.72-.8 2.79-.7.38.07.76.23.98.57z"/></svg>