<svg id="Ebene_1" data-name="Ebene 1" xmlns="http://www.w3.org/2000/svg" viewBox="0 0 194.71 59.29"><defs><style>.cls-1{fill:#ff3c34;}.cls-2{fill:#324ab5;}</style></defs><title>atupri_3c</title><polygon class="cls-1" points="184.12 0.06 184.12 10.55 184.12 10.55 194.61 10.55 194.61 0.06 184.12 0.06"/><path class="cls-2" d="M21.86,41.46a11.35,11.35,0,0,1-4.4,3.12,15.77,15.77,0,0,1-9.74.58A11.19,11.19,0,0,1,4,43.46a9.46,9.46,0,0,1-2.84-3.23A10.4,10.4,0,0,1,0,35.13a11.45,11.45,0,0,1,1.2-5.31,11.12,11.12,0,0,1,3.31-3.89,15,15,0,0,1,5-2.36,23.12,23.12,0,0,1,6.22-.8q1.82,0,3.67.07a15.12,15.12,0,0,1,2.44.22V22.33a4.23,4.23,0,0,0-.54-2.22,4.84,4.84,0,0,0-1.46-1.53,5.82,5.82,0,0,0-2.07-.87,11.43,11.43,0,0,0-2.47-.25,20.55,20.55,0,0,0-5.78.87,20.28,20.28,0,0,0-5.73,2.58l0-8.61A19,19,0,0,1,7.1,10.84a26.7,26.7,0,0,1,4.26-1.05,32.78,32.78,0,0,1,5.42-.4q7.78,0,11.49,4.18T32,24.81V44.66H22.16Zm0-11.85c-0.24,0-.7-0.11-1.38-0.18a22.48,22.48,0,0,0-2.33-.11q-4.36,0-6.18,1.24A4,4,0,0,0,10.15,34q0,4.22,5.09,4.22a7.66,7.66,0,0,0,2.44-.4,6.77,6.77,0,0,0,2.11-1.13,5.8,5.8,0,0,0,1.49-1.82,5.33,5.33,0,0,0,.58-2.54V29.61Z"/><path class="cls-2" d="M38.44,0.06H48.91V10.55h8.8v8.22h-8.8V32.23a6.43,6.43,0,0,0,1,3.82c0.71,1,3.4,2.47,8,.87v7.62a16.21,16.21,0,0,1-6.55,1.36,15.56,15.56,0,0,1-6.11-1.06,10.29,10.29,0,0,1-4-2.91,11.15,11.15,0,0,1-2.18-4.47,23.92,23.92,0,0,1-.65-5.82V0.06Z"/><path class="cls-2" d="M64.2,10.55H74.67V30.19a6.86,6.86,0,0,0,1.42,4.58,5.17,5.17,0,0,0,4.18,1.67,6.27,6.27,0,0,0,2.83-.62,6.64,6.64,0,0,0,2.11-1.64,6.78,6.78,0,0,0,1.31-2.4A9.28,9.28,0,0,0,87,29V10.55h10.4V44.66h-10L87,41a12.73,12.73,0,0,1-4.4,3.24,13.37,13.37,0,0,1-5.71,1.27Q71,45.53,67.62,42T64.2,31.71V10.55Z"/><path class="cls-2" d="M105.15,10.55h10.11l0.29,3.71A10.84,10.84,0,0,1,119.83,11a13.65,13.65,0,0,1,5.45-1.13,14.17,14.17,0,0,1,6.55,1.45,14,14,0,0,1,4.73,3.89,17,17,0,0,1,2.84,5.6,22.63,22.63,0,0,1,.94,6.51,19.58,19.58,0,0,1-1.6,8.22,17.07,17.07,0,0,1-4.15,5.75,16.74,16.74,0,0,1-5.75,3.34,19.51,19.51,0,0,1-6.33,1.09,15.85,15.85,0,0,1-4.07-.44q-1.6-.43-2.91-0.87V59.2h-10.4V10.55Zm10.4,25.09a10.79,10.79,0,0,0,6,1.38,7.59,7.59,0,0,0,6.07-2.58,10.18,10.18,0,0,0,2.22-6.87,13.45,13.45,0,0,0-.4-3.27,8.37,8.37,0,0,0-1.24-2.8,6.19,6.19,0,0,0-2.18-1.93,7.78,7.78,0,0,0-6.4-.07,6.66,6.66,0,0,0-2.25,1.75A7.68,7.68,0,0,0,116,23.71a8.68,8.68,0,0,0-.47,2.84v9.09Z"/><path class="cls-2" d="M146,10.55H156.1l0.29,3.68c0.87-1.16,4.84-3.67,9.53-3.73a17.58,17.58,0,0,1,2.57.14V20s-5.86-2.47-9.73.88c-1.61,1.39-2.29,4.18-2.29,6.9V44.66H146V10.55ZM168.48,20s-5.86-2.47-9.73.88c-1.61,1.39-2.29,4.18-2.29,6.9V44.66H146V10.55H156.1l0.29,3.68c0.87-1.16,4.84-3.67,9.53-3.73a17.58,17.58,0,0,1,2.57.14"/><path class="cls-2" d="M173.64,10.55h10.47V44.66H173.64V10.55Z"/></svg>