<svg role="presentation" focusable="false" viewBox="0 0 1625 1472" xmlns="http://www.w3.org/2000/svg" class="c-header-logo__svg"><path fill="currentColor" id="canvas_background" d="M-1-1h1627v1474H-1z"/><g><g stroke="null" id="Layer_x0020_1"><path stroke="null" d="M186.927 1286.414c-1.471-4.415-4.415-4.415-7.359-4.415h-1.472v-13.247h7.36c10.303 0 14.718 1.472 17.662 13.247l38.269 104.502c2.943 7.36 5.887 20.607 5.887 20.607h0s2.944-11.775 5.888-20.607L291.43 1282c4.416-10.303 7.36-13.247 17.663-13.247h5.887v13.247h-1.472c-4.415 0-5.887 0-7.359 4.415l-50.044 135.412h-16.19l-50.044-135.412h-2.944z" id="svg_1" style="fill: rgb(64, 78, 126); fill-rule: nonzero;"/><path stroke="null" d="M385.63 1355.592c-1.472-23.55-14.719-33.853-30.91-33.853-17.662 0-33.852 11.775-38.268 33.853h69.178zm-30.91-47.1c30.91 0 45.629 23.55 45.629 51.516v7.36H314.98c0 27.965 20.606 44.155 42.684 44.155 20.607 0 33.853-13.247 33.853-13.247l7.36 11.775s-16.19 16.191-41.213 16.191c-32.38 0-57.403-23.55-57.403-57.403 0-36.797 25.022-57.403 54.46-57.403v-2.944z" id="svg_2" style="fill: rgb(64, 78, 126); fill-rule: nonzero;"/><path stroke="null" d="M425.37 1329.099c0-2.944-1.471-4.416-4.415-4.416h-8.831v-13.247h14.718c8.832 0 13.247 4.416 13.247 13.247v16.19h0c5.888-16.19 17.663-29.437 35.325-29.437h5.887v14.719h-5.887c-16.19 0-26.494 11.775-32.381 27.965-1.472 7.36-2.944 14.72-2.944 22.078v47.1H425.37V1329.1z" id="svg_3" style="fill: rgb(64, 78, 126); fill-rule: nonzero;"/><path stroke="null" d="M497.492 1395.333s11.775 16.19 33.853 16.19c11.775 0 23.55-5.887 23.55-17.662 0-23.55-61.819-19.134-61.819-55.931 0-20.606 17.663-29.438 39.74-29.438 11.776 0 33.854 4.416 33.854 20.607v8.83H551.95v-5.887c0-8.83-11.775-11.775-19.134-11.775-14.719 0-25.022 5.888-25.022 16.19 0 25.023 61.819 19.135 61.819 55.932 0 19.134-16.19 30.91-38.269 30.91-29.437 0-42.684-19.135-42.684-19.135l8.831-10.303v1.472z" id="svg_4" style="fill: rgb(64, 78, 126); fill-rule: nonzero;"/><path stroke="null" d="M597.58 1268.752h14.718v19.134h-14.719v-19.134zm0 61.818c0-2.943-1.473-4.415-4.416-4.415h-8.832v-13.247h16.19c8.832 0 13.248 4.416 13.248 13.247v79.48c0 2.945 1.472 4.416 4.415 4.416h8.832v13.247h-16.191c-8.831 0-13.247-4.415-13.247-13.247v-79.48z" id="svg_5" style="fill: rgb(64, 78, 126); fill-rule: nonzero;"/><path stroke="null" d="M693.25 1309.964c13.248 0 39.741 5.888 39.741 23.55v10.303h-14.718v-5.887c0-8.831-16.191-13.247-25.022-13.247-23.55 0-42.684 17.662-42.684 44.156s20.606 44.156 42.684 44.156c22.078 0 35.325-16.19 35.325-16.19l7.359 11.775s-14.719 17.662-42.684 17.662c-32.381 0-57.403-23.55-57.403-57.403 0-33.853 25.022-57.403 58.875-57.403l-1.472-1.472h0z" id="svg_6" style="fill: rgb(64, 78, 126); fill-rule: nonzero;"/><path stroke="null" d="M755.07 1286.414c0-2.943-1.473-4.415-4.416-4.415h-8.832v-13.247h16.191c8.831 0 13.247 4.416 13.247 13.247v55.93h0c4.415-10.302 19.134-27.965 44.156-27.965 27.965 0 36.797 16.19 36.797 42.684v52.988c0 2.944 1.472 4.415 4.415 4.415h8.832v13.247h-16.191c-8.831 0-13.247-4.415-13.247-13.247v-52.987c0-17.662-2.944-32.381-23.55-32.381-19.134 0-35.325 13.247-39.74 30.91-1.472 4.415-1.472 8.83-1.472 14.718v52.987H756.54v-136.884h-1.472 0z" id="svg_7" style="fill: rgb(64, 78, 126); fill-rule: nonzero;"/><path stroke="null" d="M958.187 1355.592c-1.472-23.55-14.718-33.853-30.909-33.853-17.662 0-33.853 11.775-38.269 33.853h69.178zm-30.909-47.1c30.91 0 45.628 23.55 45.628 51.516v7.36h-85.368c0 27.965 20.606 44.155 42.684 44.155 20.606 0 33.853-13.247 33.853-13.247l7.36 11.775s-16.191 16.191-41.213 16.191c-32.381 0-57.403-23.55-57.403-57.403 0-36.797 25.022-57.403 54.46-57.403v-2.944z" id="svg_8" style="fill: rgb(64, 78, 126); fill-rule: nonzero;"/><path stroke="null" d="M997.928 1329.099c0-2.944-1.472-4.416-4.416-4.416h-8.831v-13.247H999.4c8.83 0 13.247 4.416 13.247 13.247v16.19h0c5.887-16.19 17.662-29.437 35.324-29.437h5.888v14.719h-5.888c-16.19 0-26.493 11.775-32.38 27.965-1.473 7.36-2.944 14.72-2.944 22.078v47.1h-14.72V1329.1z" id="svg_9" style="fill: rgb(64, 78, 126); fill-rule: nonzero;"/><path stroke="null" d="M1081.824 1329.099c0-2.944-1.471-4.416-4.415-4.416h-8.831v-13.247h16.19c8.831 0 13.247 4.416 13.247 13.247v52.987c0 17.663 2.944 32.381 23.55 32.381 25.022 0 41.212-22.078 41.212-45.628v-52.987h14.719v92.728c0 2.944 1.472 4.416 4.416 4.416h8.83v13.246h-14.718c-8.831 0-13.247-4.415-13.247-11.775v-4.415-7.36h0c-4.415 10.304-19.134 27.966-42.684 27.966-26.494 0-36.797-14.719-36.797-42.684v-52.988l-1.472-1.471z" id="svg_10" style="fill: rgb(64, 78, 126); fill-rule: nonzero;"/><path stroke="null" d="M1208.405 1329.099c0-2.944-1.472-4.416-4.415-4.416h-8.832v-13.247h14.72c8.83 0 13.246 4.416 13.246 11.775v11.775h0c4.416-10.303 17.662-27.965 44.156-27.965 27.966 0 36.797 16.19 36.797 42.684v52.987c0 2.944 1.472 4.416 4.415 4.416h8.832v13.247h-16.191c-8.831 0-13.247-4.416-13.247-13.247v-52.988c0-17.662-2.944-32.38-23.55-32.38-19.134 0-35.325 13.246-39.74 30.908-1.472 4.416-1.472 10.304-1.472 14.72v52.986h-14.719v-92.727 1.472z" id="svg_11" style="fill: rgb(64, 78, 126); fill-rule: nonzero;"/><path stroke="null" d="M1411.523 1364.423c0-32.38-14.718-42.684-35.325-42.684-22.078 0-33.853 16.19-33.853 41.213 0 26.493 14.72 44.156 35.325 44.156 17.663 0 32.381-10.303 32.381-42.685h1.472zm-38.268-55.93c29.437 0 36.796 19.134 36.796 19.134h0v-4.416c0-7.36 2.944-11.775 13.247-11.775h14.719v13.247h-8.831c-2.944 0-4.416 1.472-4.416 4.416v89.784c0 35.325-26.494 48.571-52.987 48.571-11.775 0-25.022-2.943-35.325-8.83l5.887-13.248s13.247 7.36 29.438 7.36c22.078 0 38.268-10.303 38.268-35.325v-10.303-7.36h0c-5.887 11.775-17.662 19.135-35.324 19.135-29.438 0-48.572-23.55-48.572-55.931 0-33.853 17.662-55.931 47.1-55.931v1.471z" id="svg_12" style="fill: rgb(64, 78, 126); fill-rule: nonzero;"/><path stroke="null" id="svg_13" d="M0 1168.665h1622v-10.303H0z" style="fill: rgb(64, 78, 126); fill-rule: nonzero;"/><path stroke="null" id="svg_14" d="M0 843.381h1622v-8.83H0z" style="fill: rgb(64, 78, 126); fill-rule: nonzero;"/><path stroke="null" id="svg_15" d="M1090.656 532.817L1243.73 378.27V207.534h-170.737l-141.3 141.3v-228.14L811 0 688.835 120.693v229.612h1.472l-142.771-141.3H376.799v170.737l153.074 153.075h0-250.218L160.434 653.51l119.221 120.694h429.786L809.53 674.116h0l101.558 100.088h429.786l119.222-120.694-119.222-120.693z" style="fill: rgb(64, 78, 126); fill-rule: nonzero;"/><path stroke="null" id="svg_16" fill="currentColor" fill-rule="nonzero" d="M1336.458 546.064l104.503 107.446-104.503 107.447H916.975L809.529 654.982 703.554 760.957H284.07L178.096 653.51l105.975-107.446h276.711L390.046 373.855V220.78h151.602l160.434 160.434V126.581L811 17.662l107.447 108.919v253.161L1078.88 220.78h151.602l1.472 153.075-172.209 172.209z"/><path stroke="null" id="svg_17" d="M584.332 568.142H294.374l-83.897 85.368 83.897 85.369h397.405l86.84-85.369H668.23z" style="fill: rgb(0, 158, 227); fill-rule: nonzero;"/><path stroke="null" id="svg_18" d="M797.754 629.96H677.06L412.124 365.024l1.471-120.694h119.222l264.937 264.937z" style="fill: rgb(0, 158, 227); fill-rule: nonzero;"/><path stroke="null" id="svg_19" d="M1036.196 568.142h288.487l85.368 85.368-85.368 85.369H928.75l-86.84-85.369H952.3z" style="fill: rgb(0, 158, 227); fill-rule: nonzero;"/><path stroke="null" id="svg_20" d="M822.775 629.96H943.47l263.464-264.936V244.33h-119.221L822.775 509.267z" style="fill: rgb(0, 158, 227); fill-rule: nonzero;"/><path stroke="null" id="svg_21" d="M894.897 404.764v-267.88l-85.368-85.369h0l-83.897 85.369v267.88l83.897 83.897z" style="fill: rgb(0, 158, 227); fill-rule: nonzero;"/><path stroke="null" d="M721.216 940.525c-2.943 2.944-8.83 2.944-11.775 1.472-5.887-23.55-23.55-55.931-73.593-55.931-48.572 0-97.144 33.853-97.144 111.862 0 80.953 50.044 120.693 98.616 120.693 47.1 0 69.178-32.381 79.48-55.93 2.944-2.945 8.832-1.473 11.776 1.471-2.944 25.022-13.247 50.044-17.663 57.403-4.415 1.472-8.831 2.944-13.247 2.944-8.83 2.943-33.853 8.83-58.874 8.83-36.797 0-69.178-7.358-97.144-25.02-30.91-20.607-54.46-54.46-54.46-104.504 0-44.156 19.135-79.48 47.1-100.087 27.966-20.606 66.235-32.381 104.504-32.381 22.078 0 47.1 4.416 64.762 8.831 4.415 1.472 7.36 1.472 10.303 2.944 1.472 8.831 1.472 30.91 5.887 58.875h0l1.472-1.472z" id="svg_22" style="fill: rgb(64, 78, 126); fill-rule: nonzero;"/><path stroke="null" d="M774.204 1117.15c-7.36-7.36-11.775-33.854-11.775-57.404 2.943-4.415 8.83-4.415 11.775-1.472 7.359 19.135 27.965 60.347 64.762 60.347 29.437 0 45.628-17.662 45.628-41.212 0-22.078-10.303-38.269-38.269-54.46l-16.19-8.83c-27.966-16.191-52.988-39.741-52.988-73.594 0-36.797 27.966-69.178 83.897-69.178 19.134 0 33.853 4.416 51.515 7.36 4.416 8.83 7.36 33.852 7.36 51.515-1.472 2.944-8.832 4.415-11.775 1.472-5.888-19.135-19.135-45.628-51.516-45.628-30.909 0-42.684 19.134-42.684 39.74 0 16.19 10.303 32.381 35.325 45.628l23.55 13.247c25.022 13.247 51.515 36.797 51.515 75.065 0 42.685-32.38 73.594-88.312 73.594-35.325 0-54.46-11.775-61.818-16.19h0z" id="svg_23" style="fill: rgb(64, 78, 126); fill-rule: nonzero;"/><path stroke="null" d="M983.21 1117.15c-7.36-7.36-11.776-33.854-11.776-57.404 2.944-4.415 8.831-4.415 11.775-1.472 7.36 19.135 27.966 60.347 64.762 60.347 29.438 0 45.628-17.662 45.628-41.212 0-22.078-10.303-38.269-38.268-54.46l-16.19-8.83c-27.966-16.191-52.988-39.741-52.988-73.594 0-36.797 27.965-69.178 83.896-69.178 19.135 0 33.853 4.416 51.516 7.36 4.416 8.83 7.36 33.852 7.36 51.515-1.473 2.944-8.832 4.415-11.776 1.472-5.887-19.135-19.134-45.628-51.515-45.628-30.91 0-42.684 19.134-42.684 39.74 0 16.19 10.303 32.381 35.324 45.628l23.55 13.247c25.022 13.247 51.516 36.797 51.516 75.065 0 42.685-32.381 73.594-88.312 73.594-35.325 0-54.46-11.775-61.819-16.19h0z" id="svg_24" style="fill: rgb(64, 78, 126); fill-rule: nonzero;"/></g></g></svg>