<svg xmlns="http://www.w3.org/2000/svg" xmlns:xlink="http://www.w3.org/1999/xlink" version="1.1" id="Ebene_1" x="0px" y="0px" viewBox="0 0 436.9 86" style="enable-background:new 0 0 436.9 86;" xml:space="preserve"><style type="text/css">
	.st0{fill:#8DBF2F;}
</style><g><path class="st0" d="M111.7,61.8c0.3,0.2,0.6,0.5,1,0.8l0.3,0.3l-0.3,0.3l-1.8,1.8l-0.3,0.3l-0.3-0.3c-0.1-0.1-0.3-0.3-0.4-0.4   c-0.1-0.1-0.3-0.2-0.4-0.3l0,0c-0.1-0.1-0.2-0.1-0.4-0.2c-0.1-0.1-0.3-0.1-0.4-0.1l0,0c-0.1,0-0.3-0.1-0.5-0.1v0   c-0.2,0-0.3,0-0.6,0v0c-0.4,0-0.7,0-1,0.1c-0.3,0.1-0.6,0.2-0.9,0.4l0,0c-0.3,0.2-0.5,0.4-0.7,0.6c-0.2,0.2-0.4,0.5-0.5,0.8l0,0   c-0.1,0.3-0.3,0.6-0.3,1c-0.1,0.4-0.1,0.7-0.1,1.1h0v10.2v0.4h-0.4h-2.4h-0.4v-0.4V61.5v-0.4h0.4h2.4h0.4v0.4v0.9   c0.2-0.2,0.4-0.3,0.5-0.4h0c0.3-0.2,0.5-0.3,0.8-0.5c0.3-0.1,0.6-0.3,0.9-0.3v0c0.3-0.1,0.6-0.2,1-0.2c0.3,0,0.7-0.1,1-0.1v0   c0.4,0,0.8,0,1.2,0.1c0.4,0.1,0.7,0.2,1.1,0.3C111,61.4,111.3,61.6,111.7,61.8L111.7,61.8z M85.4,68.2h7.9l0-0.2c0-0.2,0-0.3,0-0.5   v0c0-0.1,0-0.3-0.1-0.4c0-0.1,0-0.3-0.1-0.4c0-0.1-0.1-0.2-0.1-0.4c0-0.1-0.1-0.3-0.1-0.4c-0.1-0.2-0.2-0.4-0.4-0.6   c-0.1-0.2-0.3-0.4-0.5-0.5c-0.2-0.2-0.4-0.3-0.6-0.4l0,0c-0.2-0.1-0.4-0.2-0.6-0.3c-0.2-0.1-0.5-0.2-0.7-0.2   c-0.2,0-0.5-0.1-0.8-0.1c-0.3,0-0.5,0-0.8,0.1c-0.2,0-0.5,0.1-0.7,0.2c-0.2,0.1-0.4,0.2-0.6,0.3l0,0c-0.2,0.1-0.4,0.3-0.6,0.4   c-0.2,0.2-0.3,0.3-0.5,0.5v0c-0.1,0.2-0.2,0.4-0.3,0.6l0,0c-0.1,0.1-0.1,0.3-0.2,0.4h0c0,0.1-0.1,0.2-0.1,0.4v0   c0,0.1-0.1,0.2-0.1,0.4c0,0.1,0,0.3-0.1,0.4c0,0.1,0,0.3,0,0.5L85.4,68.2L85.4,68.2z M96.6,69.3L96.6,69.3l0,1.1v0.4h-0.4H85.4   c0,0.4,0.1,0.8,0.1,1.2c0.1,0.5,0.2,0.9,0.4,1.3h0c0.2,0.4,0.4,0.7,0.6,1c0.2,0.3,0.5,0.5,0.9,0.7v0c0.3,0.2,0.7,0.4,1.1,0.5   c0.4,0.1,0.9,0.2,1.4,0.2v0c0.3,0,0.6,0,0.9,0c0.3,0,0.5-0.1,0.7-0.1c0.2-0.1,0.4-0.1,0.7-0.2c0.2-0.1,0.4-0.2,0.6-0.3l0,0   c0.2-0.1,0.4-0.3,0.6-0.4c0.2-0.2,0.4-0.4,0.6-0.6l0.3-0.3l0.3,0.3l1.6,1.4l0.3,0.3L96.2,76c-0.3,0.3-0.6,0.6-0.9,0.8   c-0.3,0.3-0.6,0.5-0.9,0.7l0,0c-0.3,0.2-0.6,0.4-1,0.5h0c-0.3,0.2-0.7,0.3-1.1,0.4v0c-0.4,0.1-0.8,0.2-1.2,0.2v0   c-0.4,0-0.9,0.1-1.4,0.1v0c-0.8,0-1.5-0.1-2.1-0.2c-0.7-0.2-1.3-0.4-1.9-0.7c-0.6-0.3-1.1-0.7-1.5-1.2c-0.4-0.5-0.8-1.1-1.1-1.7   c-0.3-0.7-0.5-1.4-0.7-2.2c-0.2-0.8-0.2-1.7-0.2-2.7v0c0-0.9,0.1-1.8,0.2-2.6c0.1-0.8,0.4-1.5,0.6-2.2l0,0c0.3-0.7,0.6-1.2,1-1.8   c0.4-0.5,0.9-1,1.4-1.3h0c0.5-0.4,1.1-0.6,1.8-0.8c0.6-0.2,1.3-0.3,2.1-0.3h0c0.8,0,1.4,0.1,2.1,0.3c0.6,0.2,1.2,0.4,1.8,0.8l0,0   c0.5,0.3,1,0.8,1.4,1.3c0.4,0.5,0.8,1,1,1.7c0.3,0.6,0.5,1.3,0.6,2v0C96.5,67.7,96.6,68.5,96.6,69.3L96.6,69.3z M78,67.5v10.6v0.4   h-0.4h-2.4h-0.4v-0.4V67.9h0c0-0.5,0-0.9-0.1-1.3c-0.1-0.4-0.2-0.7-0.3-1l0,0c-0.1-0.3-0.3-0.5-0.5-0.8c-0.2-0.2-0.4-0.4-0.7-0.5   c-0.3-0.1-0.6-0.3-0.9-0.3c-0.3-0.1-0.7-0.1-1.1-0.1c-0.4,0-0.7,0-1.1,0.1c-0.3,0.1-0.6,0.2-0.9,0.3c-0.3,0.1-0.5,0.3-0.7,0.5   c-0.2,0.2-0.4,0.5-0.5,0.8v0c-0.1,0.3-0.3,0.6-0.3,1c-0.1,0.4-0.1,0.8-0.1,1.3h0v10.2v0.4H67h-2.4h-0.4v-0.4V61.5v-0.4h0.4H67h0.4   v0.4v0.9c0.1-0.1,0.2-0.2,0.3-0.3c0.4-0.3,0.8-0.5,1.2-0.7c0.4-0.2,0.9-0.3,1.3-0.4c0.5-0.1,0.9-0.1,1.4-0.1c0.5,0,0.9,0,1.3,0.1   c0.4,0.1,0.8,0.2,1.2,0.3h0c0.4,0.1,0.7,0.3,1.1,0.5c0.3,0.2,0.6,0.5,0.9,0.7l0,0c0.3,0.3,0.6,0.6,0.8,1l0,0   c0.2,0.4,0.4,0.7,0.6,1.2c0.1,0.4,0.3,0.8,0.3,1.3C78,66.5,78,67,78,67.5L78,67.5z M60.8,61.8c0.3,0.2,0.6,0.5,1,0.8l0.3,0.3   l-0.3,0.3L60,65l-0.3,0.3L59.4,65c-0.1-0.1-0.3-0.3-0.4-0.4c-0.1-0.1-0.3-0.2-0.4-0.3l0,0c-0.1-0.1-0.2-0.1-0.4-0.2   C58.1,64.1,58,64,57.8,64l0,0c-0.1,0-0.3-0.1-0.5-0.1v0c-0.2,0-0.3,0-0.6,0v0c-0.4,0-0.7,0-1,0.1c-0.3,0.1-0.6,0.2-0.9,0.4l0,0   c-0.3,0.2-0.5,0.4-0.7,0.6c-0.2,0.2-0.4,0.5-0.5,0.8l0,0c-0.1,0.3-0.3,0.6-0.3,1c-0.1,0.4-0.1,0.7-0.1,1.1h0v10.2v0.4h-0.4h-2.4H50   v-0.4V61.5v-0.4h0.4h2.4h0.4v0.4v0.9c0.2-0.2,0.4-0.3,0.6-0.4l0,0c0.3-0.2,0.5-0.3,0.8-0.5v0c0.3-0.1,0.6-0.3,0.9-0.3v0   c0.3-0.1,0.6-0.2,1-0.2c0.3,0,0.7-0.1,1-0.1v0c0.4,0,0.8,0,1.2,0.1c0.4,0.1,0.7,0.2,1.1,0.3C60.1,61.4,60.4,61.6,60.8,61.8   L60.8,61.8z M41.7,73.1c0-0.3,0-0.6,0-0.9v-1.4h-4.2c-0.6,0-1.1,0.1-1.5,0.2c-0.4,0.1-0.8,0.3-1,0.5l0,0c-0.3,0.2-0.4,0.5-0.6,0.8   c-0.1,0.3-0.2,0.7-0.2,1.1l0,0c0,0.4,0.1,0.8,0.2,1.1c0.1,0.3,0.3,0.5,0.6,0.7c0.3,0.2,0.6,0.4,1,0.5c0.4,0.1,1,0.2,1.6,0.2l0,0   c0.2,0,0.4,0,0.7,0c0.2,0,0.4,0,0.6,0v0c0.2,0,0.4-0.1,0.6-0.1c0.2,0,0.4-0.1,0.5-0.2l0,0c0.2-0.1,0.3-0.2,0.5-0.3   c0.2-0.1,0.3-0.2,0.5-0.4l0,0c0.1-0.1,0.2-0.2,0.3-0.4c0.1-0.2,0.2-0.3,0.2-0.5l0,0C41.6,73.6,41.6,73.4,41.7,73.1L41.7,73.1   L41.7,73.1z M44.9,66.8v11.2v0.4h-0.4h-2.4h-0.4v-0.4v-0.7l0,0c-0.2,0.2-0.5,0.4-0.7,0.5v0c-0.2,0.1-0.5,0.3-0.8,0.4   c-0.3,0.1-0.6,0.2-0.9,0.2h0c-0.3,0.1-0.6,0.1-0.9,0.1c-0.3,0-0.7,0-1.1,0c-0.4,0-0.7,0-1.1,0c-0.3,0-0.7-0.1-1-0.1l0,0   c-0.3-0.1-0.6-0.1-0.9-0.2c-0.3-0.1-0.5-0.2-0.8-0.3l0,0c-0.2-0.1-0.5-0.3-0.7-0.4c-0.2-0.2-0.4-0.3-0.6-0.5   c-0.2-0.2-0.4-0.5-0.6-0.7c-0.2-0.3-0.3-0.6-0.4-0.9c-0.1-0.3-0.2-0.6-0.3-1h0c-0.1-0.3-0.1-0.7-0.1-1c0-0.5,0.1-1,0.2-1.5   c0.1-0.5,0.3-0.9,0.5-1.3c0.2-0.4,0.5-0.7,0.9-1c0.4-0.3,0.8-0.6,1.2-0.8h0c0.5-0.2,1-0.4,1.5-0.5c0.5-0.1,1.1-0.2,1.8-0.2l0,0h4.6   V67l0,0c0-0.4,0-0.7-0.1-1c-0.1-0.3-0.2-0.6-0.3-0.8c-0.1-0.2-0.3-0.4-0.5-0.6c-0.2-0.2-0.4-0.3-0.7-0.4v0   c-0.6-0.2-1.3-0.4-2.3-0.4l0,0c-0.3,0-0.6,0-0.9,0c-0.3,0-0.5,0.1-0.8,0.1c-0.2,0.1-0.4,0.1-0.6,0.2c-0.2,0.1-0.4,0.2-0.5,0.3l0,0   c-0.2,0.1-0.3,0.3-0.5,0.4c-0.2,0.2-0.3,0.4-0.5,0.6l-0.3,0.4l-0.3-0.3l-1.6-1.5l-0.3-0.3l0.2-0.3c0.3-0.3,0.5-0.6,0.8-0.9   c0.3-0.3,0.6-0.5,0.9-0.7l0,0c0.3-0.2,0.6-0.4,1-0.5c0.3-0.1,0.7-0.2,1.1-0.3v0c0.4-0.1,0.8-0.1,1.2-0.2c0.4,0,0.8-0.1,1.3-0.1h0   c1.1,0,2.2,0.1,3,0.4c0.9,0.3,1.6,0.6,2.2,1.1l0,0C44.3,63.4,44.9,64.9,44.9,66.8L44.9,66.8z M22.8,76.1L22.8,76.1L22.8,76.1   L22.8,76.1L22.8,76.1z M29,76v2.1v0.4h-0.4h-1.7l0,0c-0.5,0-1-0.1-1.4-0.2c-0.4-0.1-0.8-0.3-1.2-0.5c-0.3-0.2-0.6-0.5-0.9-0.8   c-0.3-0.3-0.5-0.6-0.6-1c-0.2-0.4-0.3-0.7-0.4-1.2c-0.1-0.4-0.1-0.8-0.1-1.3V54.1v-0.4h0.4h2.4h0.4v0.4v19.4l0,0c0,0.2,0,0.5,0,0.7   c0,0.2,0.1,0.4,0.1,0.5c0.1,0.1,0.1,0.3,0.2,0.4c0.1,0.1,0.2,0.2,0.3,0.2c0.1,0.1,0.3,0.1,0.5,0.2h0c0.2,0,0.4,0.1,0.7,0.1h1.3H29   V76L29,76z M17.6,65.5v3.8c0,0.5,0,0.9-0.1,1.3c0,0.4-0.1,0.8-0.2,1.2v0c-0.1,0.4-0.2,0.8-0.3,1.1c-0.1,0.4-0.3,0.7-0.4,1l0,0   c-0.2,0.3-0.3,0.6-0.6,0.9c-0.2,0.3-0.4,0.6-0.7,0.9C15,76.3,14.6,76.7,14,77v0c-0.5,0.4-1,0.7-1.6,0.9l0,0   c-0.6,0.2-1.2,0.4-1.8,0.6l0,0c-0.6,0.1-1.2,0.2-1.9,0.2l0,0c-0.6,0-1.2-0.1-1.8-0.2c-0.6-0.1-1.1-0.3-1.7-0.5   c-0.5-0.2-1.1-0.5-1.6-0.8c-0.5-0.3-0.9-0.7-1.4-1.1c-0.3-0.3-0.6-0.6-0.8-0.9c-0.2-0.3-0.4-0.6-0.6-0.9h0c-0.2-0.3-0.3-0.7-0.4-1   c-0.1-0.4-0.2-0.7-0.3-1.1c-0.1-0.4-0.1-0.8-0.2-1.2c0-0.4-0.1-0.9-0.1-1.4v0c0-0.5,0-1,0-1.6c0-0.6,0-1.1,0-1.8v0   c0-0.6,0-1.2,0-1.8c0-0.6,0-1.1,0-1.6v0c0-0.5,0-1,0.1-1.4c0-0.4,0.1-0.8,0.2-1.2c0.1-0.4,0.2-0.8,0.3-1.1c0.1-0.4,0.3-0.7,0.4-1   c0.2-0.3,0.4-0.6,0.6-0.9c0.2-0.3,0.5-0.6,0.8-0.9c0.4-0.4,0.9-0.8,1.4-1.1c0.5-0.3,1-0.6,1.5-0.8v0C5.8,54,6.4,53.8,7,53.7   c0.6-0.1,1.2-0.2,1.8-0.2l0,0c0.6,0,1.2,0,1.7,0.1c0.5,0.1,1.1,0.2,1.6,0.4c0.5,0.2,1,0.4,1.4,0.7c0.4,0.3,0.8,0.6,1.2,0.9l0,0   c0.4,0.3,0.7,0.7,1,1.1c0.3,0.4,0.6,0.8,0.8,1.3c0.2,0.5,0.4,0.9,0.6,1.4c0.2,0.5,0.3,1,0.4,1.6l0.1,0.5h-0.5h-2.6h-0.3l-0.1-0.3   c-0.1-0.5-0.3-0.9-0.4-1.3c-0.2-0.4-0.4-0.8-0.6-1.1l0,0c-0.2-0.3-0.5-0.6-0.8-0.9c-0.3-0.3-0.6-0.5-1-0.7l0,0   c-0.4-0.2-0.8-0.3-1.2-0.4c-0.4-0.1-0.9-0.1-1.3-0.1c-0.4,0-0.7,0-1.1,0.1c-0.4,0.1-0.7,0.2-1,0.3v0c-0.7,0.3-1.2,0.7-1.7,1.2l0,0   c-0.2,0.2-0.3,0.4-0.5,0.5c-0.1,0.2-0.3,0.4-0.4,0.6h0C4,59.5,3.9,59.8,3.8,60c-0.1,0.2-0.1,0.5-0.2,0.8c-0.1,0.3-0.1,0.6-0.1,1   c0,0.4-0.1,0.7-0.1,1.2v0c0,0.4,0,0.9,0,1.4c0,0.5,0,1.1,0,1.7v0c0,0.6,0,1.2,0,1.7c0,0.5,0,1,0,1.4v0c0,0.4,0,0.8,0.1,1.2   c0,0.4,0.1,0.7,0.1,1c0.1,0.3,0.1,0.6,0.2,0.8v0c0.1,0.2,0.2,0.5,0.3,0.7h0c0.1,0.2,0.2,0.4,0.4,0.6c0.1,0.2,0.3,0.4,0.5,0.5l0,0   c0.2,0.3,0.5,0.5,0.8,0.7l0,0C6,74.9,6.3,75,6.7,75.2h0c0.3,0.1,0.7,0.2,1,0.3c0.4,0.1,0.7,0.1,1.1,0.1c0.3,0,0.6,0,0.8-0.1h0   c0.3,0,0.5-0.1,0.8-0.2h0c0.2-0.1,0.5-0.2,0.7-0.3c0.2-0.1,0.5-0.2,0.7-0.4h0c0.2-0.1,0.4-0.3,0.6-0.5l0,0c0.2-0.2,0.4-0.4,0.5-0.6   v0c0.2-0.3,0.4-0.6,0.6-0.9c0.2-0.3,0.3-0.6,0.4-0.9l0,0c0.1-0.3,0.2-0.7,0.2-1.1c0-0.4,0.1-0.8,0.1-1.2l0,0v-1.4H8.8H8.4v-0.4   v-2.3v-0.4h0.4h8.4h0.4V65.5L17.6,65.5z"/><path d="M139.9,78.4l-8.6-14.7l7.5-9.3h-3.1l-11.2,13.8V54.4h-2.6v23.9h2.6v-6.7l5-6.1l7.3,12.7H139.9L139.9,78.4z M154.4,63.2   c-0.6-0.6-1.2-1-1.8-1.2c-0.6-0.2-1.4-0.3-2.1-0.3c-0.6,0-1.3,0.1-1.9,0.3c-0.6,0.2-1.1,0.4-1.6,0.8c-0.5,0.3-0.9,0.7-1.2,1.2v-2   h-2.4v16.5h2.4V68.2c0-0.9,0.2-1.6,0.5-2.3c0.3-0.7,0.8-1.2,1.4-1.6c0.6-0.4,1.3-0.6,2.1-0.6c0.4,0,0.8,0,1.1,0.1   c0.3,0.1,0.6,0.2,0.9,0.4c0.3,0.2,0.6,0.4,0.9,0.7L154.4,63.2L154.4,63.2z M169,78.4V67.1c0-1.8-0.5-3.2-1.6-4.1   c-1.1-0.9-2.8-1.4-5-1.4c-0.9,0-1.7,0.1-2.4,0.2c-0.7,0.1-1.3,0.4-1.9,0.8c-0.6,0.4-1.1,0.9-1.6,1.5l1.6,1.5c0.3-0.5,0.7-0.8,1-1.1   c0.4-0.3,0.8-0.5,1.3-0.6c0.5-0.1,1.1-0.2,1.8-0.2c1,0,1.8,0.1,2.4,0.4c0.6,0.3,1.1,0.7,1.4,1.2c0.3,0.5,0.4,1.2,0.4,2v1.6h-5   c-1.2,0-2.3,0.2-3.1,0.6c-0.8,0.4-1.5,0.9-1.9,1.7c-0.4,0.7-0.7,1.6-0.7,2.5c0,0.7,0.1,1.3,0.3,1.9c0.2,0.6,0.5,1.1,0.9,1.5   c0.3,0.4,0.7,0.7,1.2,0.9c0.4,0.2,0.9,0.4,1.5,0.5c0.6,0.1,1.2,0.2,2,0.2c0.7,0,1.4-0.1,1.9-0.2c0.5-0.1,1.1-0.3,1.5-0.6   c0.5-0.3,0.9-0.6,1.3-1.1v1.6H169L169,78.4z M166.6,72.5c0,0.7-0.1,1.3-0.2,1.7c-0.1,0.5-0.3,0.8-0.6,1.1c-0.3,0.3-0.7,0.6-1.1,0.7   c-0.4,0.2-0.8,0.3-1.2,0.3c-0.4,0-0.9,0.1-1.4,0.1c-1.3,0-2.3-0.2-2.9-0.7c-0.6-0.5-0.9-1.2-0.9-2.1c0-1,0.3-1.7,0.9-2.2   c0.6-0.5,1.5-0.7,2.8-0.7h4.6V72.5L166.6,72.5z M187.9,78.4V67.8c0-1-0.1-1.8-0.4-2.6c-0.3-0.8-0.7-1.4-1.3-2   c-0.5-0.5-1.1-0.9-1.8-1.2c-0.7-0.3-1.5-0.4-2.4-0.4c-0.9,0-1.8,0.2-2.6,0.5c-0.8,0.3-1.5,0.8-2.1,1.5v-1.8h-2.4v16.5h2.4V68.2   c0-1,0.2-1.8,0.5-2.4c0.3-0.7,0.8-1.1,1.4-1.5c0.6-0.3,1.3-0.5,2.2-0.5c0.8,0,1.6,0.2,2.2,0.5c0.6,0.3,1.1,0.8,1.4,1.5   c0.3,0.7,0.5,1.5,0.5,2.4v10.2H187.9L187.9,78.4z M207.7,78.4l-6.6-10.2l5.6-6.3h-3l-7.5,8.6v-16h-2.4v23.9h2.4v-4.8l3.2-3.7   l5.2,8.5H207.7L207.7,78.4z M223.8,70.7v-1.1c0-1.6-0.3-3.1-0.8-4.3c-0.5-1.2-1.3-2.1-2.3-2.8c-1-0.6-2.2-1-3.7-1   c-1.4,0-2.6,0.3-3.6,1c-1,0.7-1.8,1.6-2.3,2.9c-0.5,1.3-0.8,2.8-0.8,4.6c0,1.9,0.3,3.5,0.9,4.8c0.6,1.3,1.4,2.2,2.5,2.8   c1.1,0.6,2.3,0.9,3.8,0.9c0.9,0,1.7-0.1,2.4-0.3c0.7-0.2,1.3-0.5,1.9-0.9c0.6-0.4,1.1-0.9,1.7-1.4l-1.6-1.4   c-0.4,0.4-0.9,0.8-1.3,1.1c-0.4,0.3-0.9,0.5-1.4,0.6c-0.5,0.1-1.1,0.2-1.7,0.2c-1.1,0-1.9-0.2-2.7-0.7c-0.7-0.4-1.3-1.1-1.6-2   c-0.4-0.8-0.6-1.9-0.6-3.1H223.8L223.8,70.7z M221.4,68.9h-8.7c0-0.4,0-0.8,0.1-1.1c0-0.3,0.1-0.6,0.1-0.8c0.1-0.3,0.2-0.5,0.3-0.8   c0.2-0.5,0.5-0.9,0.9-1.3c0.4-0.4,0.8-0.7,1.3-0.9c0.5-0.2,1-0.3,1.6-0.3c0.6,0,1.1,0.1,1.6,0.3c0.5,0.2,1,0.5,1.3,0.9   c0.4,0.4,0.7,0.8,0.9,1.3c0.1,0.3,0.2,0.6,0.3,0.8c0.1,0.3,0.1,0.5,0.1,0.8C221.4,68.1,221.4,68.5,221.4,68.9L221.4,68.9z    M242,78.4V67.8c0-1-0.1-1.8-0.4-2.6c-0.3-0.8-0.7-1.4-1.3-2c-0.5-0.5-1.1-0.9-1.8-1.2c-0.7-0.3-1.5-0.4-2.4-0.4   c-0.9,0-1.8,0.2-2.6,0.5c-0.8,0.3-1.5,0.8-2.1,1.5v-1.8H229v16.5h2.4V68.2c0-1,0.2-1.8,0.5-2.4c0.3-0.7,0.8-1.1,1.4-1.5   c0.6-0.3,1.3-0.5,2.2-0.5c0.8,0,1.6,0.2,2.2,0.5c0.6,0.3,1.1,0.8,1.4,1.5c0.3,0.7,0.5,1.5,0.5,2.4v10.2H242L242,78.4z M259.5,61.8   h-2.6l-4.5,13.3l-4.5-13.3h-2.6l6.1,16.5h2.2L259.5,61.8L259.5,61.8z M275.3,70.7v-1.1c0-1.6-0.3-3.1-0.8-4.3   c-0.5-1.2-1.3-2.1-2.3-2.8c-1-0.6-2.2-1-3.7-1c-1.4,0-2.6,0.3-3.6,1c-1,0.7-1.8,1.6-2.3,2.9c-0.5,1.3-0.8,2.8-0.8,4.6   c0,1.9,0.3,3.5,0.9,4.8c0.6,1.3,1.4,2.2,2.5,2.8c1.1,0.6,2.3,0.9,3.8,0.9c0.9,0,1.7-0.1,2.4-0.3c0.7-0.2,1.3-0.5,1.9-0.9   c0.6-0.4,1.1-0.9,1.7-1.4l-1.6-1.4c-0.4,0.4-0.9,0.8-1.3,1.1c-0.4,0.3-0.9,0.5-1.4,0.6c-0.5,0.1-1.1,0.2-1.7,0.2   c-1.1,0-1.9-0.2-2.7-0.7c-0.7-0.4-1.3-1.1-1.6-2c-0.4-0.8-0.6-1.9-0.6-3.1H275.3L275.3,70.7z M272.8,68.9h-8.7c0-0.4,0-0.8,0.1-1.1   c0-0.3,0.1-0.6,0.1-0.8c0.1-0.3,0.2-0.5,0.3-0.8c0.2-0.5,0.5-0.9,0.9-1.3c0.4-0.4,0.8-0.7,1.3-0.9c0.5-0.2,1-0.3,1.6-0.3   c0.6,0,1.1,0.1,1.6,0.3c0.5,0.2,1,0.5,1.3,0.9c0.4,0.4,0.7,0.8,0.9,1.3c0.1,0.3,0.2,0.6,0.3,0.8c0.1,0.3,0.1,0.5,0.1,0.8   C272.8,68.1,272.8,68.5,272.8,68.9L272.8,68.9z M291.4,63.2c-0.6-0.6-1.2-1-1.8-1.2c-0.6-0.2-1.4-0.3-2.1-0.3   c-0.6,0-1.3,0.1-1.9,0.3c-0.6,0.2-1.1,0.4-1.6,0.8c-0.5,0.3-0.9,0.7-1.2,1.2v-2h-2.4v16.5h2.4V68.2c0-0.9,0.2-1.6,0.5-2.3   c0.3-0.7,0.8-1.2,1.4-1.6c0.6-0.4,1.3-0.6,2.1-0.6c0.4,0,0.8,0,1.1,0.1c0.3,0.1,0.6,0.2,0.9,0.4c0.3,0.2,0.6,0.4,0.9,0.7   L291.4,63.2L291.4,63.2z M306.2,73.5c0-1-0.2-1.9-0.6-2.5c-0.4-0.6-1-1.1-1.7-1.4c-0.7-0.3-1.6-0.5-2.6-0.6l-2.7-0.2   c-0.7-0.1-1.2-0.2-1.7-0.4c-0.4-0.2-0.7-0.5-0.9-0.8c-0.2-0.3-0.3-0.7-0.3-1.2c0-0.9,0.3-1.5,0.9-2c0.6-0.5,1.5-0.7,2.8-0.7   c0.9,0,1.7,0.1,2.4,0.3c0.7,0.2,1.4,0.5,2,1l1.6-1.6c-0.7-0.6-1.6-1.1-2.6-1.3c-1-0.3-2.1-0.4-3.3-0.4c-0.9,0-1.7,0.1-2.4,0.3   c-0.7,0.2-1.4,0.5-1.9,1c-0.5,0.4-1,0.9-1.3,1.5c-0.3,0.6-0.4,1.3-0.5,2c0,1.4,0.4,2.4,1.3,3.1c0.8,0.7,2.1,1.2,3.7,1.3l2.7,0.2   c1,0.1,1.7,0.3,2.1,0.7c0.4,0.4,0.7,1,0.7,1.7c0,0.7-0.2,1.2-0.5,1.6c-0.4,0.4-0.9,0.8-1.5,1c-0.7,0.2-1.4,0.3-2.4,0.3   c-1,0-2-0.1-2.9-0.4c-0.9-0.3-1.6-0.8-2.3-1.5l-1.6,1.6c0.6,0.6,1.3,1,2,1.4c0.7,0.4,1.4,0.6,2.2,0.8c0.8,0.2,1.7,0.2,2.6,0.2   c1.3,0,2.5-0.2,3.5-0.6c1-0.4,1.8-1,2.3-1.7C305.9,75.5,306.2,74.6,306.2,73.5L306.2,73.5z M313.3,78.4V61.8h-2.4v16.5H313.3   L313.3,78.4z M313.5,57.1v-2.7h-2.7v2.7H313.5L313.5,57.1z M331.3,76.1l-1.6-1.6c-0.4,0.5-0.8,0.8-1.2,1.1   c-0.4,0.3-0.8,0.5-1.2,0.6c-0.4,0.1-0.9,0.2-1.4,0.2c-0.8,0-1.5-0.2-2.2-0.5c-0.7-0.3-1.2-0.8-1.6-1.4c-0.3-0.4-0.5-0.7-0.6-1.2   c-0.2-0.4-0.3-0.9-0.3-1.4c-0.1-0.5-0.1-1.1-0.1-1.8c0-0.7,0-1.3,0.1-1.8c0.1-0.5,0.2-1,0.3-1.4c0.2-0.4,0.4-0.8,0.6-1.2   c0.4-0.6,1-1.1,1.6-1.4c0.7-0.3,1.4-0.5,2.2-0.5c0.5,0,1,0.1,1.4,0.2c0.4,0.1,0.8,0.3,1.2,0.6c0.4,0.3,0.8,0.6,1.2,1.1l1.6-1.5   c-0.6-0.6-1.1-1.1-1.7-1.5c-0.5-0.4-1.1-0.6-1.7-0.8c-0.6-0.2-1.3-0.2-2-0.2c-1,0-2,0.2-2.9,0.5c-0.9,0.4-1.7,0.9-2.3,1.6   c-0.7,0.7-1.2,1.6-1.5,2.6c-0.4,1.1-0.6,2.3-0.6,3.7c0,1.4,0.2,2.6,0.6,3.7c0.4,1.1,0.9,1.9,1.5,2.7c0.7,0.7,1.4,1.2,2.3,1.6   c0.9,0.4,1.9,0.5,2.9,0.5c0.8,0,1.4-0.1,2-0.2c0.6-0.2,1.2-0.4,1.7-0.8C330.2,77.2,330.7,76.7,331.3,76.1L331.3,76.1z M348.9,78.4   V67.7c0-1.3-0.2-2.3-0.7-3.2c-0.5-0.9-1.1-1.6-2-2.1c-0.9-0.5-2-0.8-3.2-0.8c-0.9,0-1.8,0.2-2.6,0.5c-0.8,0.3-1.5,0.8-2.1,1.5v-9.2   h-2.4v23.9h2.4V68.1c0-1,0.2-1.8,0.5-2.4c0.3-0.7,0.8-1.1,1.4-1.5c0.6-0.3,1.3-0.5,2.2-0.5c0.8,0,1.6,0.2,2.2,0.5   c0.6,0.3,1.1,0.8,1.4,1.5c0.3,0.7,0.5,1.5,0.5,2.4v10.2H348.9L348.9,78.4z M367.5,70.7v-1.1c0-1.6-0.3-3.1-0.8-4.3   c-0.5-1.2-1.3-2.1-2.3-2.8c-1-0.6-2.2-1-3.7-1c-1.4,0-2.6,0.3-3.6,1c-1,0.7-1.8,1.6-2.3,2.9c-0.5,1.3-0.8,2.8-0.8,4.6   c0,1.9,0.3,3.5,0.9,4.8c0.6,1.3,1.4,2.2,2.5,2.8c1.1,0.6,2.3,0.9,3.8,0.9c0.9,0,1.7-0.1,2.4-0.3c0.7-0.2,1.3-0.5,1.9-0.9   c0.6-0.4,1.1-0.9,1.7-1.4l-1.6-1.4c-0.4,0.4-0.9,0.8-1.3,1.1c-0.4,0.3-0.9,0.5-1.4,0.6c-0.5,0.1-1.1,0.2-1.7,0.2   c-1.1,0-1.9-0.2-2.7-0.7c-0.7-0.4-1.3-1.1-1.6-2c-0.4-0.8-0.6-1.9-0.6-3.1H367.5L367.5,70.7z M365.1,68.9h-8.7c0-0.4,0-0.8,0.1-1.1   c0-0.3,0.1-0.6,0.1-0.8c0.1-0.3,0.2-0.5,0.3-0.8c0.2-0.5,0.5-0.9,0.9-1.3c0.4-0.4,0.8-0.7,1.3-0.9c0.5-0.2,1-0.3,1.6-0.3   c0.6,0,1.1,0.1,1.6,0.3c0.5,0.2,1,0.5,1.3,0.9c0.4,0.4,0.7,0.8,0.9,1.3c0.1,0.3,0.2,0.6,0.3,0.8c0.1,0.3,0.1,0.5,0.1,0.8   C365,68.1,365,68.5,365.1,68.9L365.1,68.9z M383.7,63.2c-0.6-0.6-1.2-1-1.8-1.2c-0.6-0.2-1.4-0.3-2.1-0.3c-0.6,0-1.3,0.1-1.9,0.3   c-0.6,0.2-1.1,0.4-1.6,0.8c-0.5,0.3-0.9,0.7-1.2,1.2v-2h-2.4v16.5h2.4V68.2c0-0.9,0.2-1.6,0.5-2.3c0.3-0.7,0.8-1.2,1.4-1.6   c0.6-0.4,1.3-0.6,2.1-0.6c0.4,0,0.8,0,1.1,0.1c0.3,0.1,0.6,0.2,0.9,0.4c0.3,0.2,0.6,0.4,0.9,0.7L383.7,63.2L383.7,63.2z    M399.6,78.4V61.8h-2.4V72c0,1-0.2,1.8-0.5,2.4c-0.3,0.7-0.8,1.1-1.4,1.5c-0.6,0.3-1.3,0.5-2.2,0.5c-0.8,0-1.6-0.2-2.2-0.5   c-0.6-0.3-1.1-0.8-1.4-1.5c-0.3-0.7-0.5-1.5-0.5-2.4V61.8h-2.4v10.6c0,1,0.1,1.8,0.4,2.6c0.3,0.8,0.7,1.5,1.3,2   c0.5,0.5,1.1,0.9,1.8,1.1c0.7,0.3,1.5,0.4,2.4,0.4c0.9,0,1.8-0.2,2.6-0.5c0.8-0.3,1.5-0.9,2.1-1.5v1.8H399.6L399.6,78.4z    M418.7,78.4V67.8c0-1-0.1-1.8-0.4-2.6c-0.3-0.8-0.7-1.4-1.3-2c-0.5-0.5-1.1-0.9-1.8-1.2c-0.7-0.3-1.5-0.4-2.4-0.4   c-0.9,0-1.8,0.2-2.6,0.5c-0.8,0.3-1.5,0.8-2.1,1.5v-1.8h-2.4v16.5h2.4V68.2c0-1,0.2-1.8,0.5-2.4c0.3-0.7,0.8-1.1,1.4-1.5   c0.6-0.3,1.3-0.5,2.2-0.5s1.6,0.2,2.2,0.5c0.6,0.3,1.1,0.8,1.4,1.5c0.3,0.7,0.5,1.5,0.5,2.4v10.2H418.7L418.7,78.4z M436.8,78.9   V61.8h-2.4v2c-0.4-0.6-0.9-1-1.4-1.3c-0.5-0.3-1-0.5-1.5-0.7c-0.5-0.1-1.1-0.2-1.7-0.2c-0.8,0-1.6,0.1-2.3,0.4   c-0.7,0.3-1.3,0.6-1.7,1.1c-0.5,0.6-1,1.2-1.3,1.9c-0.3,0.7-0.5,1.5-0.6,2.4c-0.1,0.8-0.2,1.7-0.2,2.6c0,0.9,0,1.8,0.2,2.6   c0.1,0.8,0.3,1.6,0.6,2.4c0.3,0.7,0.7,1.4,1.3,1.9c0.4,0.4,1,0.8,1.7,1.1c0.7,0.3,1.5,0.4,2.3,0.4c0.6,0,1.2-0.1,1.7-0.2   c0.5-0.1,1-0.3,1.5-0.7c0.5-0.3,1-0.8,1.4-1.3v2.6c0,0.7-0.1,1.4-0.3,2c-0.2,0.6-0.4,1.1-0.8,1.6c-0.4,0.5-0.8,0.8-1.4,1.1   c-0.6,0.3-1.3,0.4-2.1,0.4c-0.6,0-1.2-0.1-1.6-0.2c-0.4-0.1-0.8-0.3-1.2-0.6c-0.4-0.2-0.8-0.5-1.1-0.9l-1.6,1.5   c0.6,0.5,1.1,1,1.7,1.3c0.5,0.3,1.1,0.6,1.8,0.7c0.6,0.2,1.4,0.2,2.2,0.2c1.1,0,2.1-0.2,2.9-0.5c0.9-0.3,1.6-0.8,2.2-1.5   c0.6-0.6,1-1.4,1.4-2.2C436.7,80.9,436.8,79.9,436.8,78.9L436.8,78.9z M434.4,70c0,0.8,0,1.5-0.1,2.3c-0.1,0.7-0.3,1.4-0.6,2   c-0.3,0.6-0.7,1.1-1.2,1.4c-0.5,0.3-1.3,0.5-2.2,0.5c-0.9,0-1.6-0.2-2.2-0.5c-0.5-0.3-1-0.8-1.3-1.4c-0.3-0.6-0.5-1.3-0.6-2   c-0.1-0.7-0.1-1.5-0.1-2.3c0-0.8,0-1.5,0.1-2.3c0.1-0.7,0.3-1.4,0.6-2c0.3-0.6,0.7-1.1,1.3-1.4c0.5-0.3,1.3-0.5,2.2-0.5   c0.9,0,1.6,0.2,2.2,0.5c0.5,0.3,1,0.8,1.2,1.4c0.3,0.6,0.5,1.3,0.6,2C434.4,68.4,434.4,69.2,434.4,70L434.4,70z"/><path d="M400.4,40.8c0-0.4-0.1-0.8-0.3-1c-0.2-0.3-0.4-0.4-0.7-0.6c-0.3-0.1-0.6-0.2-1-0.2l-1.1-0.1c-0.3,0-0.5-0.1-0.7-0.2   c-0.2-0.1-0.3-0.2-0.4-0.3c-0.1-0.1-0.1-0.3-0.1-0.5c0-0.3,0.1-0.6,0.4-0.8c0.3-0.2,0.6-0.3,1.1-0.3c0.4,0,0.7,0,1,0.1   c0.3,0.1,0.6,0.2,0.8,0.4l0.6-0.6c-0.3-0.2-0.7-0.4-1.1-0.5c-0.4-0.1-0.9-0.2-1.4-0.2c-0.4,0-0.7,0-1,0.1c-0.3,0.1-0.6,0.2-0.8,0.4   c-0.2,0.2-0.4,0.4-0.5,0.6c-0.1,0.2-0.2,0.5-0.2,0.8c0,0.6,0.2,1,0.5,1.3c0.3,0.3,0.8,0.5,1.5,0.5l1.1,0.1c0.4,0,0.7,0.1,0.9,0.3   c0.2,0.2,0.3,0.4,0.3,0.7c0,0.3-0.1,0.5-0.2,0.7c-0.1,0.2-0.4,0.3-0.6,0.4c-0.3,0.1-0.6,0.1-1,0.1c-0.4,0-0.8-0.1-1.2-0.2   c-0.4-0.1-0.7-0.3-0.9-0.6l-0.7,0.7c0.2,0.2,0.5,0.4,0.8,0.6c0.3,0.1,0.6,0.2,0.9,0.3c0.3,0.1,0.7,0.1,1.1,0.1c0.5,0,1-0.1,1.4-0.2   c0.4-0.2,0.7-0.4,1-0.7C400.3,41.7,400.4,41.3,400.4,40.8L400.4,40.8z M394.4,36.6c-0.2-0.2-0.5-0.4-0.7-0.5   c-0.3-0.1-0.6-0.1-0.9-0.1c-0.3,0-0.5,0-0.8,0.1c-0.2,0.1-0.5,0.2-0.7,0.3c-0.2,0.1-0.4,0.3-0.5,0.5v-0.8h-1v6.8h1v-4.1   c0-0.3,0.1-0.7,0.2-0.9c0.1-0.3,0.3-0.5,0.6-0.6c0.2-0.2,0.5-0.2,0.9-0.2c0.2,0,0.3,0,0.5,0c0.1,0,0.2,0.1,0.4,0.2   c0.1,0.1,0.2,0.2,0.4,0.3L394.4,36.6L394.4,36.6z M386.8,39h-3.6c0-0.2,0-0.3,0-0.5c0-0.1,0-0.2,0.1-0.3c0-0.1,0.1-0.2,0.1-0.3   c0.1-0.2,0.2-0.4,0.4-0.5c0.2-0.2,0.3-0.3,0.5-0.4c0.2-0.1,0.4-0.1,0.7-0.1c0.2,0,0.5,0,0.7,0.1c0.2,0.1,0.4,0.2,0.5,0.4   c0.2,0.2,0.3,0.3,0.4,0.5c0.1,0.1,0.1,0.2,0.1,0.3c0,0.1,0,0.2,0.1,0.3C386.8,38.6,386.8,38.8,386.8,39L386.8,39z M387.8,39.7v-0.5   c0-0.7-0.1-1.3-0.3-1.7c-0.2-0.5-0.5-0.9-0.9-1.1c-0.4-0.3-0.9-0.4-1.5-0.4c-0.6,0-1.1,0.1-1.5,0.4c-0.4,0.3-0.7,0.7-1,1.2   c-0.2,0.5-0.3,1.1-0.3,1.9c0,0.8,0.1,1.4,0.4,2c0.2,0.5,0.6,0.9,1,1.1c0.4,0.2,1,0.4,1.6,0.4c0.4,0,0.7,0,1-0.1   c0.3-0.1,0.5-0.2,0.8-0.3c0.2-0.2,0.5-0.3,0.7-0.6l-0.7-0.6c-0.2,0.2-0.3,0.3-0.5,0.4c-0.2,0.1-0.4,0.2-0.6,0.3   c-0.2,0.1-0.4,0.1-0.7,0.1c-0.4,0-0.8-0.1-1.1-0.3c-0.3-0.2-0.5-0.4-0.7-0.8c-0.2-0.3-0.2-0.8-0.2-1.3H387.8L387.8,39.7z    M379.5,39.4c0,0.3,0,0.7-0.1,1c0,0.3-0.1,0.6-0.2,0.8c-0.1,0.2-0.3,0.4-0.5,0.6c-0.2,0.1-0.5,0.2-0.9,0.2c-0.4,0-0.7-0.1-0.9-0.2   c-0.2-0.1-0.4-0.3-0.5-0.6c-0.1-0.2-0.2-0.5-0.2-0.8c0-0.3-0.1-0.6-0.1-1c0-0.3,0-0.7,0.1-1c0-0.3,0.1-0.6,0.2-0.8   c0.1-0.2,0.3-0.4,0.5-0.6c0.2-0.1,0.5-0.2,0.9-0.2c0.4,0,0.7,0.1,0.9,0.2c0.2,0.1,0.4,0.3,0.5,0.6c0.1,0.2,0.2,0.5,0.2,0.8   C379.5,38.8,379.5,39.1,379.5,39.4L379.5,39.4z M380.5,39.4c0-0.4,0-0.7-0.1-1.1c0-0.4-0.1-0.7-0.2-1c-0.1-0.3-0.3-0.6-0.5-0.8   c-0.2-0.2-0.4-0.3-0.7-0.4c-0.3-0.1-0.6-0.2-0.9-0.2c-0.2,0-0.5,0-0.7,0.1c-0.2,0-0.4,0.1-0.6,0.3c-0.2,0.1-0.4,0.3-0.6,0.5v-0.8   h-1v9.8h1V42c0.2,0.2,0.4,0.4,0.6,0.5c0.2,0.1,0.4,0.2,0.6,0.3c0.2,0,0.5,0.1,0.7,0.1c0.3,0,0.7-0.1,0.9-0.2   c0.3-0.1,0.5-0.2,0.7-0.4c0.2-0.2,0.4-0.5,0.5-0.8c0.1-0.3,0.2-0.6,0.2-1C380.5,40.2,380.5,39.8,380.5,39.4L380.5,39.4z    M407.5,39.4c0-0.3,0-0.7-0.1-1c0-0.3-0.1-0.6-0.2-0.9c-0.1-0.3-0.3-0.5-0.5-0.8c-0.2-0.2-0.5-0.4-0.8-0.6   c-0.3-0.1-0.7-0.2-1.1-0.2c-0.4,0-0.8,0.1-1.1,0.2c-0.3,0.1-0.6,0.3-0.8,0.6c-0.2,0.2-0.4,0.5-0.5,0.8c-0.1,0.3-0.2,0.6-0.2,0.9   c0,0.3-0.1,0.7-0.1,1c0,0.3,0,0.7,0.1,1c0,0.3,0.1,0.6,0.2,0.9c0.1,0.3,0.3,0.5,0.5,0.8c0.2,0.2,0.5,0.4,0.8,0.6   c0.3,0.1,0.7,0.2,1.1,0.2c0.4,0,0.8-0.1,1.1-0.2c0.3-0.1,0.6-0.3,0.8-0.6c0.2-0.2,0.4-0.5,0.5-0.8c0.1-0.3,0.2-0.6,0.2-0.9   C407.5,40.1,407.5,39.8,407.5,39.4L407.5,39.4z M406.5,39.4c0,0.3,0,0.5,0,0.8c0,0.3-0.1,0.5-0.1,0.7c-0.1,0.2-0.2,0.4-0.4,0.6   c-0.2,0.2-0.3,0.3-0.6,0.4c-0.2,0.1-0.4,0.1-0.7,0.1c-0.2,0-0.5,0-0.7-0.1c-0.2-0.1-0.4-0.2-0.5-0.4c-0.2-0.2-0.3-0.4-0.4-0.6   c-0.1-0.2-0.1-0.5-0.2-0.7c0-0.3,0-0.5,0-0.8c0-0.3,0-0.5,0-0.8c0-0.3,0.1-0.5,0.2-0.7c0.1-0.2,0.2-0.4,0.4-0.6   c0.2-0.2,0.3-0.3,0.5-0.4c0.2-0.1,0.4-0.1,0.7-0.1c0.2,0,0.5,0,0.7,0.1s0.4,0.2,0.6,0.4c0.2,0.2,0.3,0.4,0.4,0.6   c0.1,0.2,0.1,0.5,0.1,0.7C406.5,38.9,406.5,39.2,406.5,39.4L406.5,39.4z M406.7,34.6v-1.2h-1v1.2H406.7L406.7,34.6z M403.8,34.6   v-1.2h-1v1.2H403.8L403.8,34.6z M414.9,42.8v-4.3c0-0.4-0.1-0.7-0.2-1.1c-0.1-0.3-0.3-0.6-0.5-0.8c-0.2-0.2-0.5-0.4-0.7-0.5   c-0.3-0.1-0.6-0.2-1-0.2c-0.4,0-0.7,0.1-1.1,0.2c-0.3,0.1-0.6,0.3-0.8,0.6v-0.7h-1v6.8h1v-4.2c0-0.4,0.1-0.7,0.2-1   c0.1-0.3,0.3-0.5,0.6-0.6c0.2-0.1,0.5-0.2,0.9-0.2c0.3,0,0.6,0.1,0.9,0.2c0.2,0.1,0.4,0.3,0.6,0.6c0.1,0.3,0.2,0.6,0.2,1v4.2H414.9   L414.9,42.8z M419.7,42.8V42h-0.5c-0.2,0-0.4,0-0.5-0.1c-0.1-0.1-0.2-0.2-0.3-0.3c-0.1-0.1-0.1-0.3-0.1-0.5V33h-1v8   c0,0.3,0.1,0.7,0.2,0.9c0.1,0.3,0.3,0.5,0.6,0.6c0.3,0.2,0.6,0.2,1,0.2H419.7L419.7,42.8z M422.4,42.8v-6.8h-1v6.8H422.4   L422.4,42.8z M422.5,34.2V33h-1.1v1.1H422.5L422.5,34.2z M429.7,41.9l-0.7-0.6c-0.2,0.2-0.3,0.3-0.5,0.4c-0.2,0.1-0.3,0.2-0.5,0.2   c-0.2,0.1-0.4,0.1-0.6,0.1c-0.3,0-0.6-0.1-0.9-0.2c-0.3-0.1-0.5-0.3-0.7-0.6c-0.1-0.1-0.2-0.3-0.3-0.5c-0.1-0.2-0.1-0.4-0.1-0.6   c0-0.2,0-0.5,0-0.8c0-0.3,0-0.5,0-0.8c0-0.2,0.1-0.4,0.1-0.6c0.1-0.2,0.1-0.3,0.3-0.5c0.2-0.3,0.4-0.4,0.7-0.6   c0.3-0.1,0.6-0.2,0.9-0.2c0.2,0,0.4,0,0.6,0.1c0.2,0,0.3,0.1,0.5,0.2c0.2,0.1,0.3,0.3,0.5,0.4l0.7-0.6c-0.2-0.2-0.5-0.4-0.7-0.6   c-0.2-0.1-0.5-0.3-0.7-0.3c-0.2-0.1-0.5-0.1-0.8-0.1c-0.4,0-0.8,0.1-1.2,0.2c-0.4,0.1-0.7,0.4-0.9,0.7c-0.3,0.3-0.5,0.6-0.6,1.1   c-0.2,0.4-0.2,0.9-0.2,1.5c0,0.6,0.1,1.1,0.2,1.5c0.1,0.4,0.4,0.8,0.6,1.1c0.3,0.3,0.6,0.5,0.9,0.6c0.4,0.1,0.8,0.2,1.2,0.2   c0.3,0,0.6,0,0.8-0.1c0.2-0.1,0.5-0.2,0.7-0.3C429.3,42.4,429.5,42.2,429.7,41.9L429.7,41.9z M436.9,42.8v-4.3c0-0.5-0.1-1-0.3-1.3   c-0.2-0.4-0.5-0.7-0.8-0.9c-0.4-0.2-0.8-0.3-1.3-0.3c-0.4,0-0.7,0.1-1,0.2c-0.3,0.1-0.6,0.3-0.9,0.6V33h-1v9.8h1v-4.2   c0-0.4,0.1-0.7,0.2-1c0.1-0.3,0.3-0.5,0.6-0.6c0.3-0.1,0.5-0.2,0.9-0.2c0.3,0,0.6,0.1,0.9,0.2c0.2,0.1,0.4,0.3,0.6,0.6   c0.1,0.3,0.2,0.6,0.2,1v4.2H436.9L436.9,42.8z"/><path d="M362.7,42.8V42h-0.5c-0.3,0-0.5-0.1-0.7-0.3c-0.1-0.2-0.2-0.4-0.2-0.7v-4.1h1.4v-0.8h-1.4V34h-1v2.1h-0.9v0.8h0.9V41   c0,0.3,0.1,0.6,0.2,0.9c0.1,0.3,0.3,0.5,0.6,0.6c0.3,0.2,0.6,0.2,1,0.2H362.7L362.7,42.8z M357.7,42.8v-4.3c0-0.4-0.1-0.7-0.2-1.1   c-0.1-0.3-0.3-0.6-0.5-0.8c-0.2-0.2-0.5-0.4-0.7-0.5c-0.3-0.1-0.6-0.2-1-0.2c-0.4,0-0.7,0.1-1.1,0.2c-0.3,0.1-0.6,0.3-0.8,0.6v-0.7   h-1v6.8h1v-4.2c0-0.4,0.1-0.7,0.2-1c0.1-0.3,0.3-0.5,0.6-0.6c0.2-0.1,0.5-0.2,0.9-0.2c0.3,0,0.6,0.1,0.9,0.2   c0.2,0.1,0.4,0.3,0.6,0.6c0.1,0.3,0.2,0.6,0.2,1v4.2H357.7L357.7,42.8z M349.3,39h-3.6c0-0.2,0-0.3,0-0.5c0-0.1,0-0.2,0.1-0.3   c0-0.1,0.1-0.2,0.1-0.3c0.1-0.2,0.2-0.4,0.4-0.5c0.2-0.2,0.3-0.3,0.5-0.4c0.2-0.1,0.4-0.1,0.7-0.1c0.2,0,0.5,0,0.7,0.1   c0.2,0.1,0.4,0.2,0.5,0.4c0.2,0.2,0.3,0.3,0.4,0.5c0,0.1,0.1,0.2,0.1,0.3c0,0.1,0,0.2,0.1,0.3C349.3,38.6,349.3,38.8,349.3,39   L349.3,39z M350.3,39.7v-0.5c0-0.7-0.1-1.3-0.3-1.7c-0.2-0.5-0.5-0.9-0.9-1.1c-0.4-0.3-0.9-0.4-1.5-0.4c-0.6,0-1.1,0.1-1.5,0.4   c-0.4,0.3-0.7,0.7-1,1.2c-0.2,0.5-0.3,1.1-0.3,1.9c0,0.8,0.1,1.4,0.4,2c0.2,0.5,0.6,0.9,1,1.1c0.4,0.2,1,0.4,1.6,0.4   c0.4,0,0.7,0,1-0.1c0.3-0.1,0.5-0.2,0.8-0.3c0.2-0.2,0.5-0.3,0.7-0.6l-0.7-0.6c-0.2,0.2-0.4,0.3-0.5,0.4c-0.2,0.1-0.4,0.2-0.6,0.3   c-0.2,0.1-0.4,0.1-0.7,0.1c-0.4,0-0.8-0.1-1.1-0.3c-0.3-0.2-0.5-0.4-0.7-0.8c-0.2-0.3-0.2-0.8-0.2-1.3H350.3L350.3,39.7z    M343.3,42.8V42h-0.5c-0.3,0-0.5-0.1-0.7-0.3c-0.1-0.2-0.2-0.4-0.2-0.7v-4.1h1.4v-0.8h-1.4V34h-1v2.1H340v0.8h0.9V41   c0,0.3,0.1,0.6,0.2,0.9c0.1,0.3,0.3,0.5,0.6,0.6c0.3,0.2,0.6,0.2,1,0.2H343.3L343.3,42.8z M337.6,39H334c0-0.2,0-0.3,0-0.5   c0-0.1,0-0.2,0.1-0.3c0-0.1,0.1-0.2,0.1-0.3c0.1-0.2,0.2-0.4,0.4-0.5c0.2-0.2,0.3-0.3,0.5-0.4c0.2-0.1,0.4-0.1,0.7-0.1   c0.2,0,0.5,0,0.7,0.1c0.2,0.1,0.4,0.2,0.5,0.4c0.2,0.2,0.3,0.3,0.4,0.5c0,0.1,0.1,0.2,0.1,0.3c0,0.1,0,0.2,0.1,0.3   C337.6,38.6,337.6,38.8,337.6,39L337.6,39z M338.6,39.7v-0.5c0-0.7-0.1-1.3-0.3-1.7c-0.2-0.5-0.5-0.9-0.9-1.1   c-0.4-0.3-0.9-0.4-1.5-0.4c-0.6,0-1.1,0.1-1.5,0.4c-0.4,0.3-0.7,0.7-1,1.2c-0.2,0.5-0.3,1.1-0.3,1.9c0,0.8,0.1,1.4,0.4,2   c0.2,0.5,0.6,0.9,1,1.1c0.4,0.2,1,0.4,1.6,0.4c0.4,0,0.7,0,1-0.1c0.3-0.1,0.5-0.2,0.8-0.3c0.2-0.2,0.5-0.3,0.7-0.6l-0.7-0.6   c-0.2,0.2-0.4,0.3-0.5,0.4c-0.2,0.1-0.4,0.2-0.6,0.3c-0.2,0.1-0.4,0.1-0.7,0.1c-0.4,0-0.8-0.1-1.1-0.3c-0.3-0.2-0.5-0.4-0.7-0.8   c-0.2-0.3-0.2-0.8-0.2-1.3H338.6L338.6,39.7z M330.3,39.4c0,0.3,0,0.7-0.1,1c0,0.3-0.1,0.6-0.2,0.8c-0.1,0.2-0.3,0.4-0.5,0.6   c-0.2,0.1-0.5,0.2-0.9,0.2c-0.4,0-0.7-0.1-0.9-0.2c-0.2-0.1-0.4-0.3-0.5-0.6c-0.1-0.2-0.2-0.5-0.2-0.8c0-0.3-0.1-0.6-0.1-1   c0-0.3,0-0.7,0.1-1c0-0.3,0.1-0.6,0.2-0.8c0.1-0.2,0.3-0.4,0.5-0.6c0.2-0.1,0.5-0.2,0.9-0.2c0.4,0,0.7,0.1,0.9,0.2   c0.2,0.1,0.4,0.3,0.5,0.6c0.1,0.2,0.2,0.5,0.2,0.8C330.3,38.8,330.3,39.1,330.3,39.4L330.3,39.4z M331.3,39.4c0-0.4,0-0.7-0.1-1.1   c0-0.4-0.1-0.7-0.2-1c-0.1-0.3-0.3-0.6-0.5-0.8c-0.2-0.2-0.4-0.3-0.7-0.4c-0.3-0.1-0.6-0.2-0.9-0.2c-0.2,0-0.5,0-0.7,0.1   c-0.2,0-0.4,0.1-0.6,0.3c-0.2,0.1-0.4,0.3-0.6,0.5v-0.8h-1v9.8h1V42c0.2,0.2,0.4,0.4,0.6,0.5c0.2,0.1,0.4,0.2,0.6,0.3   c0.2,0,0.5,0.1,0.7,0.1c0.3,0,0.7-0.1,0.9-0.2c0.3-0.1,0.5-0.2,0.7-0.4c0.2-0.2,0.4-0.5,0.5-0.8c0.1-0.3,0.2-0.6,0.2-1   C331.3,40.2,331.3,39.8,331.3,39.4L331.3,39.4z M323.5,42.8v-4.3c0-0.4-0.1-0.7-0.2-1.1c-0.1-0.3-0.3-0.6-0.5-0.8   c-0.2-0.2-0.5-0.4-0.8-0.5c-0.3-0.1-0.6-0.2-1-0.2c-0.5,0-0.9,0.1-1.3,0.3c-0.4,0.2-0.7,0.5-1,0.8c-0.2-0.4-0.5-0.7-0.8-0.8   c-0.4-0.2-0.8-0.3-1.2-0.3c-0.4,0-0.7,0.1-1.1,0.2c-0.3,0.1-0.6,0.3-0.9,0.6v-0.7h-1v6.8h1v-4.2c0-0.4,0.1-0.7,0.2-1   c0.1-0.3,0.3-0.5,0.6-0.6c0.3-0.1,0.5-0.2,0.9-0.2c0.3,0,0.6,0.1,0.9,0.2c0.2,0.1,0.4,0.3,0.6,0.6c0.1,0.3,0.2,0.6,0.2,1v4.2h1   v-4.3c0-0.4,0.1-0.7,0.2-0.9c0.1-0.3,0.3-0.4,0.6-0.6c0.3-0.1,0.5-0.2,0.9-0.2c0.3,0,0.6,0.1,0.9,0.2c0.2,0.1,0.4,0.3,0.6,0.6   c0.1,0.3,0.2,0.6,0.2,1v4.2H323.5L323.5,42.8z M310.7,39.4c0,0.3,0,0.5,0,0.8c0,0.3-0.1,0.5-0.1,0.7c-0.1,0.2-0.2,0.4-0.4,0.6   c-0.2,0.2-0.3,0.3-0.6,0.4c-0.2,0.1-0.4,0.1-0.7,0.1c-0.2,0-0.5,0-0.7-0.1c-0.2-0.1-0.4-0.2-0.5-0.4c-0.2-0.2-0.3-0.4-0.4-0.6   c-0.1-0.2-0.1-0.5-0.2-0.7c0-0.3,0-0.5,0-0.8c0-0.3,0-0.5,0-0.8c0-0.3,0.1-0.5,0.2-0.7c0.1-0.2,0.2-0.4,0.4-0.6   c0.2-0.2,0.3-0.3,0.5-0.4c0.2-0.1,0.4-0.1,0.7-0.1c0.2,0,0.5,0,0.7,0.1c0.2,0.1,0.4,0.2,0.6,0.4c0.2,0.2,0.3,0.4,0.4,0.6   c0.1,0.2,0.1,0.5,0.1,0.7C310.7,38.9,310.7,39.2,310.7,39.4L310.7,39.4z M311.7,39.4c0-0.3,0-0.7-0.1-1c0-0.3-0.1-0.6-0.2-0.9   c-0.1-0.3-0.3-0.5-0.5-0.8c-0.2-0.2-0.5-0.4-0.8-0.6c-0.3-0.1-0.7-0.2-1.1-0.2c-0.4,0-0.8,0.1-1.1,0.2c-0.3,0.1-0.6,0.3-0.8,0.6   c-0.2,0.2-0.4,0.5-0.5,0.8c-0.1,0.3-0.2,0.6-0.2,0.9c0,0.3-0.1,0.7-0.1,1c0,0.3,0,0.7,0.1,1c0,0.3,0.1,0.6,0.2,0.9   c0.1,0.3,0.3,0.5,0.5,0.8c0.2,0.2,0.5,0.4,0.8,0.6c0.3,0.1,0.7,0.2,1.1,0.2c0.4,0,0.8-0.1,1.1-0.2c0.3-0.1,0.6-0.3,0.8-0.6   c0.2-0.2,0.4-0.5,0.5-0.8c0.1-0.3,0.2-0.6,0.2-0.9C311.7,40.1,311.7,39.8,311.7,39.4L311.7,39.4z M305.1,42.8l-2.7-4.2l2.3-2.6   h-1.2l-3,3.5V33h-1v9.8h1v-2l1.3-1.5l2.1,3.5H305.1L305.1,42.8z"/><path d="M286.3,42.8v-4.3c0-0.5-0.1-1-0.3-1.3c-0.2-0.4-0.5-0.7-0.8-0.9c-0.4-0.2-0.8-0.3-1.3-0.3c-0.4,0-0.7,0.1-1,0.2   c-0.3,0.1-0.6,0.3-0.8,0.6V33h-1v9.8h1v-4.2c0-0.4,0.1-0.7,0.2-1c0.1-0.3,0.3-0.5,0.6-0.6c0.3-0.1,0.5-0.2,0.9-0.2   c0.3,0,0.6,0.1,0.9,0.2c0.2,0.1,0.4,0.3,0.6,0.6c0.1,0.3,0.2,0.6,0.2,1v4.2H286.3L286.3,42.8z"/><path class="st0" d="M276.6,5.9L276.6,5.9L276.6,5.9L276.6,5.9z M275.6,6L275.6,6L275.6,6L275.6,6z M161.5,20.1c0,0,0-0.1,0-0.1   l0,0l0,0L161.5,20.1L161.5,20.1z M153.3,9.5L153.3,9.5L153.3,9.5L153.3,9.5z M153.3,9.5L153.3,9.5L153.3,9.5L153.3,9.5z M156,10.4   L156,10.4L156,10.4L156,10.4L156,10.4z M129.5,4.5c0.2,0,0.4,0,0.6,0c2.5,0.2,5.1,0.6,7.6,1.2c2.5,0.6,4.9,1.3,7.1,2.1   c2.2,0.8,4.2,1.8,5.9,2.8l0,0l0,0h0c2,1.3,4,2.8,6,4.3c-0.8-1-1.5-2-2.4-2.9c-2.1-2.3-4.4-4.2-7.1-5.5c-2.7-1.3-5.7-2.1-9.2-2.4   C135.5,4,132.7,4.1,129.5,4.5L129.5,4.5z M207.1,2.7l-1.9,0.2v0l0,0l0,0l-0.1,0c-1,0-1.9-0.2-2.9-0.3l0,0l0,0h0   c-0.9-0.1-1.8-0.2-2.5-0.3c-0.7,0-1.4,0-1.9,0.3c-0.3,0.2-0.7,0.4-1.2,0.8c0.6,0.2,1.1,0.4,1.5,0.7c0.9,0.6,1.5,1.4,2.1,2.3   l6.4-3.4l0,0L207.1,2.7L207.1,2.7z M212.2,1.3L212.2,1.3L212.2,1.3L212.2,1.3z M212.3,1.1L212.3,1.1L212.3,1.1L212.3,1.1z    M186.7,7.9c1-0.8,2-1.5,2.9-2.2l0,0l0,0l0,0l0,0h0c1.2-0.9,2.3-1.8,3.3-2.5c0,0,0.1,0,0.1-0.1c1.7-1.3,3-2.2,3.7-2.6l0,0l0,0l0,0   c0.8-0.4,1.8-0.5,2.8-0.5c1,0,2,0.2,3,0.3v0l0,0h0c0.9,0.1,1.8,0.2,2.5,0.3l6.8-0.6l0,0l0.1,0l0.1,0l0,0h0c0.1,0,0.1,0,0.2,0   c0.4,0,0.9,0.2,1.4,0.4c0.5,0.2,1.1,0.6,1.6,1.1c0.5,0.4,0.9,0.9,1.3,1.4l0,0c0.4,0.5,0.7,1,0.9,1.5l3.8,6.2l6.3,0.5l0,0l0,0l0,0   l0,0l0,0l14,2.6c0.4-0.3,0.8-0.5,1.2-0.7c0.6-0.3,1.1-0.5,1.7-0.6c0.6-0.2,1.1-0.3,1.7-0.3c0.6-0.1,1.1-0.1,1.7,0v0h0l0,0   c0.4,0,0.7,0.1,1,0.1c0.3-0.3,0.6-0.6,0.9-0.9c0.5-0.4,1.1-0.9,1.7-1.2c0.6-0.4,1.2-0.8,1.9-1.1c0.7-0.3,1.4-0.7,2.1-1l0,0l0,0l0,0   l0,0l0,0c1.4-0.4,2.8-0.7,4.2-1c1.5-0.3,3.1-0.6,4.7-0.9c1.7-0.3,3.4-0.5,5-0.7c1.8-0.2,3.6-0.4,5.4-0.6c0.3,0,0.6,0.1,0.8,0.3   c0.2,0.2,0.4,0.5,0.4,0.8v0c0,0.3-0.1,0.6-0.3,0.8h0c-0.2,0.2-0.5,0.4-0.8,0.4l0,0h0c-1.7,0.2-3.5,0.3-5.3,0.6   c-1.7,0.2-3.4,0.4-5,0.7c-1.5,0.2-3,0.5-4.5,0.8c-1.4,0.3-2.7,0.6-4.1,1c-0.6,0.3-1.3,0.5-1.9,0.8c-0.6,0.3-1.2,0.6-1.7,1   c-0.3,0.2-0.6,0.4-0.8,0.6c1.7,0.3,3.2,0.6,4.8,0.9l0,0h0l0,0c0.8,0.2,1.6,0.3,2.4,0.5l0,0c0.3,0.1,0.6,0.2,0.7,0.5   c0.2,0.2,0.2,0.6,0.2,0.9c-0.1,0.3-0.2,0.6-0.5,0.7c-0.2,0.2-0.6,0.2-0.9,0.2h0c-0.3-0.1-0.8-0.1-1.2-0.2c-0.5-0.1-0.9-0.2-1.3-0.3   l0,0l0,0v0c-2.6-0.5-5.4-1.1-8.5-1.3l-0.1,0c-0.4,0-0.9,0-1.3,0c-0.5,0-0.9,0.1-1.3,0.2c-0.4,0.1-0.9,0.3-1.3,0.5   c-0.4,0.2-0.8,0.4-1.3,0.7l0,0l0,0l-0.1,0l0,0c-0.9,0.5-1.7,1.1-2.4,1.6c-0.7,0.6-1.4,1.1-2.1,1.8c-0.6,0.6-1.3,1.3-1.9,2.1   c-0.7,0.8-1.3,1.7-2,2.6l0,0l0,0l0,0l-3.9,4.9l0,0l0,0c-0.2,0.2-0.5,0.4-0.7,0.4c-0.3,0-0.6,0-0.8-0.2l0,0l0,0   c-0.2-0.2-0.4-0.5-0.4-0.8c0-0.3,0-0.6,0.2-0.8l0,0l0,0l3.8-4.8l0,0c0.7-1,1.4-1.9,2.1-2.7c0.7-0.8,1.4-1.6,2.1-2.3   c0.7-0.7,1.5-1.3,2.3-2l0.2-0.2l-11.6-2.2l-10.3-0.8c-1.8,0.3-3.1,0.9-4.3,1.8c-1.2,0.9-2.3,2.1-3.4,3.4l-0.1,0.1   c-0.3,0.3-0.5,0.6-0.9,1l0,0l0,0l0,0c-1.3,1.3-3.1,2.8-5,4.3c-2.1,1.6-4.5,3.3-7,4.9c-2.7,1.7-5.5,3.5-8.4,5   c-2.3,1.3-4.5,2.5-6.7,3.5c2.3,2.3,4.6,4.6,6.8,6.9c0.2,0.2,0.3,0.5,0.3,0.8v0c0,0.3-0.1,0.6-0.3,0.8c-0.2,0.2-0.5,0.3-0.8,0.3h0   c-0.3,0-0.6-0.1-0.8-0.3c-2.5-2.5-5-5.1-7.6-7.7l0,0h0c-0.3-0.1-0.5-0.3-0.7-0.6l0,0l0,0c0,0,0-0.1,0-0.1l-0.2-0.2   c-3-2.9-6-5.8-9.1-8.6c-3.1-2.8-6.3-5.5-9.5-8.1c-3.2-2.6-6.5-5-9.7-7.2l0,0c-1.7-1-3.6-1.9-5.6-2.7c-2.1-0.8-4.4-1.5-6.8-2   c-2.4-0.5-4.9-0.9-7.3-1.1c-2.4-0.2-4.7-0.3-6.8-0.1h0c-0.3,0-0.6-0.1-0.8-0.3v0c-0.2-0.2-0.4-0.5-0.4-0.8c0-0.3,0.1-0.6,0.3-0.8   c0.2-0.2,0.5-0.4,0.8-0.4l0,0c0.5,0,1-0.1,1.6-0.1c0-0.1,0-0.1-0.1-0.2l0,0c-0.1-0.3,0-0.6,0.2-0.9l0,0c0.2-0.2,0.4-0.4,0.7-0.5   c5-0.9,9.3-1.2,13-0.9c3.8,0.3,7.1,1.2,10,2.6c1.9,1,3.7,2.2,5.4,3.6l2.4-0.1l0,0l0,0l0,0l0,0c1.8,0.1,2.5,0.6,3.1,1.2l0,0l0,0   c0.1,0.1,0.2,0.2,0.4,0.3l12.7-2.9l0,0l0,0h0c1.6-0.2,3-0.4,4.4-0.4c1.4-0.1,2.7,0,3.9,0.1c1.3,0.1,2.5,0.4,3.6,0.7   C185.2,7.3,186,7.6,186.7,7.9L186.7,7.9z M172.3,20.8c-0.3,0.2-0.6,0.2-0.9,0.2c-0.3-0.1-0.6-0.2-0.7-0.5c-0.2-0.3-0.2-0.6-0.2-0.9   c0.1-0.3,0.2-0.6,0.5-0.7c4.4-2.8,9.2-6.2,13.4-9.4c-0.3-0.1-0.5-0.2-0.8-0.3c-0.9-0.3-2-0.5-3.1-0.6c-1.1-0.1-2.3-0.2-3.6-0.1   c-1.2,0-2.6,0.2-4,0.4l-13,3c0,0-0.1,0-0.1,0l-2.2,0.5c1.6,2,3.1,4.4,4.6,7c2.7,2.2,5.4,4.5,8,6.9c3.2,2.9,6.2,5.8,9.2,8.7l0.1,0.1   c2.3-1.1,4.8-2.4,7.3-3.8c2.8-1.6,5.6-3.2,8.2-5c2.5-1.6,4.8-3.2,6.9-4.8c1.9-1.4,3.6-2.8,4.8-4.1c0.1-0.1,0.3-0.3,0.4-0.5l0.5-0.5   l0,0l0,0l0,0c2.5-2.9,4.7-5.4,9.2-6v0l0.1,0l0.1,0l0.1,0l0.1,0v0l1.3,0.1l-2.9-4.8l0,0l0,0l0,0l0,0l0,0l0,0   c-0.2-0.4-0.4-0.8-0.7-1.1c-0.3-0.4-0.6-0.7-1-1c-0.3-0.3-0.6-0.5-0.9-0.6l0,0c-0.2-0.1-0.3-0.2-0.5-0.2L207.7,5l0,0l0,0v0   l-7.3,3.9c-0.3,0.1-0.6,0.2-0.9,0.1l0,0c-0.3-0.1-0.5-0.3-0.6-0.5c-0.2-0.3-0.3-0.4-0.3-0.5l0,0l0,0l0,0l0,0   c-1-1.4-1.7-2.5-4.5-2.7c-0.9,0.7-1.9,1.4-3,2.3l0,0l0,0l0,0c-1,0.7-2,1.5-3,2.3l0,0.1l0,0.1l0,0c-0.2,0.2-0.4,0.4-0.7,0.5   c0,0-0.1,0-0.1,0C182.5,13.9,177.2,17.7,172.3,20.8L172.3,20.8z"/><path d="M279.1,41.9l-0.7-0.6c-0.2,0.2-0.3,0.3-0.5,0.4c-0.2,0.1-0.3,0.2-0.5,0.2c-0.2,0.1-0.4,0.1-0.6,0.1c-0.3,0-0.6-0.1-0.9-0.2   c-0.3-0.1-0.5-0.3-0.7-0.6c-0.1-0.1-0.2-0.3-0.3-0.5c-0.1-0.2-0.1-0.4-0.1-0.6c0-0.2,0-0.5,0-0.8c0-0.3,0-0.5,0-0.8   c0-0.2,0.1-0.4,0.1-0.6c0.1-0.2,0.1-0.3,0.3-0.5c0.2-0.3,0.4-0.4,0.7-0.6c0.3-0.1,0.6-0.2,0.9-0.2c0.2,0,0.4,0,0.6,0.1   c0.2,0,0.3,0.1,0.5,0.2c0.2,0.1,0.3,0.3,0.5,0.4l0.7-0.6c-0.2-0.2-0.5-0.4-0.7-0.6c-0.2-0.1-0.5-0.3-0.7-0.3   c-0.2-0.1-0.5-0.1-0.8-0.1c-0.4,0-0.8,0.1-1.2,0.2c-0.4,0.1-0.7,0.4-0.9,0.7c-0.3,0.3-0.5,0.6-0.6,1.1c-0.2,0.4-0.2,0.9-0.2,1.5   c0,0.6,0.1,1.1,0.2,1.5c0.1,0.4,0.4,0.8,0.6,1.1c0.3,0.3,0.6,0.5,0.9,0.6c0.4,0.1,0.8,0.2,1.2,0.2c0.3,0,0.6,0,0.8-0.1   c0.2-0.1,0.5-0.2,0.7-0.3C278.6,42.4,278.8,42.2,279.1,41.9L279.1,41.9z M272.3,40.8c0-0.4-0.1-0.8-0.3-1c-0.2-0.3-0.4-0.4-0.7-0.6   c-0.3-0.1-0.6-0.2-1-0.2l-1.1-0.1c-0.3,0-0.5-0.1-0.7-0.2c-0.2-0.1-0.3-0.2-0.4-0.3c-0.1-0.1-0.1-0.3-0.1-0.5   c0-0.3,0.1-0.6,0.4-0.8c0.3-0.2,0.6-0.3,1.1-0.3c0.4,0,0.7,0,1,0.1c0.3,0.1,0.6,0.2,0.8,0.4l0.6-0.6c-0.3-0.2-0.7-0.4-1.1-0.5   c-0.4-0.1-0.9-0.2-1.4-0.2c-0.4,0-0.7,0-1,0.1c-0.3,0.1-0.6,0.2-0.8,0.4c-0.2,0.2-0.4,0.4-0.5,0.6c-0.1,0.2-0.2,0.5-0.2,0.8   c0,0.6,0.2,1,0.5,1.3c0.3,0.3,0.8,0.5,1.5,0.5l1.1,0.1c0.4,0,0.7,0.1,0.9,0.3c0.2,0.2,0.3,0.4,0.3,0.7c0,0.3-0.1,0.5-0.2,0.7   c-0.1,0.2-0.4,0.3-0.6,0.4c-0.3,0.1-0.6,0.1-1,0.1c-0.4,0-0.8-0.1-1.2-0.2c-0.4-0.1-0.7-0.3-0.9-0.6l-0.7,0.7   c0.2,0.2,0.5,0.4,0.8,0.6c0.3,0.1,0.6,0.2,0.9,0.3c0.3,0.1,0.7,0.1,1.1,0.1c0.5,0,1-0.1,1.4-0.2c0.4-0.2,0.7-0.4,1-0.7   C272.2,41.7,272.3,41.3,272.3,40.8L272.3,40.8z M265,34.2V33h-1.1v1.1H265L265,34.2z M264.9,42.8v-6.8h-1v6.8H264.9L264.9,42.8z    M261.5,42.8v-4.3c0-0.5-0.1-1-0.3-1.3c-0.2-0.4-0.5-0.7-0.8-0.9c-0.4-0.2-0.8-0.3-1.3-0.3c-0.4,0-0.7,0.1-1,0.2   c-0.3,0.1-0.6,0.3-0.9,0.6V33h-1v9.8h1v-4.2c0-0.4,0.1-0.7,0.2-1c0.1-0.3,0.3-0.5,0.6-0.6c0.3-0.1,0.5-0.2,0.9-0.2   c0.3,0,0.6,0.1,0.9,0.2c0.2,0.1,0.4,0.3,0.6,0.6c0.1,0.3,0.2,0.6,0.2,1v4.2H261.5L261.5,42.8z M254.2,42.8V42h-0.5   c-0.3,0-0.5-0.1-0.7-0.3c-0.1-0.2-0.2-0.4-0.2-0.7v-4.1h1.4v-0.8h-1.4V34h-1v2.1H251v0.8h0.9V41c0,0.3,0.1,0.6,0.2,0.9   c0.1,0.3,0.3,0.5,0.6,0.6c0.3,0.2,0.6,0.2,1,0.2H254.2L254.2,42.8z M248.3,40.4c0,0.3,0,0.5-0.1,0.7c-0.1,0.2-0.1,0.3-0.3,0.5   c-0.1,0.1-0.3,0.2-0.5,0.3c-0.2,0.1-0.3,0.1-0.5,0.1c-0.2,0-0.4,0-0.6,0c-0.5,0-0.9-0.1-1.2-0.3c-0.3-0.2-0.4-0.5-0.4-0.9   c0-0.4,0.1-0.7,0.4-0.9c0.3-0.2,0.6-0.3,1.1-0.3h1.9V40.4L248.3,40.4z M249.2,42.8v-4.6c0-0.7-0.2-1.3-0.7-1.7   c-0.4-0.4-1.1-0.6-2-0.6c-0.4,0-0.7,0-1,0.1c-0.3,0.1-0.5,0.2-0.8,0.3c-0.2,0.1-0.4,0.3-0.6,0.6l0.7,0.6c0.1-0.2,0.3-0.3,0.4-0.5   c0.2-0.1,0.3-0.2,0.5-0.2c0.2,0,0.5-0.1,0.7-0.1c0.4,0,0.7,0.1,1,0.2c0.3,0.1,0.4,0.3,0.6,0.5c0.1,0.2,0.2,0.5,0.2,0.8V39h-2   c-0.5,0-0.9,0.1-1.3,0.2c-0.3,0.2-0.6,0.4-0.8,0.7c-0.2,0.3-0.3,0.6-0.3,1c0,0.3,0,0.5,0.1,0.8c0.1,0.2,0.2,0.4,0.4,0.6   c0.1,0.1,0.3,0.3,0.5,0.4c0.2,0.1,0.4,0.2,0.6,0.2c0.2,0,0.5,0.1,0.8,0.1c0.3,0,0.6,0,0.8-0.1c0.2,0,0.4-0.1,0.6-0.2   c0.2-0.1,0.4-0.3,0.5-0.4v0.6H249.2L249.2,42.8z M241.3,39.4c0,0.3,0,0.7-0.1,1c0,0.3-0.1,0.6-0.2,0.8c-0.1,0.2-0.3,0.4-0.5,0.6   c-0.2,0.1-0.5,0.2-0.9,0.2c-0.4,0-0.7-0.1-0.9-0.2c-0.2-0.1-0.4-0.3-0.5-0.6c-0.1-0.2-0.2-0.5-0.2-0.8c0-0.3-0.1-0.6-0.1-1   c0-0.3,0-0.7,0.1-1c0-0.3,0.1-0.6,0.2-0.8c0.1-0.2,0.3-0.4,0.5-0.6c0.2-0.1,0.5-0.2,0.9-0.2c0.4,0,0.7,0.1,0.9,0.2   c0.2,0.1,0.4,0.3,0.5,0.6c0.1,0.2,0.2,0.5,0.2,0.8C241.3,38.8,241.3,39.1,241.3,39.4L241.3,39.4z M242.3,39.4c0-0.4,0-0.7-0.1-1.1   c0-0.4-0.1-0.7-0.2-1c-0.1-0.3-0.3-0.6-0.5-0.8c-0.2-0.2-0.4-0.3-0.7-0.4c-0.3-0.1-0.6-0.2-0.9-0.2c-0.2,0-0.5,0-0.7,0.1   c-0.2,0-0.4,0.1-0.6,0.3c-0.2,0.1-0.4,0.3-0.6,0.5v-0.8h-1v9.8h1V42c0.2,0.2,0.4,0.4,0.6,0.5c0.2,0.1,0.4,0.2,0.6,0.3   c0.2,0,0.5,0.1,0.7,0.1c0.3,0,0.7-0.1,0.9-0.2c0.3-0.1,0.5-0.2,0.7-0.4c0.2-0.2,0.4-0.5,0.5-0.8c0.1-0.3,0.2-0.6,0.2-1   C242.3,40.2,242.3,39.8,242.3,39.4L242.3,39.4z M234.5,42.8v-4.3c0-0.4-0.1-0.7-0.2-1.1c-0.1-0.3-0.3-0.6-0.5-0.8   c-0.2-0.2-0.5-0.4-0.8-0.5c-0.3-0.1-0.6-0.2-1-0.2c-0.5,0-0.9,0.1-1.3,0.3c-0.4,0.2-0.7,0.5-1,0.8c-0.2-0.4-0.5-0.7-0.8-0.8   c-0.4-0.2-0.8-0.3-1.2-0.3c-0.4,0-0.7,0.1-1.1,0.2c-0.3,0.1-0.6,0.3-0.9,0.6v-0.7h-1v6.8h1v-4.2c0-0.4,0.1-0.7,0.2-1   c0.1-0.3,0.3-0.5,0.6-0.6c0.3-0.1,0.5-0.2,0.9-0.2c0.3,0,0.6,0.1,0.9,0.2c0.2,0.1,0.4,0.3,0.6,0.6c0.1,0.3,0.2,0.6,0.2,1v4.2h1   v-4.3c0-0.4,0.1-0.7,0.2-0.9c0.1-0.3,0.3-0.4,0.6-0.6c0.3-0.1,0.5-0.2,0.9-0.2c0.3,0,0.6,0.1,0.9,0.2c0.2,0.1,0.4,0.3,0.6,0.6   c0.1,0.3,0.2,0.6,0.2,1v4.2H234.5L234.5,42.8z M223.5,36.1h-1.1l-1.8,5.4l-1.9-5.4h-1.1l2.4,6.6l-0.5,1.3c-0.1,0.2-0.1,0.4-0.2,0.5   c-0.1,0.1-0.2,0.2-0.3,0.3c-0.1,0.1-0.3,0.1-0.5,0.1h-0.3v0.9h0.4c0.2,0,0.5,0,0.7-0.1c0.2-0.1,0.4-0.2,0.6-0.4   c0.1-0.1,0.2-0.2,0.3-0.3c0.1-0.1,0.2-0.3,0.2-0.5L223.5,36.1L223.5,36.1z M216.8,40.8c0-0.4-0.1-0.8-0.3-1   c-0.2-0.3-0.4-0.4-0.7-0.6c-0.3-0.1-0.6-0.2-1-0.2l-1.1-0.1c-0.3,0-0.5-0.1-0.7-0.2c-0.2-0.1-0.3-0.2-0.4-0.3   c-0.1-0.1-0.1-0.3-0.1-0.5c0-0.3,0.1-0.6,0.4-0.8c0.3-0.2,0.6-0.3,1.1-0.3c0.4,0,0.7,0,1,0.1c0.3,0.1,0.6,0.2,0.8,0.4l0.6-0.6   c-0.3-0.2-0.7-0.4-1.1-0.5c-0.4-0.1-0.9-0.2-1.4-0.2c-0.4,0-0.7,0-1,0.1c-0.3,0.1-0.6,0.2-0.8,0.4c-0.2,0.2-0.4,0.4-0.5,0.6   c-0.1,0.2-0.2,0.5-0.2,0.8c0,0.6,0.2,1,0.5,1.3c0.3,0.3,0.8,0.5,1.5,0.5l1.1,0.1c0.4,0,0.7,0.1,0.9,0.3c0.2,0.2,0.3,0.4,0.3,0.7   c0,0.3-0.1,0.5-0.2,0.7c-0.1,0.2-0.4,0.3-0.6,0.4c-0.3,0.1-0.6,0.1-1,0.1c-0.4,0-0.8-0.1-1.2-0.2c-0.4-0.1-0.7-0.3-0.9-0.6   l-0.7,0.7c0.2,0.2,0.5,0.4,0.8,0.6c0.3,0.1,0.6,0.2,0.9,0.3c0.3,0.1,0.7,0.1,1.1,0.1c0.5,0,1-0.1,1.4-0.2c0.4-0.2,0.7-0.4,1-0.7   C216.7,41.7,216.8,41.3,216.8,40.8L216.8,40.8z"/><polygon class="st0" points="367.9,45.7 367.9,32.8 367.9,32.6 368.1,32.6 369.2,32.6 369.4,32.6 369.4,32.8 369.4,45.7 369.4,46    369.2,46 368.1,46 367.9,46 367.9,45.7  "/><polygon class="st0" points="291.9,45.7 291.9,32.8 291.9,32.6 292.1,32.6 293.2,32.6 293.4,32.6 293.4,32.8 293.4,45.7 293.4,46    293.2,46 292.1,46 291.9,46 291.9,45.7  "/></g></svg>