<?xml version="1.0" encoding="utf-8"?>
<!-- Generator: Adobe Illustrator 19.0.0, SVG Export Plug-In . SVG Version: 6.00 Build 0)  -->
<svg version="1.1" id="Calque_1" xmlns="http://www.w3.org/2000/svg" xmlns:xlink="http://www.w3.org/1999/xlink" x="0px" y="0px"
	 viewBox="0 0 209.8 87.7" style="enable-background:new 0 0 209.8 87.7;" xml:space="preserve">
<style type="text/css">
	.st0{fill-rule:evenodd;clip-rule:evenodd;fill:#D90248;}
	.st1{fill:#A7A7A7;}
	.st2{fill:#FFFFFF;}
	.st3{fill-rule:evenodd;clip-rule:evenodd;fill:#FFFFFF;}
	.st4{fill:#EAEAEA;}
	.st5{fill-rule:evenodd;clip-rule:evenodd;}
</style>
<g>
	<path class="st0" d="M104.9,75.4c-20.8,0-37.7-16.9-37.7-37.7C67.2,16.9,84.1,0,104.9,0c20.8,0,37.7,16.9,37.7,37.7l0,0l-37.8,0
		L104.9,75.4L104.9,75.4z"/>
	<polygon class="st1" points="0,25.3 104.9,25.3 104.9,50.5 0,50.5 0,25.3 	"/>
	<g>
		<path class="st2" d="M18.9,36.6h-4.6v0.1c0.8,0.6,0.8,1.1,0.8,2.1V42c-0.3,0.1-0.6,0.1-0.9,0.1c-3.2,0-4.1-3.1-4.1-5.8
			c0-2.7,1.2-4.7,4.1-4.7c1.1,0,2.5,0.5,3.2,1.2h0.1v-3.1c-1.1-0.3-2.3-0.4-3.4-0.4c-4.5,0-8.2,2.9-8.2,7.6c0,4.9,3.7,7.5,8.3,7.5
			c1.6,0,3.2-0.3,4.7-0.7V36.6L18.9,36.6z"/>
		<path class="st3" d="M29.2,33.7L29.2,33.7c-0.5,0.2-1,0.3-1.5,0.3h-3.1v0.1c0.8,0.7,0.7,1.3,0.7,2.3v5.3c0,1,0.1,1.7-0.7,2.3v0.1
			h5.3V44c-0.8-0.7-0.7-1.3-0.7-2.3v-3.3c0-0.5-0.1-0.9,0.3-1.3c0.5-0.5,1.1-0.7,1.7-0.7c0.4,0,0.8,0.1,1.1,0.2v-2.7l-0.8-0.1
			c-1.1,0-2,0.5-2.4,1.6V33.7L29.2,33.7z"/>
		<path class="st3" d="M42.3,44.4c3.3,0,5.8-2,5.8-5.5c0-1.5-0.7-3-1.8-4c-1.1-0.9-2.4-1.3-3.8-1.3c-3.3,0-5.7,2.1-5.7,5.4
			C36.7,42.4,39.1,44.4,42.3,44.4L42.3,44.4z M42.5,42.3c-1.9,0-2.1-2.3-2.1-3.8c0-1.3,0.4-2.7,1.9-2.7c1.8,0,2.1,2.2,2.1,3.6
			C44.4,40.7,44.2,42.3,42.5,42.3L42.5,42.3z"/>
		<path class="st3" d="M58,33.7L58,33.7c-0.5,0.3-1,0.3-1.5,0.3h-3v0.1c0.8,0.7,0.8,1.3,0.8,2.3v4.3c0,1.1,0,2.1,0.9,2.9
			c0.7,0.6,1.6,0.8,2.5,0.8c1.3,0,2.3-0.5,3-1.4v1.2h4.5V44c-0.8-0.7-0.7-1.3-0.7-2.3v-8h-0.1c-0.4,0.3-0.9,0.3-1.5,0.3h-3v0.1
			c0.8,0.7,0.8,1.3,0.8,2.3V40c0,0.6,0,1.1-0.3,1.7c-0.2,0.3-0.6,0.5-1,0.5c-1.4,0-1.2-1.8-1.2-2.8V33.7L58,33.7z"/>
		<path class="st3" d="M74.6,33.7L74.6,33.7c-0.5,0.3-1,0.3-1.6,0.3h-3v0.1c0.8,0.7,0.7,1.3,0.7,2.3v9.8c0,1,0.1,1.7-0.7,2.3v0.1
			h5.3v-0.1c-0.8-0.7-0.7-1.3-0.8-2.3v-7.7c0-1.2,0-2.6,1.6-2.6c1.6,0,1.8,2.1,1.8,3.2c0,1.6-0.3,3.2-2.2,3.2c-0.2,0-0.5,0-0.7-0.1
			l0.8,2l0.9,0.1c1.6,0,2.9-0.4,4-1.6c0.9-1.1,1.3-2.5,1.3-3.9c0-2.9-1.6-5.2-4.7-5.2c-1.1,0-2.2,0.4-2.8,1.3V33.7L74.6,33.7z"/>
		<path class="st3" d="M98.3,41.2c-1.1,0.6-2.5,1.1-3.7,1.1c-2,0-3.2-1.4-3.2-3.3h6.8c-0.1-3.4-1.7-5.4-5.2-5.4
			c-3.1,0-5.4,2.2-5.4,5.3c0,1.6,0.6,3.3,2,4.3c1.2,0.9,2.9,1.1,4.4,1.1c1.2,0,2.4-0.2,3.4-0.7L98.3,41.2L98.3,41.2z M91.4,37.2
			c0.1-0.9,0.6-1.6,1.6-1.6c1.1,0,1.5,0.7,1.5,1.6H91.4L91.4,37.2z"/>
	</g>
	<polygon class="st4" points="104.9,25.3 209.8,25.3 209.8,50.5 104.9,50.5 104.9,25.3 	"/>
	<g>
		<path d="M119.8,38.1l-3.2-8.4v-0.1h-5.1v0.1c0.6,0.5,0.9,1.2,0.8,2l-1.1,9.2c-0.1,1.2-0.2,2.3-1.1,3.1v0.1h4.3V44
			c-0.6-0.3-1-0.9-1-1.7l0.7-7.6h0.1l2.2,5.8c0.4,1.1,0.7,2,1.7,2.7c0.6,0.4,1.3,0.8,2.1,1l2.9-9.6h0.1l0.8,7.7
			c0.1,0.6-0.3,1.2-0.7,1.6v0.1h5.8V44c-1-0.9-1.1-2.1-1.2-3.3l-1-9.5c-0.1-0.8,0.2-1,0.8-1.5v-0.1h-5.2v0.1L119.8,38.1L119.8,38.1z
			"/>
		<path class="st5" d="M139,33.7L139,33.7c-0.5,0.3-1,0.3-1.5,0.3h-3v0.1c0.8,0.7,0.8,1.3,0.8,2.3v4.3c0,1.1,0,2.1,0.9,2.9
			c0.7,0.6,1.6,0.8,2.5,0.8c1.3,0,2.3-0.5,3-1.4v1.2h4.5V44c-0.8-0.7-0.7-1.3-0.7-2.3v-8h-0.1c-0.4,0.3-0.9,0.3-1.5,0.3h-3v0.1
			c0.8,0.7,0.8,1.3,0.8,2.3V40c0,0.6,0,1.1-0.3,1.7c-0.2,0.3-0.6,0.5-1,0.5c-1.4,0-1.2-1.8-1.2-2.8V33.7L139,33.7z"/>
		<path d="M152,40.7c0,1,0,2.1,0.8,2.8c0.7,0.6,1.8,0.9,2.7,0.9c0.6,0,1.2-0.1,1.7-0.2l1-1.9c-0.6,0-1.2,0-1.8-0.4
			c-0.7-0.5-0.7-1-0.7-1.8V36h0.5c0.9,0,1.2,0,1.8,0.6h0.1V34h-2.4v-3.1h-1.5c-0.2,1.8-1.7,3.5-3.6,3.6V36h1.3V40.7L152,40.7z"/>
		<path class="st5" d="M167.7,33.7L167.7,33.7c-0.5,0.3-1,0.3-1.5,0.3h-3v0.1c0.8,0.7,0.8,1.3,0.8,2.3v4.3c0,1.1,0,2.1,0.9,2.9
			c0.7,0.6,1.6,0.8,2.5,0.8c1.3,0,2.3-0.5,3-1.4v1.2h4.5V44c-0.8-0.7-0.7-1.3-0.7-2.3v-8H174c-0.4,0.3-0.9,0.3-1.5,0.3h-3v0.1
			c0.8,0.7,0.8,1.3,0.8,2.3V40c0,0.6,0,1.1-0.3,1.7c-0.2,0.3-0.6,0.5-1,0.5c-1.4,0-1.2-1.8-1.2-2.8V33.7L167.7,33.7z"/>
		<path class="st5" d="M190.8,41.2c-1.1,0.6-2.5,1.1-3.7,1.1c-2,0-3.2-1.4-3.2-3.3h6.8c-0.1-3.4-1.7-5.4-5.2-5.4
			c-3.1,0-5.4,2.2-5.4,5.3c0,1.6,0.6,3.3,2,4.3c1.2,0.9,2.9,1.1,4.4,1.1c1.2,0,2.4-0.2,3.4-0.7L190.8,41.2L190.8,41.2z M183.9,37.2
			c0.1-0.9,0.6-1.6,1.6-1.6c1.1,0,1.5,0.7,1.5,1.6H183.9L183.9,37.2z"/>
		<path d="M196.3,29.7L196.3,29.7c0.8,0.8,0.7,1.3,0.7,2.4v9.6c0,1,0.1,1.6-0.7,2.3v0.1h5.3V44c-0.8-0.7-0.7-1.3-0.7-2.3V29.3h-0.1
			c-0.6,0.2-1.2,0.4-2,0.4H196.3L196.3,29.7z"/>
	</g>
	<g>
		<path class="st5" d="M109.2,87.6h0.8l0.9-2.3h3.4l0.9,2.3h0.8l-2.9-7.5h-0.8L109.2,87.6L109.2,87.6z M112.6,80.8l1.5,3.9h-3
			L112.6,80.8L112.6,80.8z"/>
		<path d="M122.7,83.7c0-1.2-0.9-1.8-2-1.8c-1,0-2,0.4-2,1.5c0,0.9,0.7,1.2,1.5,1.5l0.9,0.2c0.6,0.1,1.2,0.4,1.2,1
			c0,0.8-0.9,1-1.5,1c-0.9,0-1.5-0.5-1.6-1.4h-0.7c0.1,1.3,1,1.9,2.2,1.9c1,0,2.2-0.5,2.2-1.6c0-0.9-0.8-1.4-1.5-1.5l-0.9-0.2
			c-0.5-0.1-1.1-0.3-1.1-0.9c0-0.7,0.7-0.9,1.3-0.9c0.8,0,1.4,0.4,1.4,1.2H122.7L122.7,83.7z"/>
		<path d="M129.9,83.7c0-1.2-0.9-1.8-2-1.8c-1,0-2,0.4-2,1.5c0,0.9,0.7,1.2,1.5,1.5l0.9,0.2c0.6,0.1,1.2,0.4,1.2,1
			c0,0.8-0.9,1-1.5,1c-0.9,0-1.6-0.5-1.6-1.4h-0.7c0.1,1.3,1,1.9,2.2,1.9c1,0,2.2-0.5,2.2-1.6c0-0.9-0.8-1.4-1.5-1.5l-0.9-0.2
			c-0.5-0.1-1.1-0.3-1.1-0.9c0-0.7,0.7-0.9,1.3-0.9c0.8,0,1.4,0.4,1.4,1.2H129.9L129.9,83.7z"/>
		<path class="st5" d="M133.2,87.6h0.7v-5.4h-0.7V87.6L133.2,87.6z M133.2,81.1h0.7v-1.1h-0.7V81.1L133.2,81.1z"/>
		<path d="M141.8,83.9c-0.1-1.2-1-1.9-2.2-1.9c-1.7,0-2.6,1.3-2.6,2.9c0,1.6,0.9,2.9,2.6,2.9c1.2,0,2.1-0.8,2.2-2.1h-0.7
			c-0.1,0.9-0.8,1.6-1.6,1.6c-1.3,0-1.9-1.2-1.9-2.3c0-1.2,0.6-2.3,1.9-2.3c0.9,0,1.4,0.5,1.5,1.3H141.8L141.8,83.9z"/>
		<path d="M149.4,82.1h-0.7V85c0,1.1-0.5,2.2-1.6,2.2c-1.1,0-1.4-0.5-1.5-1.5v-3.5h-0.7v3.5c0,1.3,0.5,2.1,1.9,2.1
			c0.8,0,1.5-0.4,1.9-1.1h0v1h0.6V82.1L149.4,82.1z"/>
		<path d="M152.8,87.6h0.7v-2.9c0-1.1,0.8-2,2-1.9v-0.7c-1,0-1.7,0.5-2.1,1.3h0v-1.3h-0.6V87.6L152.8,87.6z"/>
		<path class="st5" d="M161.7,85.5c0,1.1-0.9,1.7-1.9,1.7c-0.6,0-1.2-0.4-1.2-1.1c0-1.1,1.4-1.1,2.5-1.3c0.2,0,0.5-0.1,0.6-0.2h0
			V85.5L161.7,85.5z M158.9,83.8c0-0.9,0.6-1.3,1.5-1.3c0.8,0,1.4,0.2,1.4,1.1c0,0.6-0.3,0.7-0.9,0.7c-1.4,0.2-2.9,0.2-2.9,1.8
			c0,1.1,0.8,1.6,1.8,1.6c1,0,1.5-0.4,2-1.1h0c0,0.6,0.1,0.9,0.8,0.9c0.2,0,0.3,0,0.4,0V87c-0.1,0-0.1,0-0.2,0
			c-0.3,0-0.4-0.1-0.4-0.4v-2.9c0-1.5-1-1.8-2-1.8c-1.2,0-2.1,0.5-2.2,1.8H158.9L158.9,83.8z"/>
		<polygon points="169.8,82.6 169.8,82.1 165.7,82.1 165.7,82.7 169,82.7 165.4,87 165.4,87.6 170,87.6 170,87 166.2,87 169.8,82.6 
					"/>
		<path class="st5" d="M172.9,87.6h0.7v-5.4h-0.7V87.6L172.9,87.6z M172.9,81.1h0.7v-1.1h-0.7V81.1L172.9,81.1z"/>
		<path class="st5" d="M179.3,82c-1.7,0-2.6,1.3-2.6,2.9c0,1.6,0.9,2.9,2.6,2.9c1.7,0,2.6-1.3,2.6-2.9C181.9,83.3,181,82,179.3,82
			L179.3,82z M179.3,82.5c1.3,0,1.9,1.2,1.9,2.3c0,1.2-0.6,2.3-1.9,2.3c-1.3,0-1.9-1.2-1.9-2.3C177.4,83.7,178,82.5,179.3,82.5
			L179.3,82.5z"/>
		<path d="M185,87.6h0.7v-3.2c0-1.1,0.7-1.9,1.7-1.9c1.1,0,1.4,0.7,1.4,1.6v3.4h0.7v-3.5c0-1.3-0.5-2.1-2-2.1
			c-0.8,0-1.5,0.4-1.7,1.1h0v-0.9H185V87.6L185,87.6z"/>
		<path class="st5" d="M192.9,87.6h0.7v-5.4h-0.7V87.6L192.9,87.6z M192.9,81.1h0.7v-1.1h-0.7V81.1L192.9,81.1z"/>
		<polygon points="112,77 112.9,77 115.7,69.4 114.9,69.4 112.5,76.2 112.5,76.2 110,69.4 109.2,69.4 112,77 		"/>
		<path class="st5" d="M122.4,74.4c0.1-1.5-0.6-3.1-2.4-3.1c-1.7,0-2.5,1.4-2.5,2.9c0,1.5,0.7,2.9,2.5,2.9c1.4,0,2.1-0.7,2.4-1.9
			h-0.7c-0.2,0.8-0.7,1.4-1.7,1.4c-1.3,0-1.8-1.2-1.8-2.1H122.4L122.4,74.4z M118.2,73.9c0.1-1,0.7-1.9,1.8-1.9
			c1.1,0,1.7,0.9,1.7,1.9H118.2L118.2,73.9z"/>
		<path d="M125.4,77h0.7v-2.9c0-1.1,0.8-2,2-2v-0.7c-1,0-1.7,0.5-2.1,1.3h0v-1.3h-0.6V77L125.4,77z"/>
		<path d="M134.8,73.1c0-1.2-0.9-1.8-2-1.8c-1,0-2,0.4-2,1.5c0,0.9,0.7,1.2,1.5,1.5l0.9,0.2c0.6,0.1,1.2,0.4,1.2,1
			c0,0.8-0.9,1-1.5,1c-0.9,0-1.5-0.5-1.6-1.4h-0.7c0.1,1.3,1,1.9,2.2,1.9c1,0,2.2-0.5,2.2-1.6c0-0.9-0.8-1.4-1.5-1.5l-0.9-0.2
			c-0.5-0.1-1.1-0.3-1.1-0.9c0-0.7,0.7-0.9,1.3-0.9c0.8,0,1.4,0.4,1.4,1.2H134.8L134.8,73.1z"/>
		<path class="st5" d="M138.1,77h0.7v-5.4h-0.7V77L138.1,77z M138.1,70.5h0.7v-1.1h-0.7V70.5L138.1,70.5z"/>
		<path d="M146.7,73.2c-0.1-1.2-1-1.9-2.2-1.9c-1.7,0-2.6,1.3-2.6,2.9c0,1.6,0.9,2.9,2.6,2.9c1.2,0,2.1-0.8,2.2-2.1h-0.7
			c-0.1,0.9-0.8,1.5-1.6,1.5c-1.3,0-1.9-1.2-1.9-2.3c0-1.2,0.6-2.3,1.9-2.3c0.9,0,1.4,0.5,1.5,1.3H146.7L146.7,73.2z"/>
		<path d="M149.8,77h0.7v-3.2c0-1.1,0.7-1.9,1.7-1.9c1.1,0,1.4,0.7,1.4,1.6V77h0.7v-3.5c0-1.3-0.5-2.1-2-2.1c-0.8,0-1.5,0.4-1.7,1.1
			h0v-3h-0.7V77L149.8,77z"/>
		<path class="st5" d="M162.3,74.4c0.1-1.5-0.6-3.1-2.4-3.1c-1.7,0-2.5,1.4-2.5,2.9c0,1.5,0.7,2.9,2.5,2.9c1.4,0,2.1-0.7,2.4-1.9
			h-0.7c-0.2,0.8-0.7,1.4-1.7,1.4c-1.3,0-1.8-1.2-1.8-2.1H162.3L162.3,74.4z M158.1,73.9c0.1-1,0.7-1.9,1.8-1.9
			c1.1,0,1.7,0.9,1.7,1.9H158.1L158.1,73.9z"/>
		<path d="M165.3,77h0.7v-2.9c0-1.1,0.8-2,2-2v-0.7c-1,0-1.7,0.5-2.1,1.3h0v-1.3h-0.6V77L165.3,77z"/>
		<path d="M175.2,71.5h-0.7v2.9c0,1.1-0.5,2.2-1.6,2.2c-1.1,0-1.4-0.5-1.5-1.5v-3.5h-0.7V75c0,1.3,0.5,2.1,1.9,2.1
			c0.8,0,1.5-0.4,1.9-1.1h0v1h0.6V71.5L175.2,71.5z"/>
		<path d="M178.6,77h0.7v-3.2c0-1.1,0.7-1.9,1.7-1.9c1.1,0,1.4,0.7,1.4,1.6V77h0.7v-3.5c0-1.3-0.5-2.1-2-2.1c-0.8,0-1.5,0.4-1.7,1.1
			h0v-0.9h-0.7V77L178.6,77z"/>
		<path class="st5" d="M188.6,76.3c-1.2,0-1.8-1.1-1.8-2.2c0-1.1,0.5-2.3,1.8-2.3c1.3,0,1.8,1.2,1.8,2.3
			C190.4,75.3,189.8,76.3,188.6,76.3L188.6,76.3z M191,71.5h-0.7v0.9h0c-0.3-0.6-0.9-1.1-1.7-1.1c-1.6,0-2.5,1.2-2.5,2.7
			c0,1.5,0.7,2.8,2.5,2.8c0.8,0,1.4-0.5,1.7-1.1h0v0.7c0,1.3-0.5,2.1-1.8,2.1c-0.7,0-1.4-0.3-1.6-1.1h-0.7c0.1,1.2,1.2,1.6,2.3,1.6
			c1.8,0,2.4-1,2.4-2.6V71.5L191,71.5z"/>
		<path class="st5" d="M199,74.4c0.1-1.5-0.6-3.1-2.4-3.1c-1.7,0-2.5,1.4-2.5,2.9c0,1.5,0.7,2.9,2.5,2.9c1.4,0,2.1-0.7,2.4-1.9h-0.7
			c-0.2,0.8-0.7,1.4-1.7,1.4c-1.3,0-1.8-1.2-1.8-2.1H199L199,74.4z M194.9,73.9c0.1-1,0.7-1.9,1.8-1.9c1.1,0,1.7,0.9,1.7,1.9H194.9
			L194.9,73.9z"/>
		<path d="M202.1,77h0.7v-3.2c0-1.1,0.7-1.9,1.7-1.9c1.1,0,1.4,0.7,1.4,1.6V77h0.7v-3.5c0-1.3-0.5-2.1-2-2.1c-0.8,0-1.5,0.4-1.7,1.1
			h0v-0.9h-0.7V77L202.1,77z"/>
		<path class="st5" d="M109.2,66.3h0.8l0.9-2.3h3.4l0.9,2.3h0.8l-2.9-7.5h-0.8L109.2,66.3L109.2,66.3z M112.6,59.5l1.5,3.9h-3
			L112.6,59.5L112.6,59.5z"/>
		<path d="M122.7,62.5c0-1.2-0.9-1.7-2-1.7c-1,0-2,0.4-2,1.5c0,0.9,0.7,1.2,1.5,1.5l0.9,0.2c0.6,0.1,1.2,0.4,1.2,1
			c0,0.8-0.9,1-1.5,1c-0.9,0-1.5-0.5-1.6-1.4h-0.7c0.1,1.3,1,1.9,2.2,1.9c1,0,2.2-0.5,2.2-1.6c0-0.9-0.8-1.4-1.5-1.5l-0.9-0.2
			c-0.5-0.1-1.1-0.3-1.1-0.9c0-0.7,0.7-0.9,1.3-0.9c0.8,0,1.4,0.4,1.4,1.2H122.7L122.7,62.5z"/>
		<path d="M129.9,62.5c0-1.2-0.9-1.7-2-1.7c-1,0-2,0.4-2,1.5c0,0.9,0.7,1.2,1.5,1.5l0.9,0.2c0.6,0.1,1.2,0.4,1.2,1
			c0,0.8-0.9,1-1.5,1c-0.9,0-1.6-0.5-1.6-1.4h-0.7c0.1,1.3,1,1.9,2.2,1.9c1,0,2.2-0.5,2.2-1.6c0-0.9-0.8-1.4-1.5-1.5l-0.9-0.2
			c-0.5-0.1-1.1-0.3-1.1-0.9c0-0.7,0.7-0.9,1.3-0.9c0.8,0,1.4,0.4,1.4,1.2H129.9L129.9,62.5z"/>
		<path d="M137.6,60.9H137v2.9c0,1.1-0.5,2.2-1.6,2.2c-1.1,0-1.4-0.5-1.5-1.5v-3.5h-0.7v3.5c0,1.3,0.5,2.1,1.9,2.1
			c0.8,0,1.5-0.4,1.9-1.1h0v1h0.6V60.9L137.6,60.9z"/>
		<path d="M141.1,66.3h0.7v-2.9c0-1.1,0.8-2,2-1.9v-0.7c-1,0-1.7,0.5-2.1,1.3h0v-1.3h-0.6V66.3L141.1,66.3z"/>
		<path class="st5" d="M150,64.2c0,1.1-0.9,1.7-1.9,1.7c-0.6,0-1.2-0.4-1.2-1.1c0-1.1,1.4-1.1,2.5-1.3c0.2,0,0.5-0.1,0.6-0.2h0V64.2
			L150,64.2z M147.1,62.6c0-0.9,0.6-1.3,1.5-1.3c0.8,0,1.4,0.2,1.4,1.1c0,0.6-0.3,0.7-0.9,0.7c-1.4,0.2-2.9,0.2-2.9,1.7
			c0,1.1,0.8,1.6,1.8,1.6c1,0,1.5-0.4,2-1.1h0c0,0.6,0.1,0.9,0.8,0.9c0.2,0,0.3,0,0.4,0v-0.6c-0.1,0-0.1,0-0.2,0
			c-0.3,0-0.4-0.1-0.4-0.4v-2.9c0-1.5-1-1.7-2-1.7c-1.2,0-2.1,0.5-2.2,1.8H147.1L147.1,62.6z"/>
		<path d="M154.2,66.3h0.7v-3.2c0-1.1,0.7-1.9,1.7-1.9c1.1,0,1.4,0.7,1.4,1.6v3.4h0.7v-3.5c0-1.3-0.5-2.1-2-2.1
			c-0.8,0-1.5,0.4-1.7,1.1h0v-0.9h-0.7V66.3L154.2,66.3z"/>
		<path d="M166.5,62.6c-0.1-1.2-1-1.9-2.2-1.9c-1.7,0-2.6,1.3-2.6,2.9c0,1.6,0.9,2.9,2.6,2.9c1.2,0,2.1-0.8,2.2-2.1h-0.7
			c-0.1,0.9-0.8,1.5-1.6,1.5c-1.3,0-1.9-1.2-1.9-2.3c0-1.2,0.6-2.3,1.9-2.3c0.9,0,1.4,0.5,1.5,1.3H166.5L166.5,62.6z"/>
		<path class="st5" d="M174.2,63.8c0.1-1.5-0.6-3.1-2.4-3.1c-1.7,0-2.5,1.4-2.5,2.9c0,1.5,0.7,2.9,2.5,2.9c1.4,0,2.1-0.7,2.4-2h-0.7
			c-0.2,0.8-0.7,1.4-1.7,1.4c-1.3,0-1.8-1.2-1.8-2.1H174.2L174.2,63.8z M170,63.2c0.1-1,0.7-1.9,1.8-1.9c1.1,0,1.7,0.9,1.7,1.9H170
			L170,63.2z"/>
		<path d="M181.2,62.5c0-1.2-0.9-1.7-2-1.7c-1,0-2,0.4-2,1.5c0,0.9,0.7,1.2,1.5,1.5l0.9,0.2c0.6,0.1,1.2,0.4,1.2,1
			c0,0.8-0.9,1-1.5,1c-0.9,0-1.5-0.5-1.6-1.4H177c0.1,1.3,1,1.9,2.2,1.9c1,0,2.2-0.5,2.2-1.6c0-0.9-0.8-1.4-1.5-1.5l-0.9-0.2
			c-0.5-0.1-1.1-0.3-1.1-0.9c0-0.7,0.7-0.9,1.3-0.9c0.8,0,1.4,0.4,1.4,1.2H181.2L181.2,62.5z"/>
	</g>
</g>
</svg>
