<svg id="Ebene_1" data-name="Ebene 1" xmlns="http://www.w3.org/2000/svg" xmlns:xlink="http://www.w3.org/1999/xlink" viewBox="0 0 123.96 56.31"><defs><style>.cls-1{fill:none;}.cls-2{clip-path:url(#clip-path);}.cls-3{fill:#fff;}.cls-4{clip-path:url(#clip-path-2);}</style><clipPath id="clip-path" transform="translate(-15.81 -28.69)"><rect class="cls-1" x="15.82" y="28.69" width="123.95" height="56.31"/></clipPath><clipPath id="clip-path-2" transform="translate(-15.81 -28.69)"><rect class="cls-1" x="15.81" y="28.69" width="123.96" height="56.31"/></clipPath></defs><title>KLuG Logo_weiss</title><g class="cls-2"><path class="cls-3" d="M42.3,29a1.76,1.76,0,0,0-2.46.45L19.36,58.22V30.46a1.75,1.75,0,0,0-1.82-1.73,1.73,1.73,0,0,0-1.73,1.73v52.8A1.73,1.73,0,0,0,17.54,85a1.75,1.75,0,0,0,1.82-1.73v-19l6.46-9L39.66,84a1.72,1.72,0,0,0,2.37.82,1.77,1.77,0,0,0,.82-2.27L28.1,51.94,42.67,31.46A1.85,1.85,0,0,0,42.3,29" transform="translate(-15.81 -28.69)"/><path class="cls-3" d="M53.15,84.63H71.36a1.73,1.73,0,0,0,0-3.46H54.88V30.46a1.73,1.73,0,0,0-1.73-1.73,1.75,1.75,0,0,0-1.82,1.73V82.9a1.75,1.75,0,0,0,1.82,1.73" transform="translate(-15.81 -28.69)"/><path class="cls-3" d="M114.47,72.34a12.65,12.65,0,0,0,25.31,0V57.77A1.67,1.67,0,0,0,138,56h-9.11a1.73,1.73,0,0,0,0,3.46h7.37V72.34a9.19,9.19,0,1,1-18.39,0v-31a9.23,9.23,0,0,1,17.21-4.55,1.76,1.76,0,0,0,2.37.64,1.87,1.87,0,0,0,.64-2.46,12.71,12.71,0,0,0-23.67,6.37v31Z" transform="translate(-15.81 -28.69)"/></g><g class="cls-4"><path class="cls-3" d="M101.06,70.31v2a9.15,9.15,0,1,1-18.3,0v-2H79.21v2a12.7,12.7,0,0,0,25.4,0v-2h-3.55Z" transform="translate(-15.81 -28.69)"/></g></svg>