<?xml version="1.0" encoding="utf-8"?>
<!-- Generator: Adobe Illustrator 22.1.0, SVG Export Plug-In . SVG Version: 6.00 Build 0)  -->
<svg version="1.1" id="LOGO" xmlns="http://www.w3.org/2000/svg" xmlns:xlink="http://www.w3.org/1999/xlink" x="0px" y="0px"
	 viewBox="0 0 308.4 66" style="enable-background:new 0 0 308.4 66;" xml:space="preserve">
<style type="text/css">
	.st0{fill:#A0B914;}
	.st1{fill:#41A0C8;}
</style>
<g>
	<g>
		<g>
			<path class="st0" d="M302.2,26.6h-21c0.4-6.2,4-11.8,10.7-11.8C300.1,14.8,302.2,20.3,302.2,26.6 M291.8,9.3
				c-10,0-17.5,7.5-17.5,20.8c0,14.2,6.8,20.4,18.2,20.4c4,0,8.4-0.6,12-2.8c0.7-0.3,0.8-0.7,0.4-1.5l-1.6-3.2
				c-0.4-0.7-0.7-0.8-1.4-0.4c-2.1,1.1-5.6,2.1-8.9,2.1c-6.6,0-12-3.5-12-13h21.7c3,0,5.7-1.1,5.7-5.9
				C308.4,16.1,303.3,9.3,291.8,9.3 M250.4,15.4v24.9c0,7,2.7,10.3,10.6,10.3c1.4,0,5.1-0.1,8.1-1.1c0.9-0.3,0.7-0.7,0.6-1.3
				l-0.7-3.4c-0.1-0.5-0.2-0.7-1.1-0.6c-1.7,0.2-4.6,0.5-5.8,0.5c-3.6,0-5.1-1.5-5.1-5V15.4h8.4c0.9,0,1.1-0.3,1.1-1.1v-3
				c0-0.7-0.1-1.1-1.1-1.1H257V1c0-1-0.4-1.1-1.1-1L253.4,1c-0.9,0.4-1.2,0.5-1.4,1.5l-0.9,5.4c0,0-0.1,0.6-0.1,0.8
				c0,0.3-0.1,1-0.1,1s-0.4,0.1-0.8,0.1c-0.4,0.1-1,0.2-1,0.2l-4.2,0.8c-0.8,0.2-1.1,0.5-1.1,1.3v2.2c0,0.6,0.1,1.1,1.1,1.1
				C244.9,15.4,250.4,15.4,250.4,15.4z M230.6,43.7c-3.2,1.2-7.7,1.4-9.5,1.4c-5.4,0-9.6-1.6-9.6-7.1c0-7.2,6.6-7.8,10.3-7.8h8.8
				L230.6,43.7L230.6,43.7z M237.3,46.1V22.5c0-8.4-4.6-13.1-14.5-13.1c-4.1,0-9.6,0.6-13.4,2.2c-0.7,0.3-0.9,0.7-0.7,1.3l0.9,3.2
				c0.2,0.8,0.7,0.8,1.5,0.5c2.5-0.7,7-1.5,10.5-1.5c7.5,0,9,3.2,9,7.9v1.7h-9.2c-12,0-16.5,6.5-16.5,13.4c0,6.6,3.3,12.5,16.3,12.5
				c4.8,0,10.5-0.6,15-2.6C236.9,47.7,237.3,47.1,237.3,46.1 M180.4,9.4c-12.7,0-18.4,8.8-18.4,21.1c0,11.8,5.2,20.1,17.1,20.1
				c2.1,0,6.2-0.3,10.1-2v0.7c0,3.9-1.3,6.3-3.7,8.3c-2.9,2.3-8.1,2.4-9.7,2.5c-0.7,0-0.9,0.4-0.9,1c0.2,1.8,0.6,3.9,0.6,3.9
				c0.1,0.7,0.4,0.9,1.4,1c1.2,0,8.5,0,12.7-3.4c4.5-3.7,6.3-8.2,6.3-15.9V13.3c0-0.7-0.2-1.1-0.9-1.4C190.6,10,185.2,9.4,180.4,9.4
				 M189.4,43.4c-3.8,1.2-7.7,1.5-9.6,1.5c-7,0-11.1-5-11.1-14.9c0-10.8,4.8-15,11.9-15.1c2.3,0,5.8,0.3,8.8,1.3L189.4,43.4
				L189.4,43.4z"/>
			<path class="st1" d="M146.4,43.7c-3.2,1.2-7.7,1.4-9.5,1.4c-5.4,0-9.6-1.6-9.6-7.1c0-7.2,6.6-7.8,10.3-7.8h8.8L146.4,43.7
				L146.4,43.7z M153.1,46.1V22.5c0-8.4-4.6-13.1-14.5-13.1c-4.1,0-9.6,0.6-13.4,2.2c-0.7,0.3-0.8,0.7-0.7,1.3l0.9,3.2
				c0.2,0.8,0.7,0.8,1.5,0.5c2.5-0.7,7-1.5,10.5-1.5c7.5,0,9,3.2,9,7.9v1.7h-9.2c-12,0-16.5,6.5-16.5,13.4c0,6.6,3.3,12.5,16.3,12.5
				c4.8,0,10.5-0.6,15-2.6C152.7,47.7,153.1,47.1,153.1,46.1 M112,48.6V28.4c0-13.6-5.4-19.1-18.4-19.1c-2.5,0-7.3,0.3-9.6,0.7
				c-3.6,0.5-4.8,2.3-4.8,5.7v32.9c0,1,0.4,1.1,1.2,1.1h4.1c0.8,0,1.2-0.1,1.2-1.1V15.8c3.3-0.5,6.1-0.6,7.2-0.6
				c9.8,0,12.3,4.5,12.3,13.5v20c0,1,0.4,1.1,1.2,1.1h4.1C111.7,49.8,112,49.6,112,48.6 M62.9,43.7c-3.2,1.2-7.7,1.4-9.5,1.4
				c-5.4,0-9.6-1.6-9.6-7.1c0-7.2,6.6-7.8,10.3-7.8h8.8L62.9,43.7L62.9,43.7z M69.6,46.1V22.5c0-8.4-4.6-13.1-14.5-13.1
				c-4.1,0-9.6,0.6-13.4,2.2c-0.7,0.3-0.8,0.7-0.7,1.3l0.9,3.2c0.2,0.8,0.7,0.8,1.5,0.5c2.5-0.7,7-1.5,10.5-1.5c7.5,0,9,3.2,9,7.9
				v1.7h-9.2c-12,0-16.5,6.5-16.5,13.4c0,6.6,3.3,12.5,16.3,12.5c4.8,0,10.5-0.6,15-2.6C69.3,47.7,69.6,47.1,69.6,46.1 M29.6,39
				c0-7.1-6.1-9.7-12.3-12.1c-6.5-2.4-9-3.8-9-7.2c0-2.7,2.4-4.9,6.9-4.9c3.4,0,6.1,0.4,10.1,1.9c0.4,0.2,0.8,0.3,1.1-0.3l1.4-3.5
				c0.1-0.5,0-1.1-0.6-1.4c-3.9-1.6-7.8-2.2-11.9-2.2c-8.8,0-13.5,4.5-13.5,10.8c0,6,3.6,8.6,12.1,11.6c5.9,2.1,9.3,3.8,9.3,7.6
				c0,3.6-3,5.6-7.9,5.6c-3.6,0-8.1-0.8-12.1-2.7c-1-0.4-1.4-0.1-1.7,0.6L0.2,46c-0.4,0.8-0.1,1.3,0.5,1.6c4.1,2.2,10,3,14.7,3
				C23.3,50.6,29.6,46.8,29.6,39"/>
		</g>
	</g>
</g>
</svg>
