<svg xmlns="http://www.w3.org/2000/svg" viewBox="0 0 286.2 69.5"><defs><style>.cls-1{fill:#00795d;}.cls-2{fill:#65b32e;}</style></defs><title>Element 1</title><g id="Ebene_2" data-name="Ebene 2"><g id="Schriftzug_D"><path class="cls-1" d="M154.1,0a8.24,8.24,0,0,0-8.2,8.5,8.32,8.32,0,0,0,8.4,8.4,8.41,8.41,0,0,0,8.5-8.4A8.67,8.67,0,0,0,154.1,0"/><path class="cls-1" d="M25.9,41.1l-5.4-2c-3.7-1.4-6-2.2-6-4.4,0-1.9,1.6-2.8,4.6-2.8,4,0,10.1,1.3,13.7,2.1l1.8-10.6A82.25,82.25,0,0,0,16.8,21C7.3,21,0,26.4,0,35.9c0,7.7,4.4,10.9,12.1,13.7l4.6,1.7c4.1,1.5,5.3,2,5.3,4.1,0,2.5-2.9,2.9-5.4,2.9-4.4,0-10.4-1.4-14.1-2l-2,11a89,89,0,0,0,17.4,2.1c12.5,0,18.8-5.5,18.8-14.2-.1-5.5-2.1-10.9-10.8-14.1"/><path class="cls-1" d="M64.3,21.3a94,94,0,0,0-19.5,2.1l1.8,10.5a75.71,75.71,0,0,1,12.9-1.6c6.4,0,7.7,1.7,7.7,5.9v1.7c-2.5-.1-4.8-.3-7.5-.3-10.3,0-18.4,5.8-18.4,16.2,0,9.7,6.6,13.6,13.8,13.6,5.4,0,9.5-2.8,12.9-5.2l1.3,4.6H82.1V39.7c0-14.3-8.1-18.4-17.8-18.4m2.8,34.6a12.9,12.9,0,0,1-7.2,2.4c-2.6,0-4.8-1.1-4.8-3.8,0-4.6,3.8-5.2,7.4-5.2,1.5,0,2.9.1,4.6.2Z"/><polygon class="cls-1" points="141.2 32.7 147 32.7 147 68.8 162.2 68.8 162.2 21.9 141.2 21.9 141.2 32.7"/><path class="cls-1" d="M121.2,21.1c-7.7,0-13,3.7-16.8,6.4L103,21.9H91V68.8h15.1V38.4a12.88,12.88,0,0,1,8.2-3.6c2.9,0,4.9.9,4.9,5.4V68.8h15.1V37.2c.1-11.5-4.8-16.1-13.1-16.1"/><path class="cls-2" d="M224.8,21.3a94,94,0,0,0-19.5,2.1l1.8,10.5A75.71,75.71,0,0,1,220,32.3c6.4,0,7.7,1.7,7.7,5.9v1.7c-2.4-.1-4.8-.3-7.5-.3-10.3,0-18.3,5.8-18.3,16.2,0,9.6,6.6,13.5,13.8,13.5,5.4,0,9.5-2.8,12.9-5.2l1.3,4.6h12.7v-29c0-14.3-8.1-18.4-17.8-18.4m2.8,34.6a12.85,12.85,0,0,1-7.1,2.4c-2.7,0-4.8-1.1-4.8-3.8,0-4.6,3.8-5.2,7.4-5.2,1.5,0,2.9.1,4.6.2v6.4Z"/><path class="cls-2" d="M275.3,41.1l-5.4-2c-3.7-1.4-6-2.2-6-4.4,0-1.9,1.6-2.8,4.6-2.8,4,0,10.1,1.3,13.7,2.1L284,23.5a82.25,82.25,0,0,0-17.8-2.4c-9.5,0-16.8,5.4-16.8,14.9,0,7.7,4.4,10.9,12.1,13.7l4.6,1.7c4.1,1.5,5.3,2,5.3,4.1,0,2.5-2.9,2.9-5.4,2.9-4.4,0-10.4-1.4-14-2l-2,11a89,89,0,0,0,17.4,2.1c12.5,0,18.8-5.5,18.8-14.2-.2-5.6-2.1-11-10.9-14.2"/><path class="cls-2" d="M186.7,53.3V32.7H196V21.9h-9.3V9l-15.2,2V56.9c0,9.3,6.4,12.6,13,12.6A59.23,59.23,0,0,0,196.6,68V57.1a28.92,28.92,0,0,1-5.8.7c-2.7,0-4.1-1.2-4.1-4.5"/></g></g></svg>