<?xml version="1.0" encoding="utf-8"?>
<!-- Generator: Adobe Illustrator 16.0.3, SVG Export Plug-In . SVG Version: 6.00 Build 0)  -->
<!DOCTYPE svg PUBLIC "-//W3C//DTD SVG 1.1//EN" "http://www.w3.org/Graphics/SVG/1.1/DTD/svg11.dtd">
<svg version="1.1" id="Ebene_1" xmlns="http://www.w3.org/2000/svg" xmlns:xlink="http://www.w3.org/1999/xlink" x="0px" y="0px"
	 width="381.312px" height="87.831px" viewBox="50.545 400.125 381.312 87.831"
	 enable-background="new 50.545 400.125 381.312 87.831" xml:space="preserve">
<g>
	<path fill="#00539B" d="M181.87,435.651l-8.184,21.167h-7.714l-8.091-21.167h7.149l4.892,14.582l4.893-14.582H181.87z"/>
	<path fill="#00539B" d="M192.689,432.642h-7.149v-5.174h7.149V432.642z M192.501,456.818h-6.773v-21.167h6.773V456.818z"/>
	<path fill="#00539B" d="M212.351,456.63c-0.753,0.188-1.506,0.376-2.353,0.471c-0.847,0.094-1.787,0.188-3.01,0.188
		c-2.635,0-4.609-0.564-5.927-1.599c-1.317-1.035-1.976-2.916-1.976-5.456v-9.972h-2.822v-4.61h2.822v-6.021h6.773v6.021h6.303v4.61
		h-6.303v7.525c0,0.753,0,1.411,0,1.976s0.094,1.035,0.282,1.505c0.188,0.471,0.47,0.753,0.94,1.035s1.129,0.376,1.976,0.376
		c0.376,0,0.847-0.094,1.411-0.188c0.564-0.188,0.94-0.282,1.223-0.377h0.564v4.516H212.351z"/>
	<path fill="#00539B" d="M229.19,454.561c-0.377,0.282-0.847,0.564-1.317,1.034c-0.564,0.377-1.035,0.659-1.505,0.941
		c-0.658,0.282-1.317,0.564-2.069,0.658c-0.753,0.188-1.506,0.188-2.353,0.188c-1.976,0-3.669-0.659-5.08-1.882
		c-1.316-1.223-2.069-2.822-2.069-4.798c0-1.505,0.376-2.822,1.035-3.763c0.658-0.94,1.693-1.787,2.916-2.352
		s2.822-0.94,4.704-1.223c1.881-0.282,3.763-0.377,5.738-0.564v-0.095c0-1.129-0.471-1.976-1.411-2.445
		c-0.94-0.471-2.352-0.659-4.233-0.659c-1.129,0-2.352,0.188-3.575,0.564c-1.223,0.377-2.163,0.659-2.728,0.941h-0.659v-5.08
		c0.753-0.188,1.882-0.377,3.481-0.659c1.599-0.282,3.198-0.376,4.892-0.376c3.856,0,6.679,0.564,8.372,1.787
		c1.693,1.224,2.54,3.011,2.54,5.551v14.393h-6.679V454.561z M229.19,451.268v-4.421c-0.941,0.094-1.882,0.188-3.011,0.282
		c-1.034,0.094-1.881,0.282-2.445,0.47c-0.659,0.188-1.224,0.564-1.6,0.941c-0.376,0.376-0.564,0.94-0.564,1.599
		c0,0.471,0,0.753,0.094,1.035c0.095,0.282,0.282,0.564,0.564,0.753c0.282,0.282,0.659,0.47,1.035,0.564
		c0.376,0.094,1.035,0.188,1.882,0.188c0.658,0,1.411-0.094,2.069-0.376C228.061,452.114,228.719,451.738,229.19,451.268z"/>
	<path fill="#00539B" d="M273.78,450.139c0,2.164-0.94,3.951-2.916,5.269c-1.976,1.316-4.609,1.976-7.996,1.976
		c-1.882,0-3.574-0.188-5.08-0.564c-1.505-0.377-2.728-0.753-3.669-1.129v-5.551h0.659c0.376,0.282,0.752,0.471,1.223,0.753
		s1.035,0.564,1.882,0.94c0.658,0.282,1.505,0.564,2.352,0.753s1.881,0.282,2.822,0.282c1.316,0,2.352-0.188,2.916-0.471
		c0.658-0.282,0.94-0.752,0.94-1.316c0-0.471-0.188-0.847-0.564-1.129c-0.376-0.188-1.129-0.471-2.163-0.659
		c-0.471-0.094-1.224-0.188-2.07-0.376c-0.846-0.094-1.599-0.282-2.352-0.471c-1.881-0.47-3.387-1.316-4.233-2.352
		c-0.94-1.035-1.411-2.352-1.411-3.951c0-2.069,0.941-3.763,2.917-5.08c1.881-1.316,4.515-2.069,7.901-2.069
		c1.6,0,3.104,0.188,4.516,0.471s2.54,0.658,3.387,1.034v5.362h-0.564c-1.034-0.658-2.163-1.223-3.48-1.693
		c-1.317-0.47-2.634-0.658-3.951-0.658c-1.129,0-1.976,0.188-2.729,0.471c-0.752,0.282-1.129,0.752-1.129,1.316
		c0,0.471,0.188,0.847,0.471,1.129c0.376,0.282,1.129,0.564,2.352,0.753c0.659,0.094,1.411,0.282,2.258,0.376
		c0.753,0.094,1.6,0.282,2.446,0.471c1.787,0.47,3.104,1.223,3.951,2.163C273.31,447.411,273.78,448.634,273.78,450.139z"/>
	<path fill="#00539B" d="M299.367,456.818h-6.772v-2.352c-1.224,0.94-2.446,1.692-3.481,2.163c-1.034,0.471-2.258,0.753-3.763,0.753
		c-2.352,0-4.139-0.659-5.362-1.976c-1.223-1.317-1.881-3.293-1.881-5.927v-13.734h6.772v10.536c0,1.034,0,1.976,0.095,2.634
		c0.094,0.753,0.188,1.317,0.47,1.787c0.282,0.471,0.564,0.847,1.129,1.035c0.471,0.188,1.129,0.282,2.07,0.282
		c0.564,0,1.223-0.094,1.881-0.282c0.659-0.188,1.411-0.564,2.07-0.94V435.84h6.772V456.818L299.367,456.818z"/>
	<path fill="#00539B" d="M321.099,442.143h-0.659c-0.282-0.094-0.752-0.188-1.411-0.188c-0.658-0.095-1.129-0.095-1.599-0.095
		c-0.941,0-1.788,0.095-2.54,0.188c-0.753,0.094-1.506,0.376-2.353,0.658v14.205h-6.772v-21.166h6.772v3.104
		c1.506-1.317,2.822-2.164,3.857-2.54c1.129-0.377,2.069-0.659,3.011-0.659c0.282,0,0.47,0,0.847,0c0.282,0,0.564,0,0.752,0.095
		v6.396H321.099z"/>
	<path fill="#00539B" d="M343.3,450.139c0,2.164-0.941,3.951-2.917,5.269c-1.976,1.316-4.609,1.976-7.996,1.976
		c-1.881,0-3.574-0.188-5.08-0.564c-1.505-0.377-2.728-0.753-3.668-1.129v-5.551h0.658c0.376,0.282,0.752,0.471,1.129,0.753
		c0.47,0.282,1.034,0.564,1.881,0.94c0.659,0.282,1.506,0.564,2.353,0.753s1.881,0.282,2.822,0.282c1.316,0,2.352-0.188,2.916-0.471
		c0.658-0.282,0.94-0.752,0.94-1.316c0-0.471-0.188-0.847-0.564-1.129c-0.376-0.188-1.129-0.471-2.163-0.659
		c-0.471-0.094-1.224-0.188-2.07-0.376c-0.847-0.094-1.599-0.282-2.352-0.471c-1.882-0.47-3.387-1.316-4.233-2.352
		c-0.94-1.035-1.411-2.352-1.411-3.951c0-2.069,0.94-3.763,2.916-5.08c1.882-1.316,4.516-2.069,7.902-2.069
		c1.6,0,3.104,0.188,4.516,0.471s2.54,0.658,3.387,1.034v5.362H341.7c-1.035-0.658-2.164-1.223-3.48-1.693
		c-1.317-0.47-2.634-0.658-3.951-0.658c-1.129,0-1.976,0.188-2.729,0.471c-0.752,0.282-1.129,0.752-1.129,1.316
		c0,0.471,0.188,0.847,0.471,1.129c0.376,0.282,1.129,0.564,2.352,0.753c0.659,0.094,1.411,0.282,2.258,0.376
		c0.753,0.094,1.6,0.282,2.446,0.471c1.787,0.47,3.104,1.223,3.951,2.163C342.829,447.411,343.3,448.634,343.3,450.139z"/>
	<path fill="#00539B" d="M368.606,447.505h-15.522c0.094,1.693,0.753,2.916,1.882,3.763s2.916,1.317,5.174,1.317
		c1.411,0,2.822-0.282,4.139-0.753c1.317-0.47,2.446-1.034,3.199-1.693h0.752v5.456c-1.505,0.659-3.01,1.035-4.327,1.317
		s-2.822,0.376-4.516,0.376c-4.233,0-7.525-0.94-9.783-2.821c-2.258-1.882-3.387-4.61-3.387-8.185c0-3.481,1.034-6.209,3.198-8.278
		c2.164-2.07,5.08-3.104,8.843-3.104c3.48,0,6.021,0.847,7.714,2.634c1.693,1.693,2.635,4.233,2.635,7.525V447.505L368.606,447.505z
		 M361.832,443.554c0-1.411-0.377-2.445-1.035-3.198s-1.693-1.035-3.104-1.035c-1.316,0-2.352,0.377-3.198,1.035
		s-1.317,1.787-1.411,3.292h8.749V443.554z"/>
	<path fill="#00539B" d="M380.176,456.818h-6.773v-29.351h6.773V456.818z"/>
	<path fill="#00539B" d="M407.833,435.651l-8.184,21.167h-7.714l-8.091-21.167h7.149l4.892,14.582l4.893-14.582H407.833z"/>
	<path fill="#00539B" d="M424.485,454.561c-0.376,0.282-0.847,0.564-1.317,1.034c-0.564,0.377-1.034,0.659-1.505,0.941
		c-0.658,0.282-1.317,0.564-2.069,0.658c-0.753,0.188-1.505,0.188-2.352,0.188c-1.976,0-3.669-0.659-5.08-1.882
		c-1.317-1.223-2.07-2.822-2.07-4.798c0-1.505,0.377-2.822,1.035-3.763s1.693-1.787,2.916-2.352c1.224-0.564,2.822-0.94,4.704-1.223
		c1.881-0.282,3.763-0.377,5.738-0.564v-0.095c0-1.129-0.471-1.976-1.411-2.445c-0.94-0.471-2.352-0.659-4.233-0.659
		c-1.129,0-2.352,0.188-3.574,0.564c-1.224,0.377-2.164,0.659-2.729,0.941h-0.658v-5.08c0.752-0.188,1.881-0.377,3.48-0.659
		s3.198-0.376,4.892-0.376c3.857,0,6.68,0.564,8.373,1.787c1.692,1.224,2.54,3.011,2.54,5.551v14.393h-6.68V454.561L424.485,454.561
		z M424.485,451.268v-4.421c-0.94,0.094-1.882,0.188-3.011,0.282c-1.034,0.094-1.881,0.282-2.445,0.47
		c-0.659,0.188-1.223,0.564-1.6,0.941c-0.376,0.376-0.564,0.94-0.564,1.599c0,0.471,0,0.753,0.095,1.035
		c0.094,0.282,0.281,0.564,0.564,0.753c0.281,0.282,0.658,0.47,1.034,0.564c0.376,0.094,1.035,0.188,1.882,0.188
		c0.658,0,1.411-0.094,2.069-0.376C423.356,452.114,423.92,451.738,424.485,451.268z"/>
	<path fill="#00A94F" d="M162.586,465.661h-1.506v-1.317h1.506V465.661z M162.491,474.692h-1.316v-7.715h1.316V474.692z"/>
	<path fill="#00A94F" d="M171.899,474.692h-1.316v-4.422c0-0.376,0-0.658-0.095-1.035c0-0.282-0.094-0.564-0.188-0.752
		c-0.095-0.188-0.282-0.377-0.471-0.471s-0.471-0.188-0.847-0.188s-0.753,0.095-1.129,0.282c-0.376,0.188-0.752,0.377-1.129,0.659
		v5.738h-1.316v-10.725h1.316v3.857c0.377-0.377,0.847-0.564,1.224-0.753c0.47-0.188,0.846-0.282,1.316-0.282
		c0.847,0,1.505,0.282,1.882,0.753c0.47,0.47,0.658,1.223,0.658,2.163v5.175H171.899z"/>
	<path fill="#00A94F" d="M179.613,468.389L179.613,468.389c-0.282,0-0.47-0.094-0.658-0.094c-0.188,0-0.376,0-0.658,0
		c-0.376,0-0.753,0.094-1.129,0.282s-0.753,0.376-1.035,0.658v5.457h-1.316v-7.715h1.316v1.129c0.471-0.376,0.941-0.752,1.411-0.847
		c0.377-0.188,0.753-0.282,1.224-0.282c0.188,0,0.376,0,0.47,0c0.095,0,0.282,0,0.471,0.095v1.316H179.613z"/>
	<path fill="#00A94F" d="M194.195,474.692h-1.693l-3.104-3.387l-0.847,0.847v2.54h-1.317v-10.725h1.317v6.867l3.763-3.857h1.6
		l-3.575,3.575L194.195,474.692z"/>
	<path fill="#00A94F" d="M200.78,468.389L200.78,468.389c-0.282,0-0.471-0.094-0.658-0.094c-0.188,0-0.377,0-0.659,0
		c-0.376,0-0.752,0.094-1.129,0.282c-0.376,0.188-0.752,0.376-1.034,0.658v5.457h-1.317v-7.715h1.317v1.129
		c0.47-0.376,0.94-0.752,1.411-0.847c0.376-0.188,0.752-0.282,1.223-0.282c0.188,0,0.376,0,0.471,0c0.094,0,0.282,0,0.47,0.095
		v1.316H200.78z"/>
	<path fill="#00A94F" d="M208.211,474.692h-1.317v-0.847c-0.094,0.094-0.282,0.188-0.47,0.282c-0.188,0.094-0.377,0.282-0.564,0.376
		c-0.188,0.094-0.471,0.188-0.753,0.282s-0.564,0.094-1.035,0.094c-0.658,0-1.316-0.188-1.787-0.658
		c-0.47-0.471-0.752-1.035-0.752-1.787c0-0.564,0.094-1.035,0.376-1.411c0.282-0.377,0.564-0.659,1.034-0.847
		c0.471-0.188,1.035-0.377,1.693-0.377c0.659-0.094,1.411-0.094,2.164-0.188v-0.188c0-0.282-0.094-0.564-0.188-0.753
		c-0.094-0.188-0.282-0.376-0.47-0.47c-0.188-0.095-0.377-0.188-0.659-0.188s-0.564-0.094-0.847-0.094c-0.376,0-0.752,0-1.129,0.094
		c-0.376,0.094-0.846,0.188-1.316,0.376h-0.094v-1.316c0.282-0.095,0.658-0.188,1.128-0.188c0.471-0.094,0.941-0.094,1.411-0.094
		c0.564,0,1.035,0,1.411,0.094c0.377,0.094,0.753,0.282,1.035,0.471c0.282,0.188,0.471,0.47,0.658,0.847
		c0.188,0.376,0.188,0.752,0.188,1.223v5.269H208.211z M206.894,472.811v-2.164c-0.376,0-0.847,0.095-1.411,0.095
		s-0.94,0.094-1.316,0.188c-0.377,0.095-0.659,0.282-0.941,0.471c-0.188,0.188-0.376,0.564-0.376,0.94
		c0,0.471,0.095,0.753,0.376,1.035c0.282,0.188,0.659,0.376,1.224,0.376c0.47,0,0.847-0.094,1.223-0.282
		C206.236,473.281,206.518,472.999,206.894,472.811z"/>
	<path fill="#00A94F" d="M217.525,474.692h-1.317v-4.422c0-0.376,0-0.658-0.094-1.035c0-0.282-0.095-0.564-0.188-0.752
		c-0.094-0.188-0.282-0.377-0.471-0.471c-0.188-0.094-0.47-0.188-0.846-0.188c-0.377,0-0.753,0.095-1.129,0.282
		c-0.377,0.188-0.753,0.377-1.129,0.659v5.738h-1.317v-7.714h1.317v0.847c0.376-0.377,0.847-0.564,1.223-0.753
		c0.471-0.188,0.847-0.282,1.317-0.282c0.846,0,1.505,0.282,1.881,0.753c0.471,0.47,0.658,1.223,0.658,2.163v5.175H217.525z"/>
	<path fill="#00A94F" d="M227.402,474.692h-1.692l-3.104-3.387l-0.847,0.847v2.54h-1.317v-10.725h1.317v6.867l3.763-3.857h1.599
		l-3.574,3.575L227.402,474.692z"/>
	<path fill="#00A94F" d="M235.492,470.929h-5.645c0,0.471,0.094,0.847,0.188,1.224c0.188,0.376,0.376,0.658,0.564,0.847
		c0.282,0.188,0.564,0.376,0.847,0.47c0.376,0.095,0.658,0.188,1.129,0.188c0.564,0,1.034-0.094,1.599-0.282
		s0.941-0.376,1.129-0.658h0.095v1.411c-0.471,0.188-0.847,0.376-1.317,0.47c-0.471,0.095-0.94,0.188-1.411,0.188
		c-1.317,0-2.258-0.376-3.011-1.035c-0.752-0.658-1.034-1.693-1.034-2.916s0.376-2.258,1.034-3.011
		c0.659-0.752,1.6-1.129,2.729-1.129c1.035,0,1.882,0.282,2.446,0.941c0.564,0.564,0.847,1.505,0.847,2.634v0.658H235.492z
		 M234.27,469.988c0-0.658-0.188-1.223-0.471-1.6c-0.376-0.376-0.847-0.564-1.505-0.564c-0.659,0-1.224,0.188-1.693,0.659
		c-0.377,0.376-0.659,0.94-0.659,1.505H234.27z"/>
	<path fill="#00A94F" d="M244.335,474.692h-1.317v-4.422c0-0.376,0-0.658-0.094-1.035c0-0.282-0.094-0.564-0.188-0.752
		c-0.094-0.188-0.282-0.377-0.47-0.471c-0.188-0.094-0.471-0.188-0.847-0.188c-0.377,0-0.753,0.095-1.129,0.282
		c-0.377,0.188-0.753,0.377-1.129,0.659v5.738h-1.317v-7.714h1.317v0.847c0.376-0.377,0.847-0.564,1.223-0.753
		c0.471-0.188,0.847-0.282,1.317-0.282c0.847,0,1.505,0.282,1.881,0.753c0.471,0.47,0.659,1.223,0.659,2.163v5.175H244.335z"/>
	<path fill="#00A94F" d="M253.836,466.978l-3.104,7.715h-1.316l-3.104-7.715h1.411l2.352,6.115l2.352-6.115H253.836z"/>
	<path fill="#00A94F" d="M262.209,470.929h-5.645c0,0.471,0.094,0.847,0.188,1.224c0.188,0.376,0.376,0.658,0.564,0.847
		c0.282,0.188,0.564,0.376,0.847,0.47c0.376,0.095,0.658,0.188,1.129,0.188c0.564,0,1.034-0.094,1.599-0.282s0.94-0.376,1.129-0.658
		h0.094v1.411c-0.47,0.188-0.846,0.376-1.316,0.47c-0.471,0.095-0.94,0.188-1.411,0.188c-1.317,0-2.258-0.376-3.011-1.035
		c-0.752-0.658-1.034-1.693-1.034-2.916s0.376-2.258,1.034-3.011c0.659-0.752,1.6-1.129,2.729-1.129
		c1.035,0,1.882,0.282,2.445,0.941c0.564,0.564,0.847,1.505,0.847,2.634v0.658H262.209z M260.987,469.988
		c0-0.658-0.188-1.223-0.471-1.6c-0.376-0.376-0.847-0.564-1.505-0.564c-0.659,0-1.224,0.188-1.693,0.659
		c-0.377,0.376-0.659,0.94-0.659,1.505H260.987z"/>
	<path fill="#00A94F" d="M269.452,468.389L269.452,468.389c-0.282,0-0.47-0.094-0.658-0.094s-0.376,0-0.658,0
		c-0.377,0-0.753,0.094-1.129,0.282c-0.377,0.188-0.753,0.376-1.035,0.658v5.457h-1.317v-7.715h1.317v1.129
		c0.471-0.376,0.94-0.752,1.411-0.847c0.376-0.188,0.753-0.282,1.223-0.282c0.188,0,0.377,0,0.471,0s0.282,0,0.471,0.095v1.316
		H269.452z"/>
	<path fill="#00A94F" d="M276.508,472.435c0,0.658-0.282,1.316-0.847,1.693c-0.564,0.47-1.411,0.658-2.352,0.658
		c-0.564,0-1.129-0.094-1.6-0.188c-0.47-0.094-0.847-0.282-1.223-0.47v-1.506h0.094c0.377,0.282,0.847,0.564,1.411,0.753
		c0.471,0.188,0.941,0.282,1.411,0.282c0.564,0,1.035-0.094,1.317-0.282s0.47-0.471,0.47-0.847c0-0.282-0.094-0.564-0.282-0.658
		c-0.188-0.188-0.47-0.282-1.034-0.377c-0.188,0-0.471-0.094-0.753-0.188c-0.282-0.095-0.564-0.095-0.847-0.188
		c-0.658-0.188-1.129-0.471-1.411-0.753c-0.282-0.376-0.47-0.752-0.47-1.316c0-0.282,0.094-0.659,0.188-0.941
		c0.095-0.282,0.377-0.564,0.564-0.752c0.282-0.188,0.564-0.377,0.941-0.471c0.376-0.094,0.847-0.188,1.316-0.188
		c0.471,0,0.94,0.095,1.411,0.188s0.847,0.282,1.223,0.376v1.411h-0.094c-0.376-0.282-0.753-0.47-1.223-0.658
		c-0.471-0.188-0.94-0.282-1.411-0.282s-0.847,0.094-1.223,0.282c-0.282,0.188-0.471,0.471-0.471,0.847
		c0,0.282,0.094,0.564,0.282,0.753c0.188,0.188,0.471,0.282,0.94,0.376c0.282,0.094,0.471,0.094,0.847,0.188
		c0.282,0.094,0.564,0.094,0.753,0.188c0.564,0.095,1.034,0.377,1.411,0.753C276.414,471.493,276.508,471.87,276.508,472.435z"/>
	<path fill="#00A94F" d="M280.177,465.661h-1.505v-1.317h1.505V465.661z M280.083,474.692h-1.317v-7.715h1.317V474.692z"/>
	<path fill="#00A94F" d="M288.831,474.222c-0.47,0.188-0.847,0.376-1.223,0.471c-0.376,0.094-0.847,0.188-1.223,0.188
		c-0.564,0-1.035-0.094-1.505-0.282c-0.471-0.188-0.847-0.376-1.224-0.752c-0.376-0.377-0.564-0.753-0.752-1.224
		c-0.188-0.47-0.282-1.129-0.282-1.787c0-1.223,0.376-2.258,1.034-3.011c0.659-0.752,1.6-1.034,2.729-1.034
		c0.47,0,0.847,0.094,1.316,0.188c0.471,0.094,0.847,0.281,1.129,0.47v1.411h-0.094c-0.376-0.282-0.847-0.564-1.223-0.752
		c-0.376-0.188-0.847-0.282-1.223-0.282c-0.753,0-1.317,0.282-1.788,0.752c-0.47,0.471-0.658,1.223-0.658,2.164
		c0,0.94,0.188,1.693,0.658,2.163c0.377,0.471,1.035,0.753,1.788,0.753c0.282,0,0.564,0,0.847-0.094
		c0.281-0.095,0.47-0.188,0.752-0.282c0.188-0.095,0.376-0.188,0.564-0.282c0.188-0.095,0.282-0.188,0.376-0.282h0.095v1.505
		H288.831z"/>
	<path fill="#00A94F" d="M297.298,474.692h-1.316v-4.422c0-0.376,0-0.658-0.095-1.035c0-0.282-0.094-0.564-0.188-0.752
		c-0.095-0.188-0.282-0.377-0.471-0.471s-0.471-0.188-0.847-0.188s-0.753,0.095-1.129,0.282c-0.376,0.188-0.753,0.377-1.129,0.659
		v5.738h-1.317v-10.725h1.317v3.857c0.376-0.377,0.847-0.564,1.223-0.753c0.471-0.188,0.847-0.282,1.317-0.282
		c0.847,0,1.505,0.282,1.881,0.753c0.471,0.47,0.659,1.223,0.659,2.163v5.175H297.298z"/>
	<path fill="#00A94F" d="M306.705,470.929h-5.645c0,0.471,0.094,0.847,0.188,1.224c0.188,0.376,0.376,0.658,0.564,0.847
		c0.282,0.188,0.564,0.376,0.847,0.47c0.376,0.095,0.658,0.188,1.129,0.188c0.564,0,1.034-0.094,1.599-0.282
		s0.941-0.376,1.129-0.658h0.095v1.411c-0.471,0.188-0.847,0.376-1.317,0.47c-0.471,0.095-0.94,0.188-1.411,0.188
		c-1.316,0-2.258-0.376-3.01-1.035c-0.753-0.658-1.035-1.693-1.035-2.916s0.376-2.258,1.035-3.011
		c0.658-0.752,1.599-1.129,2.728-1.129c1.035,0,1.882,0.282,2.446,0.941c0.564,0.564,0.847,1.505,0.847,2.634v0.658H306.705z
		 M305.388,469.988c0-0.658-0.188-1.223-0.47-1.6c-0.377-0.376-0.847-0.564-1.506-0.564c-0.658,0-1.223,0.188-1.693,0.659
		c-0.376,0.376-0.658,0.94-0.658,1.505H305.388z"/>
	<path fill="#00A94F" d="M313.855,468.389L313.855,468.389c-0.282,0-0.471-0.094-0.658-0.094c-0.188,0-0.377,0-0.659,0
		c-0.376,0-0.752,0.094-1.129,0.282c-0.376,0.188-0.752,0.376-1.034,0.658v5.457h-1.317v-7.715h1.317v1.129
		c0.47-0.376,0.94-0.752,1.411-0.847c0.376-0.188,0.752-0.282,1.223-0.282c0.188,0,0.376,0,0.471,0c0.094,0,0.282,0,0.47,0.095
		v1.316H313.855z"/>
	<path fill="#00A94F" d="M321.946,470.929h-5.645c0,0.471,0.094,0.847,0.188,1.224c0.188,0.376,0.377,0.658,0.564,0.847
		c0.282,0.188,0.564,0.376,0.847,0.47c0.282,0.095,0.659,0.188,1.129,0.188c0.564,0,1.035-0.094,1.6-0.282s0.94-0.376,1.129-0.658
		h0.094v1.411c-0.47,0.188-0.847,0.376-1.316,0.47c-0.471,0.095-0.941,0.188-1.411,0.188c-1.317,0-2.258-0.376-3.011-1.035
		c-0.753-0.658-1.035-1.693-1.035-2.916s0.377-2.258,1.035-3.011c0.658-0.752,1.6-1.129,2.729-1.129
		c1.034,0,1.881,0.282,2.445,0.941c0.564,0.564,0.847,1.505,0.847,2.634v0.658H321.946z M320.722,469.988
		c0-0.658-0.188-1.223-0.47-1.6c-0.377-0.376-0.847-0.564-1.506-0.564c-0.658,0-1.223,0.188-1.693,0.659
		c-0.376,0.376-0.658,0.94-0.658,1.505H320.722z"/>
	<path fill="#00A94F" d="M329.095,468.389L329.095,468.389c-0.282,0-0.471-0.094-0.659-0.094c-0.188,0-0.376,0-0.658,0
		c-0.376,0-0.753,0.094-1.129,0.282s-0.753,0.376-1.035,0.658v5.457h-1.316v-7.715h1.316v1.129c0.471-0.376,0.941-0.752,1.411-0.847
		c0.377-0.188,0.753-0.282,1.224-0.282c0.188,0,0.376,0,0.47,0c0.095,0,0.282,0,0.471,0.095v1.316H329.095z"/>
	<path fill="#00A94F" d="M338.502,470.835h-4.327v-1.223h4.327V470.835z"/>
	<path fill="#00A94F" d="M352.237,474.692h-1.317v-4.422c0-0.376,0-0.658-0.094-1.035c0-0.282-0.094-0.564-0.188-0.752
		c-0.094-0.188-0.282-0.377-0.47-0.471c-0.188-0.094-0.471-0.188-0.847-0.188c-0.377,0-0.753,0.095-1.129,0.282
		c-0.377,0.188-0.753,0.377-1.129,0.659v5.738h-1.317v-7.714h1.317v0.847c0.376-0.377,0.847-0.564,1.223-0.753
		c0.471-0.188,0.847-0.282,1.317-0.282c0.847,0,1.505,0.282,1.881,0.753c0.471,0.47,0.659,1.223,0.659,2.163v5.175H352.237z"/>
	<path fill="#00A94F" d="M361.738,470.835c0,1.223-0.282,2.258-0.94,3.011c-0.658,0.752-1.505,1.129-2.634,1.129
		s-1.976-0.377-2.634-1.129c-0.659-0.753-0.941-1.693-0.941-3.011c0-1.223,0.282-2.258,0.941-3.011
		c0.658-0.752,1.505-1.129,2.634-1.129s1.976,0.377,2.634,1.129C361.362,468.577,361.738,469.612,361.738,470.835z M360.421,470.835
		c0-1.035-0.188-1.787-0.564-2.258s-0.94-0.753-1.6-0.753c-0.752,0-1.223,0.282-1.599,0.753c-0.377,0.471-0.564,1.223-0.564,2.258
		c0,0.94,0.188,1.693,0.564,2.164c0.376,0.47,0.94,0.752,1.599,0.752c0.659,0,1.223-0.282,1.6-0.752
		C360.139,472.528,360.421,471.775,360.421,470.835z"/>
	<path fill="#00A94F" d="M369.64,472.435c0,0.658-0.282,1.316-0.847,1.693c-0.564,0.47-1.411,0.658-2.352,0.658
		c-0.564,0-1.129-0.094-1.6-0.188c-0.47-0.094-0.847-0.282-1.223-0.47v-1.506h0.094c0.377,0.282,0.847,0.564,1.411,0.753
		c0.471,0.188,0.941,0.282,1.411,0.282c0.564,0,1.035-0.094,1.317-0.282s0.471-0.471,0.471-0.847c0-0.282-0.095-0.564-0.282-0.658
		c-0.188-0.188-0.471-0.282-1.035-0.377c-0.188,0-0.471-0.094-0.753-0.188c-0.282-0.095-0.564-0.095-0.847-0.188
		c-0.658-0.188-1.129-0.471-1.411-0.753c-0.282-0.376-0.47-0.752-0.47-1.316c0-0.282,0.094-0.659,0.188-0.941
		c0.095-0.282,0.377-0.564,0.564-0.752c0.282-0.188,0.564-0.377,0.941-0.471c0.376-0.094,0.847-0.188,1.316-0.188
		c0.471,0,0.941,0.095,1.411,0.188c0.471,0.094,0.847,0.282,1.224,0.376v1.411h-0.095c-0.376-0.282-0.752-0.47-1.223-0.658
		s-0.94-0.282-1.411-0.282s-0.847,0.094-1.223,0.282c-0.282,0.188-0.471,0.471-0.471,0.847c0,0.282,0.094,0.564,0.282,0.753
		c0.188,0.188,0.471,0.282,0.94,0.376c0.282,0.094,0.471,0.094,0.847,0.188c0.282,0.094,0.564,0.094,0.753,0.188
		c0.564,0.095,1.035,0.377,1.411,0.753C369.452,471.493,369.64,471.87,369.64,472.435z"/>
	<path fill="#00A94F" d="M377.448,472.435c0,0.658-0.282,1.316-0.847,1.693c-0.564,0.47-1.411,0.658-2.353,0.658
		c-0.564,0-1.129-0.094-1.599-0.188c-0.471-0.094-0.847-0.282-1.223-0.47v-1.506h0.094c0.376,0.282,0.847,0.564,1.411,0.753
		c0.47,0.188,0.94,0.282,1.411,0.282c0.564,0,1.034-0.094,1.316-0.282s0.471-0.471,0.471-0.847c0-0.282-0.094-0.564-0.282-0.658
		c-0.188-0.188-0.471-0.282-1.035-0.377c-0.188,0-0.47-0.094-0.752-0.188c-0.282-0.095-0.564-0.095-0.847-0.188
		c-0.658-0.188-1.129-0.471-1.411-0.753c-0.282-0.376-0.471-0.752-0.471-1.316c0-0.282,0.095-0.659,0.188-0.941
		s0.376-0.564,0.564-0.752c0.282-0.188,0.564-0.377,0.94-0.471s0.847-0.188,1.317-0.188c0.47,0,0.94,0.095,1.411,0.188
		c0.47,0.094,0.847,0.282,1.223,0.376v1.411h-0.094c-0.377-0.282-0.753-0.47-1.224-0.658c-0.47-0.188-0.94-0.282-1.411-0.282
		c-0.47,0-0.847,0.094-1.223,0.282c-0.282,0.188-0.47,0.471-0.47,0.847c0,0.282,0.094,0.564,0.281,0.753
		c0.188,0.188,0.471,0.282,0.941,0.376c0.282,0.094,0.47,0.094,0.847,0.188c0.282,0.094,0.564,0.094,0.752,0.188
		c0.564,0.095,1.035,0.377,1.411,0.753C377.26,471.493,377.448,471.87,377.448,472.435z"/>
	<path fill="#00A94F" d="M385.632,474.692h-1.223v-0.847c-0.094,0.094-0.282,0.188-0.471,0.282
		c-0.188,0.094-0.376,0.282-0.564,0.376c-0.188,0.094-0.47,0.188-0.752,0.282s-0.564,0.094-1.035,0.094
		c-0.658,0-1.316-0.188-1.787-0.658s-0.753-1.035-0.753-1.787c0-0.564,0.095-1.035,0.377-1.411c0.282-0.377,0.564-0.659,1.034-0.847
		c0.471-0.188,1.035-0.377,1.693-0.377c0.659-0.094,1.411-0.094,2.164-0.188v-0.188c0-0.282-0.095-0.564-0.188-0.753
		c-0.094-0.188-0.282-0.376-0.471-0.47c-0.188-0.095-0.376-0.188-0.658-0.188s-0.564-0.094-0.847-0.094
		c-0.376,0-0.752,0-1.129,0.094c-0.376,0.094-0.847,0.188-1.316,0.376h-0.095v-1.316c0.282-0.095,0.659-0.188,1.129-0.188
		c0.471-0.094,0.941-0.094,1.411-0.094c0.564,0,1.035,0,1.411,0.094s0.753,0.282,1.035,0.471c0.282,0.188,0.47,0.47,0.658,0.847
		c0.188,0.376,0.188,0.752,0.188,1.223v5.269H385.632z M384.409,472.811v-2.164c-0.376,0-0.847,0.095-1.411,0.095
		s-0.94,0.094-1.316,0.188c-0.377,0.095-0.659,0.282-0.941,0.471c-0.188,0.188-0.376,0.564-0.376,0.94
		c0,0.471,0.094,0.753,0.376,1.035c0.282,0.188,0.659,0.376,1.224,0.376c0.47,0,0.847-0.094,1.223-0.282
		C383.656,473.281,384.033,472.999,384.409,472.811z"/>
	<path fill="#00A94F" d="M399.65,474.222c-0.471,0.188-0.847,0.376-1.224,0.471c-0.376,0.094-0.847,0.188-1.223,0.188
		c-0.564,0-1.035-0.094-1.505-0.282c-0.471-0.188-0.847-0.376-1.223-0.752c-0.377-0.377-0.564-0.753-0.753-1.224
		c-0.188-0.47-0.282-1.129-0.282-1.787c0-1.223,0.376-2.258,1.035-3.011c0.658-0.752,1.599-1.034,2.728-1.034
		c0.471,0,0.847,0.094,1.317,0.188c0.47,0.094,0.847,0.281,1.129,0.47v1.411h-0.095c-0.376-0.282-0.847-0.564-1.223-0.752
		c-0.376-0.188-0.847-0.282-1.223-0.282c-0.753,0-1.317,0.282-1.787,0.752c-0.471,0.471-0.659,1.223-0.659,2.164
		c0,0.94,0.188,1.693,0.659,2.163c0.376,0.471,1.034,0.753,1.787,0.753c0.282,0,0.564,0,0.847-0.094
		c0.282-0.095,0.47-0.188,0.752-0.282c0.188-0.095,0.377-0.188,0.564-0.282c0.188-0.095,0.282-0.188,0.377-0.282h0.094v1.505H399.65
		z"/>
	<path fill="#00A94F" d="M407.74,474.692h-1.317v-0.847c-0.094,0.094-0.281,0.188-0.47,0.282c-0.188,0.094-0.376,0.282-0.564,0.376
		s-0.471,0.188-0.753,0.282s-0.564,0.094-1.034,0.094c-0.659,0-1.317-0.188-1.788-0.658c-0.47-0.471-0.752-1.035-0.752-1.787
		c0-0.564,0.094-1.035,0.376-1.411c0.282-0.377,0.564-0.659,1.035-0.847c0.47-0.188,1.034-0.377,1.693-0.377
		c0.658-0.094,1.411-0.094,2.163-0.188v-0.188c0-0.282-0.094-0.564-0.188-0.753c-0.095-0.188-0.283-0.376-0.471-0.47
		c-0.188-0.095-0.376-0.188-0.658-0.188s-0.564-0.094-0.847-0.094c-0.377,0-0.753,0-1.129,0.094
		c-0.377,0.094-0.847,0.188-1.317,0.376h-0.094v-1.316c0.282-0.095,0.658-0.188,1.129-0.188c0.47-0.094,0.94-0.094,1.411-0.094
		c0.564,0,1.034,0,1.411,0.094c0.376,0.094,0.752,0.282,1.034,0.471c0.282,0.188,0.471,0.47,0.658,0.847
		c0.188,0.376,0.188,0.752,0.188,1.223v5.269H407.74z M406.422,472.811v-2.164c-0.376,0-0.846,0.095-1.41,0.095
		s-0.941,0.094-1.317,0.188c-0.376,0.095-0.658,0.282-0.94,0.471c-0.188,0.188-0.377,0.564-0.377,0.94
		c0,0.471,0.095,0.753,0.377,1.035c0.282,0.188,0.658,0.376,1.223,0.376c0.471,0,0.847-0.094,1.223-0.282
		C405.764,473.281,406.141,472.999,406.422,472.811z"/>
	<path fill="#00A94F" d="M416.113,472.435c0,0.658-0.282,1.316-0.847,1.693c-0.564,0.47-1.411,0.658-2.353,0.658
		c-0.564,0-1.129-0.094-1.599-0.188c-0.471-0.094-0.847-0.282-1.224-0.47v-1.506h0.095c0.376,0.282,0.847,0.564,1.411,0.753
		c0.47,0.188,0.94,0.282,1.411,0.282c0.564,0,1.034-0.094,1.316-0.282s0.471-0.471,0.471-0.847c0-0.282-0.094-0.564-0.282-0.658
		c-0.188-0.188-0.471-0.282-1.035-0.377c-0.188,0-0.47-0.094-0.752-0.188c-0.282-0.095-0.564-0.095-0.847-0.188
		c-0.659-0.188-1.129-0.471-1.411-0.753c-0.282-0.376-0.471-0.752-0.471-1.316c0-0.282,0.094-0.659,0.188-0.941
		c0.094-0.282,0.376-0.564,0.564-0.752c0.282-0.188,0.564-0.377,0.94-0.471s0.847-0.188,1.317-0.188c0.47,0,0.94,0.095,1.411,0.188
		c0.47,0.094,0.847,0.282,1.223,0.376v1.411h-0.094c-0.377-0.282-0.753-0.47-1.224-0.658c-0.47-0.188-0.94-0.282-1.411-0.282
		c-0.47,0-0.847,0.094-1.223,0.282c-0.282,0.188-0.471,0.471-0.471,0.847c0,0.282,0.095,0.564,0.282,0.753
		c0.188,0.188,0.471,0.282,0.941,0.376c0.282,0.094,0.47,0.094,0.847,0.188c0.282,0.094,0.564,0.094,0.752,0.188
		c0.564,0.095,1.035,0.377,1.411,0.753C415.924,471.493,416.113,471.87,416.113,472.435z"/>
	<path fill="#00A94F" d="M423.92,472.435c0,0.658-0.282,1.316-0.847,1.693c-0.564,0.47-1.411,0.658-2.352,0.658
		c-0.564,0-1.129-0.094-1.6-0.188c-0.47-0.094-0.847-0.282-1.223-0.47v-1.506h0.094c0.376,0.282,0.847,0.564,1.411,0.753
		c0.471,0.188,0.94,0.282,1.411,0.282c0.564,0,1.035-0.094,1.317-0.282s0.47-0.471,0.47-0.847c0-0.282-0.094-0.564-0.282-0.658
		c-0.188-0.188-0.47-0.282-1.034-0.377c-0.188,0-0.471-0.094-0.753-0.188c-0.282-0.095-0.564-0.095-0.847-0.188
		c-0.658-0.188-1.129-0.471-1.411-0.753c-0.282-0.376-0.47-0.752-0.47-1.316c0-0.282,0.094-0.659,0.188-0.941
		c0.095-0.282,0.377-0.564,0.564-0.752c0.282-0.188,0.564-0.377,0.941-0.471c0.376-0.094,0.847-0.188,1.316-0.188
		c0.471,0,0.94,0.095,1.411,0.188s0.847,0.282,1.223,0.376v1.411h-0.094c-0.376-0.282-0.753-0.47-1.223-0.658
		c-0.471-0.188-0.941-0.282-1.411-0.282c-0.471,0-0.847,0.094-1.223,0.282c-0.282,0.188-0.471,0.471-0.471,0.847
		c0,0.282,0.094,0.564,0.282,0.753c0.188,0.188,0.471,0.282,0.94,0.376c0.282,0.094,0.471,0.094,0.847,0.188
		c0.282,0.094,0.564,0.094,0.753,0.188c0.564,0.095,1.034,0.377,1.411,0.753C423.732,471.493,423.92,471.87,423.92,472.435z"/>
	<path fill="#00A94F" d="M432.198,474.692h-1.317v-0.847c-0.094,0.094-0.281,0.188-0.47,0.282c-0.188,0.094-0.376,0.282-0.564,0.376
		s-0.471,0.188-0.753,0.282s-0.564,0.094-1.034,0.094c-0.659,0-1.317-0.188-1.788-0.658c-0.47-0.471-0.752-1.035-0.752-1.787
		c0-0.564,0.094-1.035,0.376-1.411c0.282-0.377,0.564-0.659,1.035-0.847c0.47-0.188,1.034-0.377,1.693-0.377
		c0.658-0.094,1.411-0.094,2.163-0.188v-0.188c0-0.282-0.094-0.564-0.188-0.753c-0.094-0.188-0.282-0.376-0.47-0.47
		c-0.188-0.095-0.377-0.188-0.658-0.188c-0.283,0-0.564-0.094-0.848-0.094c-0.376,0-0.752,0-1.128,0.094
		c-0.377,0.094-0.847,0.188-1.317,0.376h-0.094v-1.316c0.282-0.095,0.658-0.188,1.129-0.188c0.47-0.094,0.94-0.094,1.41-0.094
		c0.564,0,1.035,0,1.411,0.094c0.377,0.094,0.753,0.282,1.035,0.471c0.282,0.188,0.471,0.47,0.658,0.847
		c0.188,0.376,0.188,0.752,0.188,1.223v5.269H432.198z M430.881,472.811v-2.164c-0.376,0-0.846,0.095-1.41,0.095
		s-0.941,0.094-1.317,0.188c-0.376,0.095-0.658,0.282-0.94,0.471c-0.188,0.188-0.377,0.564-0.377,0.94
		c0,0.471,0.095,0.753,0.377,1.035c0.282,0.188,0.658,0.376,1.223,0.376c0.471,0,0.847-0.094,1.223-0.282
		C430.223,473.281,430.505,472.999,430.881,472.811z"/>
</g>
<path fill="#00A94F" d="M91.09,420.224c4.046,6.303,7.996,12.7,12.889,18.156c4.327-3.857,8.843-7.62,15.616-9.125
	c-2.258,1.317-4.328,2.54-6.586,4.516c-1.505,1.411-4.797,4.139-5.079,6.021c-0.377,2.634,3.198,9.125,4.327,11.571
	c1.787,4.139,3.292,7.996,4.045,11.853c-4.986-4.421-8.09-10.818-11.571-16.65c-4.798,6.961-8.278,15.239-11.383,23.988
	c0.471-8.467,2.822-15.898,5.551-23.424c0.658-1.882,2.634-5.362,2.54-7.056c-0.095-1.223-1.882-3.293-2.729-4.798
	C95.794,430.572,93.254,425.68,91.09,420.224z"/>
<path fill="#00A94F" d="M74.816,406.771c9.031-1.506,7.244,13.076,1.505,13.547C68.889,421.07,68.607,407.807,74.816,406.771z"/>
<g>
	<g>
		
			<linearGradient id="SVGID_1_" gradientUnits="userSpaceOnUse" x1="73.4402" y1="294.3281" x2="17.24" y2="294.3281" gradientTransform="matrix(0.9407 0 0 -0.9407 34.4213 721.1876)">
			<stop  offset="0" style="stop-color:#90A2CD"/>
			<stop  offset="1" style="stop-color:#00539B"/>
		</linearGradient>
		<path fill="url(#SVGID_1_)" d="M81.589,433.864c0.282-2.352,3.574-5.645,5.268-8.278c5.645-9.031,10.818-17.215,16.558-24.93
			c0,0-0.095,0-0.282,0.094c0,0,0,0-0.095,0c-0.282,0.189-0.847,0.564-1.505,1.318l0,0l-0.094,0.094l0,0l0,0
			c-8.373,9.031-16.275,18.532-24.083,28.222c-7.338-7.714-15.522-16.651-26.811-19.285c2.634,1.693,4.892,3.669,7.149,5.645
			c1.787,1.505,3.387,3.104,4.892,4.892c3.011,3.48,6.021,7.056,8.278,11.289c-3.48,15.898-10.63,30.104-10.912,47.883
			c5.738-11.194,10.348-23.612,16.181-34.713c7.243,11.947,11.383,27.093,15.804,41.862c-0.376-15.616-3.574-28.786-7.149-41.486
			C84.035,443.178,81.307,436.875,81.589,433.864z"/>
	</g>
</g>
<path fill="#00A94F" d="M131.072,404.043c-9.502-1.505-7.62,13.076-1.6,13.547C137.281,418.342,137.563,405.078,131.072,404.043z"/>
<g>
	<g>
		
			<linearGradient id="SVGID_2_" gradientUnits="userSpaceOnUse" x1="73.6399" y1="296.9272" x2="129.1389" y2="296.9272" gradientTransform="matrix(0.9407 0 0 -0.9407 34.4213 721.1876)">
			<stop  offset="0" style="stop-color:#90A2CD"/>
			<stop  offset="0.1513" style="stop-color:#6F89BE"/>
			<stop  offset="0.336" style="stop-color:#4D73B0"/>
			<stop  offset="0.5172" style="stop-color:#2C63A6"/>
			<stop  offset="0.6915" style="stop-color:#005AA0"/>
			<stop  offset="0.8559" style="stop-color:#00549C"/>
			<stop  offset="1" style="stop-color:#00539B"/>
		</linearGradient>
		<path fill="url(#SVGID_2_)" d="M148.851,415.896c2.258-1.881,4.516-3.764,7.056-5.362c-11.101,2.446-19.19,10.818-26.435,18.063
			c-7.62-8.938-15.334-17.874-23.518-26.247l-0.095-0.094l-0.094-0.094l-0.094-0.094l0,0c-0.659-0.659-1.129-1.035-1.506-1.224
			c-0.094-0.095-0.188-0.095-0.282-0.095c0,0,0,0-0.094,0h-0.094l0,0l0,0l0,0c5.644,7.15,10.724,14.864,16.368,23.331
			c1.693,2.54,4.986,5.55,5.174,7.808c0.377,2.822-2.352,8.749-3.387,12.041c-3.574,11.947-6.772,24.365-7.055,39.041
			c4.327-13.923,25.964-17.31,31.702-6.773c-0.282-16.745-7.338-30.104-10.818-45.062c2.164-4.045,5.174-7.337,8.185-10.63
			C145.464,418.813,147.064,417.308,148.851,415.896z"/>
	</g>
</g>
<ellipse fill="#00539B" cx="104.731" cy="429.443" rx="3.199" ry="4.328"/>
</svg>
